%TF.GenerationSoftware,KiCad,Pcbnew,5.1.10-88a1d61d58~90~ubuntu20.04.1*%
%TF.CreationDate,2021-12-10T22:24:31-05:00*%
%TF.ProjectId,Load_Balancer_mk_4,4c6f6164-5f42-4616-9c61-6e6365725f6d,rev?*%
%TF.SameCoordinates,Original*%
%TF.FileFunction,Copper,L2,Bot*%
%TF.FilePolarity,Positive*%
%FSLAX46Y46*%
G04 Gerber Fmt 4.6, Leading zero omitted, Abs format (unit mm)*
G04 Created by KiCad (PCBNEW 5.1.10-88a1d61d58~90~ubuntu20.04.1) date 2021-12-10 22:24:31*
%MOMM*%
%LPD*%
G01*
G04 APERTURE LIST*
%TA.AperFunction,ComponentPad*%
%ADD10O,1.600000X1.600000*%
%TD*%
%TA.AperFunction,ComponentPad*%
%ADD11R,1.600000X1.600000*%
%TD*%
%TA.AperFunction,ComponentPad*%
%ADD12C,1.600000*%
%TD*%
%TA.AperFunction,ComponentPad*%
%ADD13O,2.400000X2.400000*%
%TD*%
%TA.AperFunction,ComponentPad*%
%ADD14C,2.400000*%
%TD*%
%TA.AperFunction,ComponentPad*%
%ADD15O,2.250000X1.550000*%
%TD*%
%TA.AperFunction,ComponentPad*%
%ADD16R,2.250000X1.550000*%
%TD*%
%TA.AperFunction,ComponentPad*%
%ADD17R,1.500000X1.500000*%
%TD*%
%TA.AperFunction,ComponentPad*%
%ADD18C,1.500000*%
%TD*%
%TA.AperFunction,ComponentPad*%
%ADD19C,1.800000*%
%TD*%
%TA.AperFunction,ComponentPad*%
%ADD20C,0.900000*%
%TD*%
%TA.AperFunction,ComponentPad*%
%ADD21C,10.600000*%
%TD*%
%TA.AperFunction,ComponentPad*%
%ADD22R,1.800000X1.800000*%
%TD*%
%TA.AperFunction,ComponentPad*%
%ADD23O,2.200000X2.200000*%
%TD*%
%TA.AperFunction,ComponentPad*%
%ADD24R,2.200000X2.200000*%
%TD*%
%TA.AperFunction,ComponentPad*%
%ADD25C,2.000000*%
%TD*%
%TA.AperFunction,ComponentPad*%
%ADD26R,2.000000X2.000000*%
%TD*%
%TA.AperFunction,ViaPad*%
%ADD27C,0.800000*%
%TD*%
%TA.AperFunction,Conductor*%
%ADD28C,0.750000*%
%TD*%
%TA.AperFunction,Conductor*%
%ADD29C,0.500000*%
%TD*%
%TA.AperFunction,Conductor*%
%ADD30C,1.250000*%
%TD*%
%TA.AperFunction,Conductor*%
%ADD31C,2.000000*%
%TD*%
%TA.AperFunction,Conductor*%
%ADD32C,1.100000*%
%TD*%
%TA.AperFunction,Conductor*%
%ADD33C,0.254000*%
%TD*%
%TA.AperFunction,Conductor*%
%ADD34C,0.100000*%
%TD*%
G04 APERTURE END LIST*
D10*
%TO.P,U1,14*%
%TO.N,+15V*%
X100650000Y-73380000D03*
%TO.P,U1,7*%
%TO.N,GND*%
X115890000Y-81000000D03*
%TO.P,U1,13*%
%TO.N,Net-(U1-Pad13)*%
X103190000Y-73380000D03*
%TO.P,U1,6*%
%TO.N,Net-(C5-Pad2)*%
X113350000Y-81000000D03*
%TO.P,U1,12*%
%TO.N,Net-(C6-Pad1)*%
X105730000Y-73380000D03*
%TO.P,U1,5*%
%TO.N,Net-(C5-Pad2)*%
X110810000Y-81000000D03*
%TO.P,U1,11*%
%TO.N,Net-(R10-Pad1)*%
X108270000Y-73380000D03*
%TO.P,U1,4*%
%TO.N,Net-(U1-Pad4)*%
X108270000Y-81000000D03*
%TO.P,U1,10*%
%TO.N,Net-(R11-Pad1)*%
X110810000Y-73380000D03*
%TO.P,U1,3*%
%TO.N,Net-(C5-Pad1)*%
X105730000Y-81000000D03*
%TO.P,U1,9*%
%TO.N,Net-(U1-Pad9)*%
X113350000Y-73380000D03*
%TO.P,U1,2*%
%TO.N,Net-(R7-Pad2)*%
X103190000Y-81000000D03*
%TO.P,U1,8*%
%TO.N,Net-(C6-Pad1)*%
X115890000Y-73380000D03*
D11*
%TO.P,U1,1*%
%TO.N,Net-(R7-Pad2)*%
X100650000Y-81000000D03*
%TD*%
D12*
%TO.P,TH1,2*%
%TO.N,GND*%
X94650000Y-44350000D03*
%TO.P,TH1,1*%
%TO.N,Net-(R18-Pad2)*%
X89650000Y-42550000D03*
%TD*%
D13*
%TO.P,R18,2*%
%TO.N,Net-(R18-Pad2)*%
X85240000Y-43550000D03*
D14*
%TO.P,R18,1*%
%TO.N,/LIVE_A*%
X70000000Y-43550000D03*
%TD*%
D15*
%TO.P,D5,3*%
%TO.N,Net-(D5-Pad3)*%
X72000000Y-88040000D03*
%TO.P,D5,2*%
%TO.N,/LIVE_B*%
X72000000Y-85500000D03*
D16*
%TO.P,D5,1*%
%TO.N,/LIVE_OUT*%
X72000000Y-82960000D03*
%TD*%
D15*
%TO.P,D4,3*%
%TO.N,Net-(D4-Pad3)*%
X72000000Y-51960000D03*
%TO.P,D4,2*%
%TO.N,/LIVE_A*%
X72000000Y-54500000D03*
D16*
%TO.P,D4,1*%
%TO.N,/LIVE_OUT*%
X72000000Y-57040000D03*
%TD*%
D17*
%TO.P,Q2,1*%
%TO.N,+15V*%
X94780000Y-88050000D03*
D18*
%TO.P,Q2,3*%
%TO.N,Net-(Q2-Pad3)*%
X89700000Y-88050000D03*
%TO.P,Q2,2*%
%TO.N,Net-(Q2-Pad2)*%
X92240000Y-88050000D03*
%TD*%
D17*
%TO.P,Q1,1*%
%TO.N,+15V*%
X93040000Y-48750000D03*
D18*
%TO.P,Q1,3*%
%TO.N,Net-(Q1-Pad3)*%
X87960000Y-48750000D03*
%TO.P,Q1,2*%
%TO.N,Net-(Q1-Pad2)*%
X90500000Y-48750000D03*
%TD*%
D10*
%TO.P,U2,14*%
%TO.N,+15V*%
X103200000Y-60130000D03*
%TO.P,U2,7*%
%TO.N,GND*%
X118440000Y-67750000D03*
%TO.P,U2,13*%
%TO.N,Net-(U2-Pad13)*%
X105740000Y-60130000D03*
%TO.P,U2,6*%
%TO.N,GND*%
X115900000Y-67750000D03*
%TO.P,U2,12*%
%TO.N,Net-(U2-Pad12)*%
X108280000Y-60130000D03*
%TO.P,U2,5*%
%TO.N,Net-(U1-Pad13)*%
X113360000Y-67750000D03*
%TO.P,U2,11*%
%TO.N,GND*%
X110820000Y-60130000D03*
%TO.P,U2,4*%
X110820000Y-67750000D03*
%TO.P,U2,10*%
X113360000Y-60130000D03*
%TO.P,U2,3*%
%TO.N,Net-(U1-Pad4)*%
X108280000Y-67750000D03*
%TO.P,U2,9*%
%TO.N,GND*%
X115900000Y-60130000D03*
%TO.P,U2,2*%
%TO.N,Net-(U1-Pad13)*%
X105740000Y-67750000D03*
%TO.P,U2,8*%
%TO.N,GND*%
X118440000Y-60130000D03*
D11*
%TO.P,U2,1*%
%TO.N,Net-(U1-Pad9)*%
X103200000Y-67750000D03*
%TD*%
D19*
%TO.P,RV3,2*%
%TO.N,NEUT*%
X63866670Y-101900000D03*
%TO.P,RV3,1*%
%TO.N,/LIVE_B*%
X65500000Y-94400000D03*
%TD*%
%TO.P,RV2,2*%
%TO.N,NEUT*%
X65533330Y-37600000D03*
%TO.P,RV2,1*%
%TO.N,/LIVE_A*%
X63900000Y-45100000D03*
%TD*%
%TO.P,RV1,2*%
%TO.N,NEUT*%
X80050000Y-71233330D03*
%TO.P,RV1,1*%
%TO.N,/LIVE_OUT*%
X72550000Y-69600000D03*
%TD*%
D10*
%TO.P,R17,2*%
%TO.N,GND*%
X87260000Y-91350000D03*
D12*
%TO.P,R17,1*%
%TO.N,Net-(D5-Pad3)*%
X77100000Y-91350000D03*
%TD*%
D10*
%TO.P,R16,2*%
%TO.N,Net-(D5-Pad3)*%
X77100000Y-88050000D03*
D12*
%TO.P,R16,1*%
%TO.N,Net-(Q2-Pad3)*%
X87260000Y-88050000D03*
%TD*%
D10*
%TO.P,R15,2*%
%TO.N,GND*%
X85310000Y-52000000D03*
D12*
%TO.P,R15,1*%
%TO.N,Net-(D4-Pad3)*%
X75150000Y-52000000D03*
%TD*%
D10*
%TO.P,R14,2*%
%TO.N,Net-(D4-Pad3)*%
X75150000Y-48750000D03*
D12*
%TO.P,R14,1*%
%TO.N,Net-(Q1-Pad3)*%
X85310000Y-48750000D03*
%TD*%
D10*
%TO.P,R13,2*%
%TO.N,Net-(Q2-Pad2)*%
X86150000Y-83610000D03*
D12*
%TO.P,R13,1*%
%TO.N,+15V*%
X86150000Y-73450000D03*
%TD*%
D10*
%TO.P,R12,2*%
%TO.N,Net-(Q1-Pad2)*%
X90500000Y-52550000D03*
D12*
%TO.P,R12,1*%
%TO.N,+15V*%
X90500000Y-62710000D03*
%TD*%
D10*
%TO.P,R11,2*%
%TO.N,Net-(Q1-Pad2)*%
X93700000Y-52550000D03*
D12*
%TO.P,R11,1*%
%TO.N,Net-(R11-Pad1)*%
X93700000Y-62710000D03*
%TD*%
D10*
%TO.P,R10,2*%
%TO.N,Net-(Q2-Pad2)*%
X89300000Y-83600000D03*
D12*
%TO.P,R10,1*%
%TO.N,Net-(R10-Pad1)*%
X89300000Y-73440000D03*
%TD*%
D10*
%TO.P,R9,2*%
%TO.N,+15V*%
X86640000Y-66050000D03*
D12*
%TO.P,R9,1*%
%TO.N,Net-(C6-Pad1)*%
X96800000Y-66050000D03*
%TD*%
D10*
%TO.P,R8,2*%
%TO.N,+15V*%
X120960000Y-84450000D03*
D12*
%TO.P,R8,1*%
%TO.N,Net-(C5-Pad2)*%
X110800000Y-84450000D03*
%TD*%
D10*
%TO.P,R7,2*%
%TO.N,Net-(R7-Pad2)*%
X100650000Y-83690000D03*
D12*
%TO.P,R7,1*%
%TO.N,Net-(R5-Pad2)*%
X100650000Y-93850000D03*
%TD*%
D10*
%TO.P,R6,2*%
%TO.N,Net-(D3-Pad2)*%
X112810000Y-55500000D03*
D12*
%TO.P,R6,1*%
%TO.N,+15V*%
X102650000Y-55500000D03*
%TD*%
D10*
%TO.P,R5,2*%
%TO.N,Net-(R5-Pad2)*%
X103890000Y-93900000D03*
D12*
%TO.P,R5,1*%
%TO.N,Net-(R4-Pad2)*%
X114050000Y-93900000D03*
%TD*%
D10*
%TO.P,R4,2*%
%TO.N,Net-(R4-Pad2)*%
X117200000Y-93900000D03*
D12*
%TO.P,R4,1*%
%TO.N,NEUT*%
X127360000Y-93900000D03*
%TD*%
D13*
%TO.P,R3,2*%
%TO.N,Net-(C2-Pad1)*%
X132500000Y-73260000D03*
D14*
%TO.P,R3,1*%
%TO.N,NEUT*%
X132500000Y-88500000D03*
%TD*%
D10*
%TO.P,R2,2*%
%TO.N,Net-(R1-Pad1)*%
X126000000Y-55660000D03*
D12*
%TO.P,R2,1*%
%TO.N,Net-(C2-Pad2)*%
X126000000Y-45500000D03*
%TD*%
D10*
%TO.P,R1,2*%
%TO.N,Net-(C2-Pad1)*%
X126000000Y-68000000D03*
D12*
%TO.P,R1,1*%
%TO.N,Net-(R1-Pad1)*%
X126000000Y-57840000D03*
%TD*%
D20*
%TO.P,J4,1*%
%TO.N,/LIVE_B*%
X52810749Y-87189251D03*
X50000000Y-86025000D03*
X47189251Y-87189251D03*
X46025000Y-90000000D03*
X47189251Y-92810749D03*
X50000000Y-93975000D03*
X52810749Y-92810749D03*
X53975000Y-90000000D03*
D21*
X50000000Y-90000000D03*
%TD*%
D20*
%TO.P,J3,1*%
%TO.N,/LIVE_A*%
X52810749Y-47189251D03*
X50000000Y-46025000D03*
X47189251Y-47189251D03*
X46025000Y-50000000D03*
X47189251Y-52810749D03*
X50000000Y-53975000D03*
X52810749Y-52810749D03*
X53975000Y-50000000D03*
D21*
X50000000Y-50000000D03*
%TD*%
D20*
%TO.P,J2,1*%
%TO.N,/LIVE_OUT*%
X52810749Y-67189251D03*
X50000000Y-66025000D03*
X47189251Y-67189251D03*
X46025000Y-70000000D03*
X47189251Y-72810749D03*
X50000000Y-73975000D03*
X52810749Y-72810749D03*
X53975000Y-70000000D03*
D21*
X50000000Y-70000000D03*
%TD*%
D20*
%TO.P,J1,1*%
%TO.N,NEUT*%
X140310749Y-95689251D03*
X137500000Y-94525000D03*
X134689251Y-95689251D03*
X133525000Y-98500000D03*
X134689251Y-101310749D03*
X137500000Y-102475000D03*
X140310749Y-101310749D03*
X141475000Y-98500000D03*
D21*
X137500000Y-98500000D03*
%TD*%
D19*
%TO.P,D3,2*%
%TO.N,Net-(D3-Pad2)*%
X115900000Y-55500000D03*
D22*
%TO.P,D3,1*%
%TO.N,GND*%
X118440000Y-55500000D03*
%TD*%
D23*
%TO.P,D2,2*%
%TO.N,Net-(C2-Pad2)*%
X118650000Y-50150000D03*
D24*
%TO.P,D2,1*%
%TO.N,+15V*%
X108490000Y-50150000D03*
%TD*%
D23*
%TO.P,D1,2*%
%TO.N,GND*%
X111030000Y-45500000D03*
D24*
%TO.P,D1,1*%
%TO.N,Net-(C2-Pad2)*%
X118650000Y-45500000D03*
%TD*%
D12*
%TO.P,C6,2*%
%TO.N,GND*%
X94300000Y-69300000D03*
%TO.P,C6,1*%
%TO.N,Net-(C6-Pad1)*%
X96800000Y-69300000D03*
%TD*%
%TO.P,C5,2*%
%TO.N,Net-(C5-Pad2)*%
X108250000Y-84450000D03*
%TO.P,C5,1*%
%TO.N,Net-(C5-Pad1)*%
X105750000Y-84450000D03*
%TD*%
%TO.P,C4,2*%
%TO.N,GND*%
X99850000Y-62600000D03*
%TO.P,C4,1*%
%TO.N,+15V*%
X99850000Y-60100000D03*
%TD*%
D25*
%TO.P,C3,2*%
%TO.N,GND*%
X101000000Y-46000000D03*
D26*
%TO.P,C3,1*%
%TO.N,+15V*%
X101000000Y-51000000D03*
%TD*%
D14*
%TO.P,C2,2*%
%TO.N,Net-(C2-Pad2)*%
X132500000Y-45500000D03*
%TO.P,C2,1*%
%TO.N,Net-(C2-Pad1)*%
X132500000Y-68000000D03*
%TD*%
D12*
%TO.P,C1,2*%
%TO.N,GND*%
X96900000Y-75900000D03*
%TO.P,C1,1*%
%TO.N,+15V*%
X96900000Y-73400000D03*
%TD*%
D27*
%TO.N,GND*%
X84650000Y-57050000D03*
X84600000Y-64000000D03*
X80800000Y-82950000D03*
%TD*%
D28*
%TO.N,+15V*%
X108490000Y-50150000D02*
X105400000Y-50150000D01*
X104550000Y-51000000D02*
X101000000Y-51000000D01*
X105400000Y-50150000D02*
X104550000Y-51000000D01*
X93040000Y-48750000D02*
X95700000Y-48750000D01*
X97950000Y-51000000D02*
X101000000Y-51000000D01*
X95700000Y-48750000D02*
X97950000Y-51000000D01*
X102650000Y-55500000D02*
X102650000Y-56950000D01*
X103200000Y-57500000D02*
X103200000Y-60130000D01*
X102650000Y-56950000D02*
X103200000Y-57500000D01*
X99880000Y-60130000D02*
X99850000Y-60100000D01*
X103200000Y-60130000D02*
X99880000Y-60130000D01*
X86640000Y-66050000D02*
X86640000Y-68710000D01*
X86150000Y-69200000D02*
X86150000Y-73450000D01*
X86640000Y-68710000D02*
X86150000Y-69200000D01*
X87940000Y-62710000D02*
X90500000Y-62710000D01*
X86640000Y-64010000D02*
X87940000Y-62710000D01*
X86640000Y-66050000D02*
X86640000Y-64010000D01*
X102650000Y-54250000D02*
X102650000Y-55500000D01*
X101000000Y-52600000D02*
X102650000Y-54250000D01*
X101000000Y-51000000D02*
X101000000Y-52600000D01*
X90500000Y-59650000D02*
X90500000Y-62710000D01*
X94650000Y-55500000D02*
X90500000Y-59650000D01*
X102650000Y-55500000D02*
X94650000Y-55500000D01*
X86150000Y-73450000D02*
X88250000Y-75550000D01*
X88250000Y-75550000D02*
X90500000Y-75550000D01*
X92650000Y-73400000D02*
X96900000Y-73400000D01*
X90500000Y-75550000D02*
X92650000Y-73400000D01*
X100630000Y-73400000D02*
X100650000Y-73380000D01*
X96900000Y-73400000D02*
X100630000Y-73400000D01*
X94780000Y-82070000D02*
X94780000Y-88050000D01*
X90500000Y-77790000D02*
X94780000Y-82070000D01*
X90500000Y-75550000D02*
X90500000Y-77790000D01*
X100650000Y-73380000D02*
X100650000Y-75200000D01*
X100650000Y-75200000D02*
X102550000Y-77100000D01*
X102550000Y-77100000D02*
X117500000Y-77100000D01*
X120960000Y-80560000D02*
X120960000Y-84450000D01*
X117500000Y-77100000D02*
X120960000Y-80560000D01*
%TO.N,Net-(C2-Pad2)*%
X132500000Y-45500000D02*
X126000000Y-45500000D01*
X126000000Y-45500000D02*
X118650000Y-45500000D01*
X118650000Y-45500000D02*
X118650000Y-50150000D01*
%TO.N,Net-(C2-Pad1)*%
X132500000Y-73260000D02*
X132500000Y-68000000D01*
X132500000Y-68000000D02*
X126000000Y-68000000D01*
D29*
%TO.N,Net-(C5-Pad2)*%
X108250000Y-84450000D02*
X110800000Y-84450000D01*
X110800000Y-81010000D02*
X110810000Y-81000000D01*
X110800000Y-84450000D02*
X110800000Y-81010000D01*
X110810000Y-81000000D02*
X113350000Y-81000000D01*
%TO.N,Net-(C5-Pad1)*%
X105750000Y-81020000D02*
X105730000Y-81000000D01*
X105750000Y-84450000D02*
X105750000Y-81020000D01*
%TO.N,Net-(C6-Pad1)*%
X96800000Y-69300000D02*
X96800000Y-66050000D01*
X105730000Y-73380000D02*
X107550000Y-75200000D01*
X114070000Y-75200000D02*
X115890000Y-73380000D01*
X107550000Y-75200000D02*
X114070000Y-75200000D01*
%TO.N,Net-(D3-Pad2)*%
X112810000Y-55500000D02*
X115900000Y-55500000D01*
D30*
%TO.N,/LIVE_A*%
X72000000Y-54500000D02*
X67500000Y-54500000D01*
D28*
X70000000Y-43550000D02*
X68000000Y-43550000D01*
X68000000Y-43550000D02*
X66450000Y-45100000D01*
D29*
%TO.N,Net-(D4-Pad3)*%
X72000000Y-51960000D02*
X75110000Y-51960000D01*
X75150000Y-52000000D02*
X75150000Y-48750000D01*
D30*
%TO.N,/LIVE_B*%
X72000000Y-85500000D02*
X67000000Y-85500000D01*
D29*
%TO.N,Net-(D5-Pad3)*%
X77090000Y-88040000D02*
X77100000Y-88050000D01*
X72000000Y-88040000D02*
X77090000Y-88040000D01*
X77100000Y-91340000D02*
X77090000Y-91350000D01*
X77100000Y-88050000D02*
X77100000Y-91340000D01*
D31*
%TO.N,NEUT*%
X133600000Y-101900000D02*
X63866670Y-101900000D01*
X137000000Y-98500000D02*
X133600000Y-101900000D01*
X137500000Y-98500000D02*
X137000000Y-98500000D01*
D29*
X127360000Y-93900000D02*
X130700000Y-93900000D01*
D28*
X132500000Y-88500000D02*
X132500000Y-91750000D01*
D32*
X80050000Y-71233330D02*
X80050000Y-36850000D01*
D31*
X66283330Y-36850000D02*
X65533330Y-37600000D01*
X141500000Y-41000000D02*
X137350000Y-36850000D01*
X137350000Y-36850000D02*
X66283330Y-36850000D01*
X141500000Y-94500000D02*
X141500000Y-41000000D01*
X137500000Y-98500000D02*
X141500000Y-94500000D01*
D29*
%TO.N,Net-(Q1-Pad3)*%
X87960000Y-48750000D02*
X85310000Y-48750000D01*
%TO.N,Net-(Q1-Pad2)*%
X93700000Y-52550000D02*
X90500000Y-52550000D01*
X90500000Y-48750000D02*
X90500000Y-52550000D01*
%TO.N,Net-(Q2-Pad3)*%
X87260000Y-88050000D02*
X89700000Y-88050000D01*
%TO.N,Net-(Q2-Pad2)*%
X89290000Y-83610000D02*
X89300000Y-83600000D01*
X86150000Y-83610000D02*
X89290000Y-83610000D01*
X89300000Y-83600000D02*
X90900000Y-83600000D01*
X92240000Y-84940000D02*
X92240000Y-88050000D01*
X90900000Y-83600000D02*
X92240000Y-84940000D01*
D28*
%TO.N,Net-(R1-Pad1)*%
X126000000Y-57840000D02*
X126000000Y-55660000D01*
D29*
%TO.N,Net-(R4-Pad2)*%
X117200000Y-93900000D02*
X114050000Y-93900000D01*
%TO.N,Net-(R5-Pad2)*%
X100700000Y-93900000D02*
X100650000Y-93850000D01*
X103890000Y-93900000D02*
X100700000Y-93900000D01*
%TO.N,Net-(R7-Pad2)*%
X100650000Y-83690000D02*
X100650000Y-81000000D01*
X100650000Y-81000000D02*
X103190000Y-81000000D01*
%TO.N,Net-(R10-Pad1)*%
X108270000Y-73370000D02*
X108270000Y-73380000D01*
X106600000Y-71700000D02*
X108270000Y-73370000D01*
X91040000Y-71700000D02*
X106600000Y-71700000D01*
X89300000Y-73440000D02*
X91040000Y-71700000D01*
%TO.N,Net-(R11-Pad1)*%
X96860000Y-62710000D02*
X93700000Y-62710000D01*
X99250000Y-65100000D02*
X96860000Y-62710000D01*
X99250000Y-68650000D02*
X99250000Y-65100000D01*
X101250000Y-70650000D02*
X99250000Y-68650000D01*
X109650000Y-70650000D02*
X101250000Y-70650000D01*
X110810000Y-71810000D02*
X109650000Y-70650000D01*
X110810000Y-73380000D02*
X110810000Y-71810000D01*
%TO.N,Net-(U1-Pad13)*%
X105740000Y-67750000D02*
X107540000Y-65950000D01*
X111560000Y-65950000D02*
X113360000Y-67750000D01*
X107540000Y-65950000D02*
X111560000Y-65950000D01*
%TO.N,Net-(U1-Pad9)*%
X103200000Y-67750000D02*
X103200000Y-67850000D01*
X103200000Y-67850000D02*
X104850000Y-69500000D01*
X104850000Y-69500000D02*
X111300000Y-69500000D01*
X113350000Y-71550000D02*
X113350000Y-73380000D01*
X111300000Y-69500000D02*
X113350000Y-71550000D01*
D30*
%TO.N,/LIVE_OUT*%
X72000000Y-82960000D02*
X72000000Y-79000000D01*
X72000000Y-57040000D02*
X72000000Y-61050000D01*
D28*
%TO.N,Net-(R18-Pad2)*%
X85240000Y-43550000D02*
X87250000Y-43550000D01*
X88250000Y-42550000D02*
X89650000Y-42550000D01*
X87250000Y-43550000D02*
X88250000Y-42550000D01*
%TD*%
D33*
%TO.N,NEUT*%
X143340001Y-103467712D02*
X143320898Y-103662540D01*
X143273692Y-103818895D01*
X143197018Y-103963096D01*
X143093792Y-104089664D01*
X142967951Y-104193768D01*
X142824289Y-104271447D01*
X142668271Y-104319742D01*
X142475527Y-104340000D01*
X130127000Y-104340000D01*
X130127000Y-91127000D01*
X143340001Y-91127000D01*
X143340001Y-103467712D01*
%TA.AperFunction,Conductor*%
D34*
G36*
X143340001Y-103467712D02*
G01*
X143320898Y-103662540D01*
X143273692Y-103818895D01*
X143197018Y-103963096D01*
X143093792Y-104089664D01*
X142967951Y-104193768D01*
X142824289Y-104271447D01*
X142668271Y-104319742D01*
X142475527Y-104340000D01*
X130127000Y-104340000D01*
X130127000Y-91127000D01*
X143340001Y-91127000D01*
X143340001Y-103467712D01*
G37*
%TD.AperFunction*%
%TD*%
D33*
%TO.N,GND*%
X120873000Y-44490000D02*
X120388072Y-44490000D01*
X120388072Y-44400000D01*
X120375812Y-44275518D01*
X120339502Y-44155820D01*
X120280537Y-44045506D01*
X120201185Y-43948815D01*
X120104494Y-43869463D01*
X119994180Y-43810498D01*
X119874482Y-43774188D01*
X119750000Y-43761928D01*
X117550000Y-43761928D01*
X117425518Y-43774188D01*
X117305820Y-43810498D01*
X117195506Y-43869463D01*
X117098815Y-43948815D01*
X117019463Y-44045506D01*
X116960498Y-44155820D01*
X116924188Y-44275518D01*
X116911928Y-44400000D01*
X116911928Y-46600000D01*
X116924188Y-46724482D01*
X116960498Y-46844180D01*
X117019463Y-46954494D01*
X117098815Y-47051185D01*
X117195506Y-47130537D01*
X117305820Y-47189502D01*
X117425518Y-47225812D01*
X117550000Y-47238072D01*
X117640000Y-47238072D01*
X117640001Y-48738193D01*
X117544002Y-48802337D01*
X117302337Y-49044002D01*
X117112463Y-49328169D01*
X116981675Y-49643919D01*
X116915000Y-49979117D01*
X116915000Y-50320883D01*
X116981675Y-50656081D01*
X117112463Y-50971831D01*
X117302337Y-51255998D01*
X117544002Y-51497663D01*
X117828169Y-51687537D01*
X118143919Y-51818325D01*
X118479117Y-51885000D01*
X118820883Y-51885000D01*
X119156081Y-51818325D01*
X119471831Y-51687537D01*
X119755998Y-51497663D01*
X119997663Y-51255998D01*
X120187537Y-50971831D01*
X120318325Y-50656081D01*
X120385000Y-50320883D01*
X120385000Y-49979117D01*
X120318325Y-49643919D01*
X120187537Y-49328169D01*
X119997663Y-49044002D01*
X119755998Y-48802337D01*
X119660000Y-48738193D01*
X119660000Y-47238072D01*
X119750000Y-47238072D01*
X119874482Y-47225812D01*
X119994180Y-47189502D01*
X120104494Y-47130537D01*
X120201185Y-47051185D01*
X120280537Y-46954494D01*
X120339502Y-46844180D01*
X120375812Y-46724482D01*
X120388072Y-46600000D01*
X120388072Y-46510000D01*
X120873000Y-46510000D01*
X120873000Y-71500000D01*
X120875440Y-71524776D01*
X120882667Y-71548601D01*
X120894403Y-71570557D01*
X120910197Y-71589803D01*
X124373000Y-75052606D01*
X124373000Y-85447394D01*
X122947394Y-86873000D01*
X98500000Y-86873000D01*
X98475224Y-86875440D01*
X98451399Y-86882667D01*
X98429443Y-86894403D01*
X98410197Y-86910197D01*
X90947394Y-94373000D01*
X80127000Y-94373000D01*
X80127000Y-91597035D01*
X86007122Y-91597035D01*
X86007954Y-91601225D01*
X86081023Y-91840660D01*
X86199400Y-92061239D01*
X86358535Y-92254486D01*
X86552313Y-92412974D01*
X86773287Y-92530612D01*
X87012965Y-92602880D01*
X87212000Y-92506850D01*
X87212000Y-91398000D01*
X87308000Y-91398000D01*
X87308000Y-92506850D01*
X87507035Y-92602880D01*
X87746713Y-92530612D01*
X87967687Y-92412974D01*
X88161465Y-92254486D01*
X88320600Y-92061239D01*
X88438977Y-91840660D01*
X88512046Y-91601225D01*
X88512878Y-91597035D01*
X88416755Y-91398000D01*
X87308000Y-91398000D01*
X87212000Y-91398000D01*
X86103245Y-91398000D01*
X86007122Y-91597035D01*
X80127000Y-91597035D01*
X80127000Y-91102965D01*
X86007122Y-91102965D01*
X86103245Y-91302000D01*
X87212000Y-91302000D01*
X87212000Y-90193150D01*
X87308000Y-90193150D01*
X87308000Y-91302000D01*
X88416755Y-91302000D01*
X88512878Y-91102965D01*
X88512046Y-91098775D01*
X88438977Y-90859340D01*
X88320600Y-90638761D01*
X88161465Y-90445514D01*
X87967687Y-90287026D01*
X87746713Y-90169388D01*
X87507035Y-90097120D01*
X87308000Y-90193150D01*
X87212000Y-90193150D01*
X87012965Y-90097120D01*
X86773287Y-90169388D01*
X86552313Y-90287026D01*
X86358535Y-90445514D01*
X86199400Y-90638761D01*
X86081023Y-90859340D01*
X86007954Y-91098775D01*
X86007122Y-91102965D01*
X80127000Y-91102965D01*
X80127000Y-80052606D01*
X84189803Y-75989803D01*
X84205597Y-75970557D01*
X84217333Y-75948601D01*
X84224560Y-75924776D01*
X84227000Y-75900000D01*
X84227000Y-52669500D01*
X84249400Y-52711239D01*
X84408535Y-52904486D01*
X84602313Y-53062974D01*
X84823287Y-53180612D01*
X85062965Y-53252880D01*
X85262000Y-53156850D01*
X85262000Y-52048000D01*
X85358000Y-52048000D01*
X85358000Y-53156850D01*
X85557035Y-53252880D01*
X85796713Y-53180612D01*
X86017687Y-53062974D01*
X86211465Y-52904486D01*
X86370600Y-52711239D01*
X86488977Y-52490660D01*
X86562046Y-52251225D01*
X86562878Y-52247035D01*
X86466755Y-52048000D01*
X85358000Y-52048000D01*
X85262000Y-52048000D01*
X85242000Y-52048000D01*
X85242000Y-51952000D01*
X85262000Y-51952000D01*
X85262000Y-50843150D01*
X85358000Y-50843150D01*
X85358000Y-51952000D01*
X86466755Y-51952000D01*
X86562878Y-51752965D01*
X86562046Y-51748775D01*
X86488977Y-51509340D01*
X86370600Y-51288761D01*
X86211465Y-51095514D01*
X86017687Y-50937026D01*
X85796713Y-50819388D01*
X85557035Y-50747120D01*
X85358000Y-50843150D01*
X85262000Y-50843150D01*
X85062965Y-50747120D01*
X84823287Y-50819388D01*
X84602313Y-50937026D01*
X84408535Y-51095514D01*
X84249400Y-51288761D01*
X84227000Y-51330500D01*
X84227000Y-49696396D01*
X84395241Y-49864637D01*
X84630273Y-50021680D01*
X84891426Y-50129853D01*
X85168665Y-50185000D01*
X85451335Y-50185000D01*
X85728574Y-50129853D01*
X85989727Y-50021680D01*
X86224759Y-49864637D01*
X86424637Y-49664759D01*
X86444521Y-49635000D01*
X86886315Y-49635000D01*
X87077114Y-49825799D01*
X87303957Y-49977371D01*
X87556011Y-50081775D01*
X87823589Y-50135000D01*
X88096411Y-50135000D01*
X88363989Y-50081775D01*
X88616043Y-49977371D01*
X88842886Y-49825799D01*
X89035799Y-49632886D01*
X89187371Y-49406043D01*
X89230000Y-49303127D01*
X89272629Y-49406043D01*
X89424201Y-49632886D01*
X89615000Y-49823685D01*
X89615001Y-51415478D01*
X89585241Y-51435363D01*
X89385363Y-51635241D01*
X89228320Y-51870273D01*
X89120147Y-52131426D01*
X89065000Y-52408665D01*
X89065000Y-52691335D01*
X89120147Y-52968574D01*
X89228320Y-53229727D01*
X89385363Y-53464759D01*
X89585241Y-53664637D01*
X89820273Y-53821680D01*
X90081426Y-53929853D01*
X90358665Y-53985000D01*
X90641335Y-53985000D01*
X90918574Y-53929853D01*
X91179727Y-53821680D01*
X91414759Y-53664637D01*
X91614637Y-53464759D01*
X91634521Y-53435000D01*
X92565479Y-53435000D01*
X92585363Y-53464759D01*
X92785241Y-53664637D01*
X93020273Y-53821680D01*
X93281426Y-53929853D01*
X93558665Y-53985000D01*
X93841335Y-53985000D01*
X94118574Y-53929853D01*
X94379727Y-53821680D01*
X94614759Y-53664637D01*
X94814637Y-53464759D01*
X94971680Y-53229727D01*
X95079853Y-52968574D01*
X95135000Y-52691335D01*
X95135000Y-52408665D01*
X95079853Y-52131426D01*
X94971680Y-51870273D01*
X94814637Y-51635241D01*
X94614759Y-51435363D01*
X94379727Y-51278320D01*
X94118574Y-51170147D01*
X93841335Y-51115000D01*
X93558665Y-51115000D01*
X93281426Y-51170147D01*
X93020273Y-51278320D01*
X92785241Y-51435363D01*
X92585363Y-51635241D01*
X92565479Y-51665000D01*
X91634521Y-51665000D01*
X91614637Y-51635241D01*
X91414759Y-51435363D01*
X91385000Y-51415479D01*
X91385000Y-49823685D01*
X91575799Y-49632886D01*
X91653555Y-49516517D01*
X91664188Y-49624482D01*
X91700498Y-49744180D01*
X91759463Y-49854494D01*
X91838815Y-49951185D01*
X91935506Y-50030537D01*
X92045820Y-50089502D01*
X92165518Y-50125812D01*
X92290000Y-50138072D01*
X93790000Y-50138072D01*
X93914482Y-50125812D01*
X94034180Y-50089502D01*
X94144494Y-50030537D01*
X94241185Y-49951185D01*
X94320537Y-49854494D01*
X94371046Y-49760000D01*
X95281645Y-49760000D01*
X97200744Y-51679100D01*
X97232367Y-51717633D01*
X97386160Y-51843847D01*
X97530846Y-51921183D01*
X97561620Y-51937632D01*
X97752005Y-51995385D01*
X97950000Y-52014886D01*
X97999608Y-52010000D01*
X99362913Y-52010000D01*
X99374188Y-52124482D01*
X99410498Y-52244180D01*
X99469463Y-52354494D01*
X99548815Y-52451185D01*
X99645506Y-52530537D01*
X99755820Y-52589502D01*
X99875518Y-52625812D01*
X99988755Y-52636964D01*
X100004615Y-52797994D01*
X100062368Y-52988379D01*
X100062369Y-52988380D01*
X100156154Y-53163840D01*
X100282368Y-53317633D01*
X100320901Y-53349256D01*
X101461645Y-54490000D01*
X94699604Y-54490000D01*
X94649999Y-54485114D01*
X94600394Y-54490000D01*
X94600392Y-54490000D01*
X94452006Y-54504615D01*
X94261620Y-54562368D01*
X94086160Y-54656153D01*
X93932367Y-54782367D01*
X93900739Y-54820906D01*
X89820906Y-58900739D01*
X89782367Y-58932367D01*
X89656153Y-59086160D01*
X89584693Y-59219853D01*
X89562368Y-59261621D01*
X89504615Y-59452006D01*
X89485114Y-59650000D01*
X89490000Y-59699608D01*
X89490001Y-61690603D01*
X89480604Y-61700000D01*
X87989608Y-61700000D01*
X87940000Y-61695114D01*
X87742005Y-61714615D01*
X87551620Y-61772368D01*
X87376160Y-61866153D01*
X87222367Y-61992367D01*
X87190743Y-62030901D01*
X85960901Y-63260744D01*
X85922368Y-63292367D01*
X85890745Y-63330900D01*
X85890744Y-63330901D01*
X85796154Y-63446160D01*
X85702368Y-63621621D01*
X85644615Y-63812006D01*
X85625114Y-64010000D01*
X85630001Y-64059617D01*
X85630000Y-65030604D01*
X85525363Y-65135241D01*
X85368320Y-65370273D01*
X85260147Y-65631426D01*
X85205000Y-65908665D01*
X85205000Y-66191335D01*
X85260147Y-66468574D01*
X85368320Y-66729727D01*
X85525363Y-66964759D01*
X85630000Y-67069396D01*
X85630001Y-68291644D01*
X85470906Y-68450739D01*
X85432367Y-68482367D01*
X85306153Y-68636160D01*
X85221690Y-68794180D01*
X85212368Y-68811621D01*
X85154615Y-69002006D01*
X85135114Y-69200000D01*
X85140000Y-69249608D01*
X85140001Y-72430603D01*
X85035363Y-72535241D01*
X84878320Y-72770273D01*
X84770147Y-73031426D01*
X84715000Y-73308665D01*
X84715000Y-73591335D01*
X84770147Y-73868574D01*
X84878320Y-74129727D01*
X85035363Y-74364759D01*
X85235241Y-74564637D01*
X85470273Y-74721680D01*
X85731426Y-74829853D01*
X86008665Y-74885000D01*
X86156645Y-74885000D01*
X87500744Y-76229100D01*
X87532367Y-76267633D01*
X87686160Y-76393847D01*
X87861620Y-76487632D01*
X88052006Y-76545385D01*
X88200392Y-76560000D01*
X88200401Y-76560000D01*
X88249999Y-76564885D01*
X88299597Y-76560000D01*
X89490000Y-76560000D01*
X89490001Y-77740383D01*
X89485114Y-77790000D01*
X89504615Y-77987994D01*
X89562368Y-78178379D01*
X89562369Y-78178380D01*
X89656154Y-78353840D01*
X89782368Y-78507633D01*
X89820901Y-78539256D01*
X93770000Y-82488355D01*
X93770001Y-86718954D01*
X93675506Y-86769463D01*
X93578815Y-86848815D01*
X93499463Y-86945506D01*
X93440498Y-87055820D01*
X93404188Y-87175518D01*
X93393555Y-87283483D01*
X93315799Y-87167114D01*
X93125000Y-86976315D01*
X93125000Y-84983465D01*
X93129281Y-84939999D01*
X93125000Y-84896533D01*
X93125000Y-84896523D01*
X93112195Y-84766510D01*
X93061589Y-84599687D01*
X92979411Y-84445941D01*
X92955210Y-84416452D01*
X92896532Y-84344953D01*
X92896530Y-84344951D01*
X92868817Y-84311183D01*
X92835050Y-84283471D01*
X91556534Y-83004956D01*
X91528817Y-82971183D01*
X91394059Y-82860589D01*
X91240313Y-82778411D01*
X91073490Y-82727805D01*
X90943477Y-82715000D01*
X90943469Y-82715000D01*
X90900000Y-82710719D01*
X90856531Y-82715000D01*
X90434521Y-82715000D01*
X90414637Y-82685241D01*
X90214759Y-82485363D01*
X89979727Y-82328320D01*
X89718574Y-82220147D01*
X89441335Y-82165000D01*
X89158665Y-82165000D01*
X88881426Y-82220147D01*
X88620273Y-82328320D01*
X88385241Y-82485363D01*
X88185363Y-82685241D01*
X88158797Y-82725000D01*
X87284521Y-82725000D01*
X87264637Y-82695241D01*
X87064759Y-82495363D01*
X86829727Y-82338320D01*
X86568574Y-82230147D01*
X86291335Y-82175000D01*
X86008665Y-82175000D01*
X85731426Y-82230147D01*
X85470273Y-82338320D01*
X85235241Y-82495363D01*
X85035363Y-82695241D01*
X84878320Y-82930273D01*
X84770147Y-83191426D01*
X84715000Y-83468665D01*
X84715000Y-83751335D01*
X84770147Y-84028574D01*
X84878320Y-84289727D01*
X85035363Y-84524759D01*
X85235241Y-84724637D01*
X85470273Y-84881680D01*
X85731426Y-84989853D01*
X86008665Y-85045000D01*
X86291335Y-85045000D01*
X86568574Y-84989853D01*
X86829727Y-84881680D01*
X87064759Y-84724637D01*
X87264637Y-84524759D01*
X87284521Y-84495000D01*
X88172160Y-84495000D01*
X88185363Y-84514759D01*
X88385241Y-84714637D01*
X88620273Y-84871680D01*
X88881426Y-84979853D01*
X89158665Y-85035000D01*
X89441335Y-85035000D01*
X89718574Y-84979853D01*
X89979727Y-84871680D01*
X90214759Y-84714637D01*
X90414637Y-84514759D01*
X90434521Y-84485000D01*
X90533422Y-84485000D01*
X91355000Y-85306579D01*
X91355001Y-86976314D01*
X91164201Y-87167114D01*
X91012629Y-87393957D01*
X90970000Y-87496873D01*
X90927371Y-87393957D01*
X90775799Y-87167114D01*
X90582886Y-86974201D01*
X90356043Y-86822629D01*
X90103989Y-86718225D01*
X89836411Y-86665000D01*
X89563589Y-86665000D01*
X89296011Y-86718225D01*
X89043957Y-86822629D01*
X88817114Y-86974201D01*
X88626315Y-87165000D01*
X88394521Y-87165000D01*
X88374637Y-87135241D01*
X88174759Y-86935363D01*
X87939727Y-86778320D01*
X87678574Y-86670147D01*
X87401335Y-86615000D01*
X87118665Y-86615000D01*
X86841426Y-86670147D01*
X86580273Y-86778320D01*
X86345241Y-86935363D01*
X86145363Y-87135241D01*
X85988320Y-87370273D01*
X85880147Y-87631426D01*
X85825000Y-87908665D01*
X85825000Y-88191335D01*
X85880147Y-88468574D01*
X85988320Y-88729727D01*
X86145363Y-88964759D01*
X86345241Y-89164637D01*
X86580273Y-89321680D01*
X86841426Y-89429853D01*
X87118665Y-89485000D01*
X87401335Y-89485000D01*
X87678574Y-89429853D01*
X87939727Y-89321680D01*
X88174759Y-89164637D01*
X88374637Y-88964759D01*
X88394521Y-88935000D01*
X88626315Y-88935000D01*
X88817114Y-89125799D01*
X89043957Y-89277371D01*
X89296011Y-89381775D01*
X89563589Y-89435000D01*
X89836411Y-89435000D01*
X90103989Y-89381775D01*
X90356043Y-89277371D01*
X90582886Y-89125799D01*
X90775799Y-88932886D01*
X90927371Y-88706043D01*
X90970000Y-88603127D01*
X91012629Y-88706043D01*
X91164201Y-88932886D01*
X91357114Y-89125799D01*
X91583957Y-89277371D01*
X91836011Y-89381775D01*
X92103589Y-89435000D01*
X92376411Y-89435000D01*
X92643989Y-89381775D01*
X92896043Y-89277371D01*
X93122886Y-89125799D01*
X93315799Y-88932886D01*
X93393555Y-88816517D01*
X93404188Y-88924482D01*
X93440498Y-89044180D01*
X93499463Y-89154494D01*
X93578815Y-89251185D01*
X93675506Y-89330537D01*
X93785820Y-89389502D01*
X93905518Y-89425812D01*
X94030000Y-89438072D01*
X95530000Y-89438072D01*
X95654482Y-89425812D01*
X95774180Y-89389502D01*
X95884494Y-89330537D01*
X95981185Y-89251185D01*
X96060537Y-89154494D01*
X96119502Y-89044180D01*
X96155812Y-88924482D01*
X96168072Y-88800000D01*
X96168072Y-87300000D01*
X96155812Y-87175518D01*
X96119502Y-87055820D01*
X96060537Y-86945506D01*
X95981185Y-86848815D01*
X95884494Y-86769463D01*
X95790000Y-86718954D01*
X95790000Y-82119604D01*
X95794886Y-82069999D01*
X95790000Y-82020392D01*
X95775385Y-81872006D01*
X95717632Y-81681620D01*
X95623847Y-81506160D01*
X95497633Y-81352367D01*
X95459094Y-81320739D01*
X94338355Y-80200000D01*
X99211928Y-80200000D01*
X99211928Y-81800000D01*
X99224188Y-81924482D01*
X99260498Y-82044180D01*
X99319463Y-82154494D01*
X99398815Y-82251185D01*
X99495506Y-82330537D01*
X99605820Y-82389502D01*
X99725518Y-82425812D01*
X99765000Y-82429701D01*
X99765000Y-82555478D01*
X99735241Y-82575363D01*
X99535363Y-82775241D01*
X99378320Y-83010273D01*
X99270147Y-83271426D01*
X99215000Y-83548665D01*
X99215000Y-83831335D01*
X99270147Y-84108574D01*
X99378320Y-84369727D01*
X99535363Y-84604759D01*
X99735241Y-84804637D01*
X99970273Y-84961680D01*
X100231426Y-85069853D01*
X100508665Y-85125000D01*
X100791335Y-85125000D01*
X101068574Y-85069853D01*
X101329727Y-84961680D01*
X101564759Y-84804637D01*
X101764637Y-84604759D01*
X101921680Y-84369727D01*
X102029853Y-84108574D01*
X102085000Y-83831335D01*
X102085000Y-83548665D01*
X102029853Y-83271426D01*
X101921680Y-83010273D01*
X101764637Y-82775241D01*
X101564759Y-82575363D01*
X101535000Y-82555479D01*
X101535000Y-82429701D01*
X101574482Y-82425812D01*
X101694180Y-82389502D01*
X101804494Y-82330537D01*
X101901185Y-82251185D01*
X101980537Y-82154494D01*
X102039502Y-82044180D01*
X102075812Y-81924482D01*
X102076643Y-81916039D01*
X102275241Y-82114637D01*
X102510273Y-82271680D01*
X102771426Y-82379853D01*
X103048665Y-82435000D01*
X103331335Y-82435000D01*
X103608574Y-82379853D01*
X103869727Y-82271680D01*
X104104759Y-82114637D01*
X104304637Y-81914759D01*
X104460000Y-81682241D01*
X104615363Y-81914759D01*
X104815241Y-82114637D01*
X104865001Y-82147885D01*
X104865000Y-83315478D01*
X104835241Y-83335363D01*
X104635363Y-83535241D01*
X104478320Y-83770273D01*
X104370147Y-84031426D01*
X104315000Y-84308665D01*
X104315000Y-84591335D01*
X104370147Y-84868574D01*
X104478320Y-85129727D01*
X104635363Y-85364759D01*
X104835241Y-85564637D01*
X105070273Y-85721680D01*
X105331426Y-85829853D01*
X105608665Y-85885000D01*
X105891335Y-85885000D01*
X106168574Y-85829853D01*
X106429727Y-85721680D01*
X106664759Y-85564637D01*
X106864637Y-85364759D01*
X107000000Y-85162173D01*
X107135363Y-85364759D01*
X107335241Y-85564637D01*
X107570273Y-85721680D01*
X107831426Y-85829853D01*
X108108665Y-85885000D01*
X108391335Y-85885000D01*
X108668574Y-85829853D01*
X108929727Y-85721680D01*
X109164759Y-85564637D01*
X109364637Y-85364759D01*
X109384521Y-85335000D01*
X109665479Y-85335000D01*
X109685363Y-85364759D01*
X109885241Y-85564637D01*
X110120273Y-85721680D01*
X110381426Y-85829853D01*
X110658665Y-85885000D01*
X110941335Y-85885000D01*
X111218574Y-85829853D01*
X111479727Y-85721680D01*
X111714759Y-85564637D01*
X111914637Y-85364759D01*
X112071680Y-85129727D01*
X112179853Y-84868574D01*
X112235000Y-84591335D01*
X112235000Y-84308665D01*
X112179853Y-84031426D01*
X112071680Y-83770273D01*
X111914637Y-83535241D01*
X111714759Y-83335363D01*
X111685000Y-83315479D01*
X111685000Y-82141203D01*
X111724759Y-82114637D01*
X111924637Y-81914759D01*
X111944521Y-81885000D01*
X112215479Y-81885000D01*
X112235363Y-81914759D01*
X112435241Y-82114637D01*
X112670273Y-82271680D01*
X112931426Y-82379853D01*
X113208665Y-82435000D01*
X113491335Y-82435000D01*
X113768574Y-82379853D01*
X114029727Y-82271680D01*
X114264759Y-82114637D01*
X114464637Y-81914759D01*
X114621680Y-81679727D01*
X114706119Y-81475872D01*
X114709388Y-81486713D01*
X114827026Y-81707687D01*
X114985514Y-81901465D01*
X115178761Y-82060600D01*
X115399340Y-82178977D01*
X115638775Y-82252046D01*
X115642965Y-82252878D01*
X115842000Y-82156755D01*
X115842000Y-81048000D01*
X115938000Y-81048000D01*
X115938000Y-82156755D01*
X116137035Y-82252878D01*
X116141225Y-82252046D01*
X116380660Y-82178977D01*
X116601239Y-82060600D01*
X116794486Y-81901465D01*
X116952974Y-81707687D01*
X117070612Y-81486713D01*
X117142880Y-81247035D01*
X117046850Y-81048000D01*
X115938000Y-81048000D01*
X115842000Y-81048000D01*
X115822000Y-81048000D01*
X115822000Y-80952000D01*
X115842000Y-80952000D01*
X115842000Y-79843245D01*
X115938000Y-79843245D01*
X115938000Y-80952000D01*
X117046850Y-80952000D01*
X117142880Y-80752965D01*
X117070612Y-80513287D01*
X116952974Y-80292313D01*
X116794486Y-80098535D01*
X116601239Y-79939400D01*
X116380660Y-79821023D01*
X116141225Y-79747954D01*
X116137035Y-79747122D01*
X115938000Y-79843245D01*
X115842000Y-79843245D01*
X115642965Y-79747122D01*
X115638775Y-79747954D01*
X115399340Y-79821023D01*
X115178761Y-79939400D01*
X114985514Y-80098535D01*
X114827026Y-80292313D01*
X114709388Y-80513287D01*
X114706119Y-80524128D01*
X114621680Y-80320273D01*
X114464637Y-80085241D01*
X114264759Y-79885363D01*
X114029727Y-79728320D01*
X113768574Y-79620147D01*
X113491335Y-79565000D01*
X113208665Y-79565000D01*
X112931426Y-79620147D01*
X112670273Y-79728320D01*
X112435241Y-79885363D01*
X112235363Y-80085241D01*
X112215479Y-80115000D01*
X111944521Y-80115000D01*
X111924637Y-80085241D01*
X111724759Y-79885363D01*
X111489727Y-79728320D01*
X111228574Y-79620147D01*
X110951335Y-79565000D01*
X110668665Y-79565000D01*
X110391426Y-79620147D01*
X110130273Y-79728320D01*
X109895241Y-79885363D01*
X109695363Y-80085241D01*
X109540000Y-80317759D01*
X109384637Y-80085241D01*
X109184759Y-79885363D01*
X108949727Y-79728320D01*
X108688574Y-79620147D01*
X108411335Y-79565000D01*
X108128665Y-79565000D01*
X107851426Y-79620147D01*
X107590273Y-79728320D01*
X107355241Y-79885363D01*
X107155363Y-80085241D01*
X107000000Y-80317759D01*
X106844637Y-80085241D01*
X106644759Y-79885363D01*
X106409727Y-79728320D01*
X106148574Y-79620147D01*
X105871335Y-79565000D01*
X105588665Y-79565000D01*
X105311426Y-79620147D01*
X105050273Y-79728320D01*
X104815241Y-79885363D01*
X104615363Y-80085241D01*
X104460000Y-80317759D01*
X104304637Y-80085241D01*
X104104759Y-79885363D01*
X103869727Y-79728320D01*
X103608574Y-79620147D01*
X103331335Y-79565000D01*
X103048665Y-79565000D01*
X102771426Y-79620147D01*
X102510273Y-79728320D01*
X102275241Y-79885363D01*
X102076643Y-80083961D01*
X102075812Y-80075518D01*
X102039502Y-79955820D01*
X101980537Y-79845506D01*
X101901185Y-79748815D01*
X101804494Y-79669463D01*
X101694180Y-79610498D01*
X101574482Y-79574188D01*
X101450000Y-79561928D01*
X99850000Y-79561928D01*
X99725518Y-79574188D01*
X99605820Y-79610498D01*
X99495506Y-79669463D01*
X99398815Y-79748815D01*
X99319463Y-79845506D01*
X99260498Y-79955820D01*
X99224188Y-80075518D01*
X99211928Y-80200000D01*
X94338355Y-80200000D01*
X91510000Y-77371645D01*
X91510000Y-76756263D01*
X96111619Y-76756263D01*
X96185127Y-76965601D01*
X96406752Y-77084591D01*
X96647332Y-77158057D01*
X96897621Y-77183177D01*
X97148002Y-77158985D01*
X97388853Y-77086411D01*
X97610917Y-76968244D01*
X97614873Y-76965601D01*
X97688381Y-76756263D01*
X96900000Y-75967882D01*
X96111619Y-76756263D01*
X91510000Y-76756263D01*
X91510000Y-75968355D01*
X91580734Y-75897621D01*
X95616823Y-75897621D01*
X95641015Y-76148002D01*
X95713589Y-76388853D01*
X95831756Y-76610917D01*
X95834399Y-76614873D01*
X96043737Y-76688381D01*
X96832118Y-75900000D01*
X96967882Y-75900000D01*
X97756263Y-76688381D01*
X97965601Y-76614873D01*
X98084591Y-76393248D01*
X98158057Y-76152668D01*
X98183177Y-75902379D01*
X98158985Y-75651998D01*
X98086411Y-75411147D01*
X97968244Y-75189083D01*
X97965601Y-75185127D01*
X97756263Y-75111619D01*
X96967882Y-75900000D01*
X96832118Y-75900000D01*
X96043737Y-75111619D01*
X95834399Y-75185127D01*
X95715409Y-75406752D01*
X95641943Y-75647332D01*
X95616823Y-75897621D01*
X91580734Y-75897621D01*
X93068355Y-74410000D01*
X95880604Y-74410000D01*
X95985241Y-74514637D01*
X96220273Y-74671680D01*
X96371887Y-74734480D01*
X96189083Y-74831756D01*
X96185127Y-74834399D01*
X96111619Y-75043737D01*
X96900000Y-75832118D01*
X97688381Y-75043737D01*
X97614873Y-74834399D01*
X97428484Y-74734327D01*
X97579727Y-74671680D01*
X97814759Y-74514637D01*
X97919396Y-74410000D01*
X99640001Y-74410000D01*
X99640001Y-75150383D01*
X99635114Y-75200000D01*
X99654615Y-75397994D01*
X99712368Y-75588379D01*
X99712369Y-75588380D01*
X99806154Y-75763840D01*
X99932368Y-75917633D01*
X99970901Y-75949256D01*
X101800743Y-77779099D01*
X101832367Y-77817633D01*
X101986160Y-77943847D01*
X102068754Y-77987994D01*
X102161620Y-78037632D01*
X102352005Y-78095385D01*
X102550000Y-78114886D01*
X102599608Y-78110000D01*
X117081645Y-78110000D01*
X119950000Y-80978356D01*
X119950001Y-83430603D01*
X119845363Y-83535241D01*
X119688320Y-83770273D01*
X119580147Y-84031426D01*
X119525000Y-84308665D01*
X119525000Y-84591335D01*
X119580147Y-84868574D01*
X119688320Y-85129727D01*
X119845363Y-85364759D01*
X120045241Y-85564637D01*
X120280273Y-85721680D01*
X120541426Y-85829853D01*
X120818665Y-85885000D01*
X121101335Y-85885000D01*
X121378574Y-85829853D01*
X121639727Y-85721680D01*
X121874759Y-85564637D01*
X122074637Y-85364759D01*
X122231680Y-85129727D01*
X122339853Y-84868574D01*
X122395000Y-84591335D01*
X122395000Y-84308665D01*
X122339853Y-84031426D01*
X122231680Y-83770273D01*
X122074637Y-83535241D01*
X121970000Y-83430604D01*
X121970000Y-80609608D01*
X121974886Y-80560000D01*
X121955385Y-80362005D01*
X121897632Y-80171620D01*
X121884903Y-80147805D01*
X121803847Y-79996160D01*
X121677633Y-79842367D01*
X121639100Y-79810744D01*
X118249261Y-76420906D01*
X118217633Y-76382367D01*
X118063840Y-76256153D01*
X117888380Y-76162368D01*
X117697994Y-76104615D01*
X117549608Y-76090000D01*
X117500000Y-76085114D01*
X117450392Y-76090000D01*
X102968356Y-76090000D01*
X101660000Y-74781645D01*
X101660000Y-74399396D01*
X101764637Y-74294759D01*
X101920000Y-74062241D01*
X102075363Y-74294759D01*
X102275241Y-74494637D01*
X102510273Y-74651680D01*
X102771426Y-74759853D01*
X103048665Y-74815000D01*
X103331335Y-74815000D01*
X103608574Y-74759853D01*
X103869727Y-74651680D01*
X104104759Y-74494637D01*
X104304637Y-74294759D01*
X104460000Y-74062241D01*
X104615363Y-74294759D01*
X104815241Y-74494637D01*
X105050273Y-74651680D01*
X105311426Y-74759853D01*
X105588665Y-74815000D01*
X105871335Y-74815000D01*
X105906439Y-74808017D01*
X106893470Y-75795049D01*
X106921183Y-75828817D01*
X106954951Y-75856530D01*
X106954953Y-75856532D01*
X107055941Y-75939411D01*
X107209686Y-76021589D01*
X107376510Y-76072195D01*
X107506523Y-76085000D01*
X107506531Y-76085000D01*
X107550000Y-76089281D01*
X107593469Y-76085000D01*
X114026531Y-76085000D01*
X114070000Y-76089281D01*
X114113469Y-76085000D01*
X114113477Y-76085000D01*
X114243490Y-76072195D01*
X114410313Y-76021589D01*
X114564059Y-75939411D01*
X114698817Y-75828817D01*
X114726534Y-75795044D01*
X115713561Y-74808017D01*
X115748665Y-74815000D01*
X116031335Y-74815000D01*
X116308574Y-74759853D01*
X116569727Y-74651680D01*
X116804759Y-74494637D01*
X117004637Y-74294759D01*
X117161680Y-74059727D01*
X117269853Y-73798574D01*
X117325000Y-73521335D01*
X117325000Y-73238665D01*
X117269853Y-72961426D01*
X117161680Y-72700273D01*
X117004637Y-72465241D01*
X116804759Y-72265363D01*
X116569727Y-72108320D01*
X116308574Y-72000147D01*
X116031335Y-71945000D01*
X115748665Y-71945000D01*
X115471426Y-72000147D01*
X115210273Y-72108320D01*
X114975241Y-72265363D01*
X114775363Y-72465241D01*
X114620000Y-72697759D01*
X114464637Y-72465241D01*
X114264759Y-72265363D01*
X114235000Y-72245479D01*
X114235000Y-71593469D01*
X114239281Y-71550000D01*
X114235000Y-71506531D01*
X114235000Y-71506523D01*
X114222195Y-71376510D01*
X114171589Y-71209687D01*
X114089411Y-71055941D01*
X113978817Y-70921183D01*
X113945050Y-70893471D01*
X111956534Y-68904956D01*
X111928817Y-68871183D01*
X111794059Y-68760589D01*
X111671513Y-68695087D01*
X111724486Y-68651465D01*
X111882974Y-68457687D01*
X112000612Y-68236713D01*
X112003881Y-68225872D01*
X112088320Y-68429727D01*
X112245363Y-68664759D01*
X112445241Y-68864637D01*
X112680273Y-69021680D01*
X112941426Y-69129853D01*
X113218665Y-69185000D01*
X113501335Y-69185000D01*
X113778574Y-69129853D01*
X114039727Y-69021680D01*
X114274759Y-68864637D01*
X114474637Y-68664759D01*
X114631680Y-68429727D01*
X114716119Y-68225872D01*
X114719388Y-68236713D01*
X114837026Y-68457687D01*
X114995514Y-68651465D01*
X115188761Y-68810600D01*
X115409340Y-68928977D01*
X115648775Y-69002046D01*
X115652965Y-69002878D01*
X115852000Y-68906755D01*
X115852000Y-67798000D01*
X115948000Y-67798000D01*
X115948000Y-68906755D01*
X116147035Y-69002878D01*
X116151225Y-69002046D01*
X116390660Y-68928977D01*
X116611239Y-68810600D01*
X116804486Y-68651465D01*
X116962974Y-68457687D01*
X117080612Y-68236713D01*
X117152880Y-67997035D01*
X117187120Y-67997035D01*
X117259388Y-68236713D01*
X117377026Y-68457687D01*
X117535514Y-68651465D01*
X117728761Y-68810600D01*
X117949340Y-68928977D01*
X118188775Y-69002046D01*
X118192965Y-69002878D01*
X118392000Y-68906755D01*
X118392000Y-67798000D01*
X118488000Y-67798000D01*
X118488000Y-68906755D01*
X118687035Y-69002878D01*
X118691225Y-69002046D01*
X118930660Y-68928977D01*
X119151239Y-68810600D01*
X119344486Y-68651465D01*
X119502974Y-68457687D01*
X119620612Y-68236713D01*
X119692880Y-67997035D01*
X119596850Y-67798000D01*
X118488000Y-67798000D01*
X118392000Y-67798000D01*
X117283150Y-67798000D01*
X117187120Y-67997035D01*
X117152880Y-67997035D01*
X117056850Y-67798000D01*
X115948000Y-67798000D01*
X115852000Y-67798000D01*
X115832000Y-67798000D01*
X115832000Y-67702000D01*
X115852000Y-67702000D01*
X115852000Y-66593245D01*
X115948000Y-66593245D01*
X115948000Y-67702000D01*
X117056850Y-67702000D01*
X117152880Y-67502965D01*
X117187120Y-67502965D01*
X117283150Y-67702000D01*
X118392000Y-67702000D01*
X118392000Y-66593245D01*
X118488000Y-66593245D01*
X118488000Y-67702000D01*
X119596850Y-67702000D01*
X119692880Y-67502965D01*
X119620612Y-67263287D01*
X119502974Y-67042313D01*
X119344486Y-66848535D01*
X119151239Y-66689400D01*
X118930660Y-66571023D01*
X118691225Y-66497954D01*
X118687035Y-66497122D01*
X118488000Y-66593245D01*
X118392000Y-66593245D01*
X118192965Y-66497122D01*
X118188775Y-66497954D01*
X117949340Y-66571023D01*
X117728761Y-66689400D01*
X117535514Y-66848535D01*
X117377026Y-67042313D01*
X117259388Y-67263287D01*
X117187120Y-67502965D01*
X117152880Y-67502965D01*
X117080612Y-67263287D01*
X116962974Y-67042313D01*
X116804486Y-66848535D01*
X116611239Y-66689400D01*
X116390660Y-66571023D01*
X116151225Y-66497954D01*
X116147035Y-66497122D01*
X115948000Y-66593245D01*
X115852000Y-66593245D01*
X115652965Y-66497122D01*
X115648775Y-66497954D01*
X115409340Y-66571023D01*
X115188761Y-66689400D01*
X114995514Y-66848535D01*
X114837026Y-67042313D01*
X114719388Y-67263287D01*
X114716119Y-67274128D01*
X114631680Y-67070273D01*
X114474637Y-66835241D01*
X114274759Y-66635363D01*
X114039727Y-66478320D01*
X113778574Y-66370147D01*
X113501335Y-66315000D01*
X113218665Y-66315000D01*
X113183561Y-66321983D01*
X112216534Y-65354956D01*
X112188817Y-65321183D01*
X112054059Y-65210589D01*
X111900313Y-65128411D01*
X111733490Y-65077805D01*
X111603477Y-65065000D01*
X111603469Y-65065000D01*
X111560000Y-65060719D01*
X111516531Y-65065000D01*
X107583465Y-65065000D01*
X107539999Y-65060719D01*
X107496533Y-65065000D01*
X107496523Y-65065000D01*
X107366510Y-65077805D01*
X107199687Y-65128411D01*
X107045941Y-65210589D01*
X107045939Y-65210590D01*
X107045940Y-65210590D01*
X106944953Y-65293468D01*
X106944951Y-65293470D01*
X106911183Y-65321183D01*
X106883470Y-65354951D01*
X105916439Y-66321983D01*
X105881335Y-66315000D01*
X105598665Y-66315000D01*
X105321426Y-66370147D01*
X105060273Y-66478320D01*
X104825241Y-66635363D01*
X104626643Y-66833961D01*
X104625812Y-66825518D01*
X104589502Y-66705820D01*
X104530537Y-66595506D01*
X104451185Y-66498815D01*
X104354494Y-66419463D01*
X104244180Y-66360498D01*
X104124482Y-66324188D01*
X104000000Y-66311928D01*
X102400000Y-66311928D01*
X102275518Y-66324188D01*
X102155820Y-66360498D01*
X102045506Y-66419463D01*
X101948815Y-66498815D01*
X101869463Y-66595506D01*
X101810498Y-66705820D01*
X101774188Y-66825518D01*
X101761928Y-66950000D01*
X101761928Y-68550000D01*
X101774188Y-68674482D01*
X101810498Y-68794180D01*
X101869463Y-68904494D01*
X101948815Y-69001185D01*
X102045506Y-69080537D01*
X102155820Y-69139502D01*
X102275518Y-69175812D01*
X102400000Y-69188072D01*
X103286494Y-69188072D01*
X103863421Y-69765000D01*
X101616579Y-69765000D01*
X100135000Y-68283422D01*
X100135000Y-65143465D01*
X100139281Y-65099999D01*
X100135000Y-65056533D01*
X100135000Y-65056523D01*
X100122195Y-64926510D01*
X100071589Y-64759687D01*
X99989411Y-64605941D01*
X99878817Y-64471183D01*
X99845049Y-64443470D01*
X98857842Y-63456263D01*
X99061619Y-63456263D01*
X99135127Y-63665601D01*
X99356752Y-63784591D01*
X99597332Y-63858057D01*
X99847621Y-63883177D01*
X100098002Y-63858985D01*
X100338853Y-63786411D01*
X100560917Y-63668244D01*
X100564873Y-63665601D01*
X100638381Y-63456263D01*
X99850000Y-62667882D01*
X99061619Y-63456263D01*
X98857842Y-63456263D01*
X97999200Y-62597621D01*
X98566823Y-62597621D01*
X98591015Y-62848002D01*
X98663589Y-63088853D01*
X98781756Y-63310917D01*
X98784399Y-63314873D01*
X98993737Y-63388381D01*
X99782118Y-62600000D01*
X99917882Y-62600000D01*
X100706263Y-63388381D01*
X100915601Y-63314873D01*
X101034591Y-63093248D01*
X101108057Y-62852668D01*
X101133177Y-62602379D01*
X101108985Y-62351998D01*
X101036411Y-62111147D01*
X100918244Y-61889083D01*
X100915601Y-61885127D01*
X100706263Y-61811619D01*
X99917882Y-62600000D01*
X99782118Y-62600000D01*
X98993737Y-61811619D01*
X98784399Y-61885127D01*
X98665409Y-62106752D01*
X98591943Y-62347332D01*
X98566823Y-62597621D01*
X97999200Y-62597621D01*
X97516534Y-62114956D01*
X97488817Y-62081183D01*
X97354059Y-61970589D01*
X97200313Y-61888411D01*
X97033490Y-61837805D01*
X96903477Y-61825000D01*
X96903469Y-61825000D01*
X96860000Y-61820719D01*
X96816531Y-61825000D01*
X94834521Y-61825000D01*
X94814637Y-61795241D01*
X94614759Y-61595363D01*
X94379727Y-61438320D01*
X94118574Y-61330147D01*
X93841335Y-61275000D01*
X93558665Y-61275000D01*
X93281426Y-61330147D01*
X93020273Y-61438320D01*
X92785241Y-61595363D01*
X92585363Y-61795241D01*
X92428320Y-62030273D01*
X92320147Y-62291426D01*
X92265000Y-62568665D01*
X92265000Y-62851335D01*
X92320147Y-63128574D01*
X92428320Y-63389727D01*
X92585363Y-63624759D01*
X92785241Y-63824637D01*
X93020273Y-63981680D01*
X93281426Y-64089853D01*
X93558665Y-64145000D01*
X93841335Y-64145000D01*
X94118574Y-64089853D01*
X94379727Y-63981680D01*
X94614759Y-63824637D01*
X94814637Y-63624759D01*
X94834521Y-63595000D01*
X96493422Y-63595000D01*
X98365001Y-65466580D01*
X98365000Y-68606531D01*
X98360719Y-68650000D01*
X98365000Y-68693469D01*
X98365000Y-68693476D01*
X98371610Y-68760589D01*
X98377805Y-68823490D01*
X98390287Y-68864637D01*
X98428411Y-68990312D01*
X98510589Y-69144058D01*
X98621183Y-69278817D01*
X98654956Y-69306534D01*
X100163421Y-70815000D01*
X91083469Y-70815000D01*
X91040000Y-70810719D01*
X90996531Y-70815000D01*
X90996523Y-70815000D01*
X90866510Y-70827805D01*
X90699686Y-70878411D01*
X90545941Y-70960589D01*
X90444953Y-71043468D01*
X90444951Y-71043470D01*
X90411183Y-71071183D01*
X90383470Y-71104951D01*
X89476439Y-72011983D01*
X89441335Y-72005000D01*
X89158665Y-72005000D01*
X88881426Y-72060147D01*
X88620273Y-72168320D01*
X88385241Y-72325363D01*
X88185363Y-72525241D01*
X88028320Y-72760273D01*
X87920147Y-73021426D01*
X87865000Y-73298665D01*
X87865000Y-73581335D01*
X87903564Y-73775209D01*
X87585000Y-73456645D01*
X87585000Y-73308665D01*
X87529853Y-73031426D01*
X87421680Y-72770273D01*
X87264637Y-72535241D01*
X87160000Y-72430604D01*
X87160000Y-70156263D01*
X93511619Y-70156263D01*
X93585127Y-70365601D01*
X93806752Y-70484591D01*
X94047332Y-70558057D01*
X94297621Y-70583177D01*
X94548002Y-70558985D01*
X94788853Y-70486411D01*
X95010917Y-70368244D01*
X95014873Y-70365601D01*
X95088381Y-70156263D01*
X94300000Y-69367882D01*
X93511619Y-70156263D01*
X87160000Y-70156263D01*
X87160000Y-69618355D01*
X87319094Y-69459261D01*
X87357633Y-69427633D01*
X87464330Y-69297621D01*
X93016823Y-69297621D01*
X93041015Y-69548002D01*
X93113589Y-69788853D01*
X93231756Y-70010917D01*
X93234399Y-70014873D01*
X93443737Y-70088381D01*
X94232118Y-69300000D01*
X94367882Y-69300000D01*
X95156263Y-70088381D01*
X95365601Y-70014873D01*
X95465673Y-69828484D01*
X95528320Y-69979727D01*
X95685363Y-70214759D01*
X95885241Y-70414637D01*
X96120273Y-70571680D01*
X96381426Y-70679853D01*
X96658665Y-70735000D01*
X96941335Y-70735000D01*
X97218574Y-70679853D01*
X97479727Y-70571680D01*
X97714759Y-70414637D01*
X97914637Y-70214759D01*
X98071680Y-69979727D01*
X98179853Y-69718574D01*
X98235000Y-69441335D01*
X98235000Y-69158665D01*
X98179853Y-68881426D01*
X98071680Y-68620273D01*
X97914637Y-68385241D01*
X97714759Y-68185363D01*
X97685000Y-68165479D01*
X97685000Y-67184521D01*
X97714759Y-67164637D01*
X97914637Y-66964759D01*
X98071680Y-66729727D01*
X98179853Y-66468574D01*
X98235000Y-66191335D01*
X98235000Y-65908665D01*
X98179853Y-65631426D01*
X98071680Y-65370273D01*
X97914637Y-65135241D01*
X97714759Y-64935363D01*
X97479727Y-64778320D01*
X97218574Y-64670147D01*
X96941335Y-64615000D01*
X96658665Y-64615000D01*
X96381426Y-64670147D01*
X96120273Y-64778320D01*
X95885241Y-64935363D01*
X95685363Y-65135241D01*
X95528320Y-65370273D01*
X95420147Y-65631426D01*
X95365000Y-65908665D01*
X95365000Y-66191335D01*
X95420147Y-66468574D01*
X95528320Y-66729727D01*
X95685363Y-66964759D01*
X95885241Y-67164637D01*
X95915001Y-67184522D01*
X95915000Y-68165478D01*
X95885241Y-68185363D01*
X95685363Y-68385241D01*
X95528320Y-68620273D01*
X95465520Y-68771887D01*
X95368244Y-68589083D01*
X95365601Y-68585127D01*
X95156263Y-68511619D01*
X94367882Y-69300000D01*
X94232118Y-69300000D01*
X93443737Y-68511619D01*
X93234399Y-68585127D01*
X93115409Y-68806752D01*
X93041943Y-69047332D01*
X93016823Y-69297621D01*
X87464330Y-69297621D01*
X87483847Y-69273840D01*
X87577632Y-69098380D01*
X87605673Y-69005941D01*
X87635385Y-68907995D01*
X87654886Y-68710000D01*
X87650000Y-68660392D01*
X87650000Y-68443737D01*
X93511619Y-68443737D01*
X94300000Y-69232118D01*
X95088381Y-68443737D01*
X95014873Y-68234399D01*
X94793248Y-68115409D01*
X94552668Y-68041943D01*
X94302379Y-68016823D01*
X94051998Y-68041015D01*
X93811147Y-68113589D01*
X93589083Y-68231756D01*
X93585127Y-68234399D01*
X93511619Y-68443737D01*
X87650000Y-68443737D01*
X87650000Y-67069396D01*
X87754637Y-66964759D01*
X87911680Y-66729727D01*
X88019853Y-66468574D01*
X88075000Y-66191335D01*
X88075000Y-65908665D01*
X88019853Y-65631426D01*
X87911680Y-65370273D01*
X87754637Y-65135241D01*
X87650000Y-65030604D01*
X87650000Y-64428355D01*
X88358356Y-63720000D01*
X89480604Y-63720000D01*
X89585241Y-63824637D01*
X89820273Y-63981680D01*
X90081426Y-64089853D01*
X90358665Y-64145000D01*
X90641335Y-64145000D01*
X90918574Y-64089853D01*
X91179727Y-63981680D01*
X91414759Y-63824637D01*
X91614637Y-63624759D01*
X91771680Y-63389727D01*
X91879853Y-63128574D01*
X91935000Y-62851335D01*
X91935000Y-62568665D01*
X91879853Y-62291426D01*
X91771680Y-62030273D01*
X91614637Y-61795241D01*
X91510000Y-61690604D01*
X91510000Y-60068355D01*
X95068355Y-56510000D01*
X101630604Y-56510000D01*
X101640001Y-56519397D01*
X101640001Y-56900383D01*
X101635114Y-56950000D01*
X101654615Y-57147994D01*
X101712368Y-57338379D01*
X101712369Y-57338380D01*
X101806154Y-57513840D01*
X101932368Y-57667633D01*
X101970901Y-57699256D01*
X102190000Y-57918355D01*
X102190001Y-59110603D01*
X102180604Y-59120000D01*
X100899396Y-59120000D01*
X100764759Y-58985363D01*
X100529727Y-58828320D01*
X100268574Y-58720147D01*
X99991335Y-58665000D01*
X99708665Y-58665000D01*
X99431426Y-58720147D01*
X99170273Y-58828320D01*
X98935241Y-58985363D01*
X98735363Y-59185241D01*
X98578320Y-59420273D01*
X98470147Y-59681426D01*
X98415000Y-59958665D01*
X98415000Y-60241335D01*
X98470147Y-60518574D01*
X98578320Y-60779727D01*
X98735363Y-61014759D01*
X98935241Y-61214637D01*
X99170273Y-61371680D01*
X99321887Y-61434480D01*
X99139083Y-61531756D01*
X99135127Y-61534399D01*
X99061619Y-61743737D01*
X99850000Y-62532118D01*
X100638381Y-61743737D01*
X100564873Y-61534399D01*
X100378484Y-61434327D01*
X100529727Y-61371680D01*
X100764759Y-61214637D01*
X100839396Y-61140000D01*
X102180604Y-61140000D01*
X102285241Y-61244637D01*
X102520273Y-61401680D01*
X102781426Y-61509853D01*
X103058665Y-61565000D01*
X103341335Y-61565000D01*
X103618574Y-61509853D01*
X103879727Y-61401680D01*
X104114759Y-61244637D01*
X104314637Y-61044759D01*
X104470000Y-60812241D01*
X104625363Y-61044759D01*
X104825241Y-61244637D01*
X105060273Y-61401680D01*
X105321426Y-61509853D01*
X105598665Y-61565000D01*
X105881335Y-61565000D01*
X106158574Y-61509853D01*
X106419727Y-61401680D01*
X106654759Y-61244637D01*
X106854637Y-61044759D01*
X107010000Y-60812241D01*
X107165363Y-61044759D01*
X107365241Y-61244637D01*
X107600273Y-61401680D01*
X107861426Y-61509853D01*
X108138665Y-61565000D01*
X108421335Y-61565000D01*
X108698574Y-61509853D01*
X108959727Y-61401680D01*
X109194759Y-61244637D01*
X109394637Y-61044759D01*
X109551680Y-60809727D01*
X109636119Y-60605872D01*
X109639388Y-60616713D01*
X109757026Y-60837687D01*
X109915514Y-61031465D01*
X110108761Y-61190600D01*
X110329340Y-61308977D01*
X110568775Y-61382046D01*
X110572965Y-61382878D01*
X110772000Y-61286755D01*
X110772000Y-60178000D01*
X110868000Y-60178000D01*
X110868000Y-61286755D01*
X111067035Y-61382878D01*
X111071225Y-61382046D01*
X111310660Y-61308977D01*
X111531239Y-61190600D01*
X111724486Y-61031465D01*
X111882974Y-60837687D01*
X112000612Y-60616713D01*
X112072880Y-60377035D01*
X112107120Y-60377035D01*
X112179388Y-60616713D01*
X112297026Y-60837687D01*
X112455514Y-61031465D01*
X112648761Y-61190600D01*
X112869340Y-61308977D01*
X113108775Y-61382046D01*
X113112965Y-61382878D01*
X113312000Y-61286755D01*
X113312000Y-60178000D01*
X113408000Y-60178000D01*
X113408000Y-61286755D01*
X113607035Y-61382878D01*
X113611225Y-61382046D01*
X113850660Y-61308977D01*
X114071239Y-61190600D01*
X114264486Y-61031465D01*
X114422974Y-60837687D01*
X114540612Y-60616713D01*
X114612880Y-60377035D01*
X114647120Y-60377035D01*
X114719388Y-60616713D01*
X114837026Y-60837687D01*
X114995514Y-61031465D01*
X115188761Y-61190600D01*
X115409340Y-61308977D01*
X115648775Y-61382046D01*
X115652965Y-61382878D01*
X115852000Y-61286755D01*
X115852000Y-60178000D01*
X115948000Y-60178000D01*
X115948000Y-61286755D01*
X116147035Y-61382878D01*
X116151225Y-61382046D01*
X116390660Y-61308977D01*
X116611239Y-61190600D01*
X116804486Y-61031465D01*
X116962974Y-60837687D01*
X117080612Y-60616713D01*
X117152880Y-60377035D01*
X117187120Y-60377035D01*
X117259388Y-60616713D01*
X117377026Y-60837687D01*
X117535514Y-61031465D01*
X117728761Y-61190600D01*
X117949340Y-61308977D01*
X118188775Y-61382046D01*
X118192965Y-61382878D01*
X118392000Y-61286755D01*
X118392000Y-60178000D01*
X118488000Y-60178000D01*
X118488000Y-61286755D01*
X118687035Y-61382878D01*
X118691225Y-61382046D01*
X118930660Y-61308977D01*
X119151239Y-61190600D01*
X119344486Y-61031465D01*
X119502974Y-60837687D01*
X119620612Y-60616713D01*
X119692880Y-60377035D01*
X119596850Y-60178000D01*
X118488000Y-60178000D01*
X118392000Y-60178000D01*
X117283150Y-60178000D01*
X117187120Y-60377035D01*
X117152880Y-60377035D01*
X117056850Y-60178000D01*
X115948000Y-60178000D01*
X115852000Y-60178000D01*
X114743150Y-60178000D01*
X114647120Y-60377035D01*
X114612880Y-60377035D01*
X114516850Y-60178000D01*
X113408000Y-60178000D01*
X113312000Y-60178000D01*
X112203150Y-60178000D01*
X112107120Y-60377035D01*
X112072880Y-60377035D01*
X111976850Y-60178000D01*
X110868000Y-60178000D01*
X110772000Y-60178000D01*
X110752000Y-60178000D01*
X110752000Y-60082000D01*
X110772000Y-60082000D01*
X110772000Y-58973245D01*
X110868000Y-58973245D01*
X110868000Y-60082000D01*
X111976850Y-60082000D01*
X112072880Y-59882965D01*
X112107120Y-59882965D01*
X112203150Y-60082000D01*
X113312000Y-60082000D01*
X113312000Y-58973245D01*
X113408000Y-58973245D01*
X113408000Y-60082000D01*
X114516850Y-60082000D01*
X114612880Y-59882965D01*
X114647120Y-59882965D01*
X114743150Y-60082000D01*
X115852000Y-60082000D01*
X115852000Y-58973245D01*
X115948000Y-58973245D01*
X115948000Y-60082000D01*
X117056850Y-60082000D01*
X117152880Y-59882965D01*
X117187120Y-59882965D01*
X117283150Y-60082000D01*
X118392000Y-60082000D01*
X118392000Y-58973245D01*
X118488000Y-58973245D01*
X118488000Y-60082000D01*
X119596850Y-60082000D01*
X119692880Y-59882965D01*
X119620612Y-59643287D01*
X119502974Y-59422313D01*
X119344486Y-59228535D01*
X119151239Y-59069400D01*
X118930660Y-58951023D01*
X118691225Y-58877954D01*
X118687035Y-58877122D01*
X118488000Y-58973245D01*
X118392000Y-58973245D01*
X118192965Y-58877122D01*
X118188775Y-58877954D01*
X117949340Y-58951023D01*
X117728761Y-59069400D01*
X117535514Y-59228535D01*
X117377026Y-59422313D01*
X117259388Y-59643287D01*
X117187120Y-59882965D01*
X117152880Y-59882965D01*
X117080612Y-59643287D01*
X116962974Y-59422313D01*
X116804486Y-59228535D01*
X116611239Y-59069400D01*
X116390660Y-58951023D01*
X116151225Y-58877954D01*
X116147035Y-58877122D01*
X115948000Y-58973245D01*
X115852000Y-58973245D01*
X115652965Y-58877122D01*
X115648775Y-58877954D01*
X115409340Y-58951023D01*
X115188761Y-59069400D01*
X114995514Y-59228535D01*
X114837026Y-59422313D01*
X114719388Y-59643287D01*
X114647120Y-59882965D01*
X114612880Y-59882965D01*
X114540612Y-59643287D01*
X114422974Y-59422313D01*
X114264486Y-59228535D01*
X114071239Y-59069400D01*
X113850660Y-58951023D01*
X113611225Y-58877954D01*
X113607035Y-58877122D01*
X113408000Y-58973245D01*
X113312000Y-58973245D01*
X113112965Y-58877122D01*
X113108775Y-58877954D01*
X112869340Y-58951023D01*
X112648761Y-59069400D01*
X112455514Y-59228535D01*
X112297026Y-59422313D01*
X112179388Y-59643287D01*
X112107120Y-59882965D01*
X112072880Y-59882965D01*
X112000612Y-59643287D01*
X111882974Y-59422313D01*
X111724486Y-59228535D01*
X111531239Y-59069400D01*
X111310660Y-58951023D01*
X111071225Y-58877954D01*
X111067035Y-58877122D01*
X110868000Y-58973245D01*
X110772000Y-58973245D01*
X110572965Y-58877122D01*
X110568775Y-58877954D01*
X110329340Y-58951023D01*
X110108761Y-59069400D01*
X109915514Y-59228535D01*
X109757026Y-59422313D01*
X109639388Y-59643287D01*
X109636119Y-59654128D01*
X109551680Y-59450273D01*
X109394637Y-59215241D01*
X109194759Y-59015363D01*
X108959727Y-58858320D01*
X108698574Y-58750147D01*
X108421335Y-58695000D01*
X108138665Y-58695000D01*
X107861426Y-58750147D01*
X107600273Y-58858320D01*
X107365241Y-59015363D01*
X107165363Y-59215241D01*
X107010000Y-59447759D01*
X106854637Y-59215241D01*
X106654759Y-59015363D01*
X106419727Y-58858320D01*
X106158574Y-58750147D01*
X105881335Y-58695000D01*
X105598665Y-58695000D01*
X105321426Y-58750147D01*
X105060273Y-58858320D01*
X104825241Y-59015363D01*
X104625363Y-59215241D01*
X104470000Y-59447759D01*
X104314637Y-59215241D01*
X104210000Y-59110604D01*
X104210000Y-57549597D01*
X104214885Y-57499999D01*
X104210000Y-57450401D01*
X104210000Y-57450392D01*
X104195385Y-57302006D01*
X104137632Y-57111620D01*
X104043847Y-56936160D01*
X103917633Y-56782367D01*
X103879094Y-56750739D01*
X103660000Y-56531645D01*
X103660000Y-56519396D01*
X103764637Y-56414759D01*
X103921680Y-56179727D01*
X104029853Y-55918574D01*
X104085000Y-55641335D01*
X104085000Y-55358665D01*
X111375000Y-55358665D01*
X111375000Y-55641335D01*
X111430147Y-55918574D01*
X111538320Y-56179727D01*
X111695363Y-56414759D01*
X111895241Y-56614637D01*
X112130273Y-56771680D01*
X112391426Y-56879853D01*
X112668665Y-56935000D01*
X112951335Y-56935000D01*
X113228574Y-56879853D01*
X113489727Y-56771680D01*
X113724759Y-56614637D01*
X113924637Y-56414759D01*
X113944521Y-56385000D01*
X114645210Y-56385000D01*
X114707688Y-56478505D01*
X114921495Y-56692312D01*
X115172905Y-56860299D01*
X115452257Y-56976011D01*
X115748816Y-57035000D01*
X116051184Y-57035000D01*
X116347743Y-56976011D01*
X116627095Y-56860299D01*
X116878505Y-56692312D01*
X117071626Y-56499191D01*
X117097177Y-56583423D01*
X117141470Y-56666289D01*
X117201078Y-56738922D01*
X117273711Y-56798530D01*
X117356577Y-56842823D01*
X117446492Y-56870098D01*
X117540000Y-56879308D01*
X118272750Y-56877000D01*
X118392000Y-56757750D01*
X118392000Y-55548000D01*
X118488000Y-55548000D01*
X118488000Y-56757750D01*
X118607250Y-56877000D01*
X119340000Y-56879308D01*
X119433508Y-56870098D01*
X119523423Y-56842823D01*
X119606289Y-56798530D01*
X119678922Y-56738922D01*
X119738530Y-56666289D01*
X119782823Y-56583423D01*
X119810098Y-56493508D01*
X119819308Y-56400000D01*
X119817000Y-55667250D01*
X119697750Y-55548000D01*
X118488000Y-55548000D01*
X118392000Y-55548000D01*
X118372000Y-55548000D01*
X118372000Y-55452000D01*
X118392000Y-55452000D01*
X118392000Y-54242250D01*
X118488000Y-54242250D01*
X118488000Y-55452000D01*
X119697750Y-55452000D01*
X119817000Y-55332750D01*
X119819308Y-54600000D01*
X119810098Y-54506492D01*
X119782823Y-54416577D01*
X119738530Y-54333711D01*
X119678922Y-54261078D01*
X119606289Y-54201470D01*
X119523423Y-54157177D01*
X119433508Y-54129902D01*
X119340000Y-54120692D01*
X118607250Y-54123000D01*
X118488000Y-54242250D01*
X118392000Y-54242250D01*
X118272750Y-54123000D01*
X117540000Y-54120692D01*
X117446492Y-54129902D01*
X117356577Y-54157177D01*
X117273711Y-54201470D01*
X117201078Y-54261078D01*
X117141470Y-54333711D01*
X117097177Y-54416577D01*
X117071626Y-54500809D01*
X116878505Y-54307688D01*
X116627095Y-54139701D01*
X116347743Y-54023989D01*
X116051184Y-53965000D01*
X115748816Y-53965000D01*
X115452257Y-54023989D01*
X115172905Y-54139701D01*
X114921495Y-54307688D01*
X114707688Y-54521495D01*
X114645210Y-54615000D01*
X113944521Y-54615000D01*
X113924637Y-54585241D01*
X113724759Y-54385363D01*
X113489727Y-54228320D01*
X113228574Y-54120147D01*
X112951335Y-54065000D01*
X112668665Y-54065000D01*
X112391426Y-54120147D01*
X112130273Y-54228320D01*
X111895241Y-54385363D01*
X111695363Y-54585241D01*
X111538320Y-54820273D01*
X111430147Y-55081426D01*
X111375000Y-55358665D01*
X104085000Y-55358665D01*
X104029853Y-55081426D01*
X103921680Y-54820273D01*
X103764637Y-54585241D01*
X103660000Y-54480604D01*
X103660000Y-54299604D01*
X103664886Y-54249999D01*
X103660000Y-54200392D01*
X103645385Y-54052006D01*
X103587632Y-53861620D01*
X103493847Y-53686160D01*
X103367633Y-53532367D01*
X103329094Y-53500739D01*
X102356910Y-52528555D01*
X102451185Y-52451185D01*
X102530537Y-52354494D01*
X102589502Y-52244180D01*
X102625812Y-52124482D01*
X102637087Y-52010000D01*
X104500392Y-52010000D01*
X104550000Y-52014886D01*
X104747994Y-51995385D01*
X104938380Y-51937632D01*
X105113840Y-51843847D01*
X105267633Y-51717633D01*
X105299261Y-51679095D01*
X105818356Y-51160000D01*
X106751928Y-51160000D01*
X106751928Y-51250000D01*
X106764188Y-51374482D01*
X106800498Y-51494180D01*
X106859463Y-51604494D01*
X106938815Y-51701185D01*
X107035506Y-51780537D01*
X107145820Y-51839502D01*
X107265518Y-51875812D01*
X107390000Y-51888072D01*
X109590000Y-51888072D01*
X109714482Y-51875812D01*
X109834180Y-51839502D01*
X109944494Y-51780537D01*
X110041185Y-51701185D01*
X110120537Y-51604494D01*
X110179502Y-51494180D01*
X110215812Y-51374482D01*
X110228072Y-51250000D01*
X110228072Y-49050000D01*
X110215812Y-48925518D01*
X110179502Y-48805820D01*
X110120537Y-48695506D01*
X110041185Y-48598815D01*
X109944494Y-48519463D01*
X109834180Y-48460498D01*
X109714482Y-48424188D01*
X109590000Y-48411928D01*
X107390000Y-48411928D01*
X107265518Y-48424188D01*
X107145820Y-48460498D01*
X107035506Y-48519463D01*
X106938815Y-48598815D01*
X106859463Y-48695506D01*
X106800498Y-48805820D01*
X106764188Y-48925518D01*
X106751928Y-49050000D01*
X106751928Y-49140000D01*
X105449608Y-49140000D01*
X105400000Y-49135114D01*
X105202005Y-49154615D01*
X105155989Y-49168574D01*
X105011620Y-49212368D01*
X104836160Y-49306153D01*
X104682367Y-49432367D01*
X104650743Y-49470901D01*
X104131645Y-49990000D01*
X102637087Y-49990000D01*
X102625812Y-49875518D01*
X102589502Y-49755820D01*
X102530537Y-49645506D01*
X102451185Y-49548815D01*
X102354494Y-49469463D01*
X102244180Y-49410498D01*
X102124482Y-49374188D01*
X102000000Y-49361928D01*
X100000000Y-49361928D01*
X99875518Y-49374188D01*
X99755820Y-49410498D01*
X99645506Y-49469463D01*
X99548815Y-49548815D01*
X99469463Y-49645506D01*
X99410498Y-49755820D01*
X99374188Y-49875518D01*
X99362913Y-49990000D01*
X98368356Y-49990000D01*
X96449261Y-48070906D01*
X96417633Y-48032367D01*
X96263840Y-47906153D01*
X96088380Y-47812368D01*
X95897994Y-47754615D01*
X95749608Y-47740000D01*
X95700000Y-47735114D01*
X95650392Y-47740000D01*
X94371046Y-47740000D01*
X94320537Y-47645506D01*
X94241185Y-47548815D01*
X94144494Y-47469463D01*
X94034180Y-47410498D01*
X93914482Y-47374188D01*
X93790000Y-47361928D01*
X93677000Y-47361928D01*
X93677000Y-46998472D01*
X100069410Y-46998472D01*
X100166929Y-47228285D01*
X100422563Y-47367209D01*
X100700388Y-47453591D01*
X100989726Y-47484112D01*
X101279459Y-47457600D01*
X101558453Y-47375072D01*
X101815986Y-47239702D01*
X101833071Y-47228285D01*
X101930590Y-46998472D01*
X101000000Y-46067882D01*
X100069410Y-46998472D01*
X93677000Y-46998472D01*
X93677000Y-45989726D01*
X99515888Y-45989726D01*
X99542400Y-46279459D01*
X99624928Y-46558453D01*
X99760298Y-46815986D01*
X99771715Y-46833071D01*
X100001528Y-46930590D01*
X100932118Y-46000000D01*
X101067882Y-46000000D01*
X101998472Y-46930590D01*
X102228285Y-46833071D01*
X102367209Y-46577437D01*
X102453591Y-46299612D01*
X102484112Y-46010274D01*
X102464322Y-45793992D01*
X109480646Y-45793992D01*
X109486074Y-45821300D01*
X109578423Y-46116331D01*
X109726555Y-46387677D01*
X109924778Y-46624910D01*
X110165474Y-46818913D01*
X110439393Y-46962231D01*
X110736008Y-47049356D01*
X110982000Y-46957021D01*
X110982000Y-45548000D01*
X111078000Y-45548000D01*
X111078000Y-46957021D01*
X111323992Y-47049356D01*
X111620607Y-46962231D01*
X111894526Y-46818913D01*
X112135222Y-46624910D01*
X112333445Y-46387677D01*
X112481577Y-46116331D01*
X112573926Y-45821300D01*
X112579354Y-45793992D01*
X112486960Y-45548000D01*
X111078000Y-45548000D01*
X110982000Y-45548000D01*
X109573040Y-45548000D01*
X109480646Y-45793992D01*
X102464322Y-45793992D01*
X102457600Y-45720541D01*
X102375072Y-45441547D01*
X102251263Y-45206008D01*
X109480646Y-45206008D01*
X109573040Y-45452000D01*
X110982000Y-45452000D01*
X110982000Y-44042979D01*
X111078000Y-44042979D01*
X111078000Y-45452000D01*
X112486960Y-45452000D01*
X112579354Y-45206008D01*
X112573926Y-45178700D01*
X112481577Y-44883669D01*
X112333445Y-44612323D01*
X112135222Y-44375090D01*
X111894526Y-44181087D01*
X111620607Y-44037769D01*
X111323992Y-43950644D01*
X111078000Y-44042979D01*
X110982000Y-44042979D01*
X110736008Y-43950644D01*
X110439393Y-44037769D01*
X110165474Y-44181087D01*
X109924778Y-44375090D01*
X109726555Y-44612323D01*
X109578423Y-44883669D01*
X109486074Y-45178700D01*
X109480646Y-45206008D01*
X102251263Y-45206008D01*
X102239702Y-45184014D01*
X102228285Y-45166929D01*
X101998472Y-45069410D01*
X101067882Y-46000000D01*
X100932118Y-46000000D01*
X100001528Y-45069410D01*
X99771715Y-45166929D01*
X99632791Y-45422563D01*
X99546409Y-45700388D01*
X99515888Y-45989726D01*
X93677000Y-45989726D01*
X93677000Y-45206263D01*
X93861619Y-45206263D01*
X93935127Y-45415601D01*
X94156752Y-45534591D01*
X94397332Y-45608057D01*
X94647621Y-45633177D01*
X94898002Y-45608985D01*
X95138853Y-45536411D01*
X95360917Y-45418244D01*
X95364873Y-45415601D01*
X95438381Y-45206263D01*
X94650000Y-44417882D01*
X93861619Y-45206263D01*
X93677000Y-45206263D01*
X93677000Y-45097389D01*
X93793737Y-45138381D01*
X94582118Y-44350000D01*
X94567976Y-44335858D01*
X94635858Y-44267976D01*
X94650000Y-44282118D01*
X94664143Y-44267976D01*
X94732025Y-44335858D01*
X94717882Y-44350000D01*
X95506263Y-45138381D01*
X95715601Y-45064873D01*
X95749610Y-45001528D01*
X100069410Y-45001528D01*
X101000000Y-45932118D01*
X101930590Y-45001528D01*
X101833071Y-44771715D01*
X101577437Y-44632791D01*
X101299612Y-44546409D01*
X101010274Y-44515888D01*
X100720541Y-44542400D01*
X100441547Y-44624928D01*
X100184014Y-44760298D01*
X100166929Y-44771715D01*
X100069410Y-45001528D01*
X95749610Y-45001528D01*
X95834591Y-44843248D01*
X95908057Y-44602668D01*
X95933177Y-44352379D01*
X95908985Y-44101998D01*
X95836411Y-43861147D01*
X95718244Y-43639083D01*
X95715601Y-43635127D01*
X95692457Y-43627000D01*
X120873000Y-43627000D01*
X120873000Y-44490000D01*
%TA.AperFunction,Conductor*%
D34*
G36*
X120873000Y-44490000D02*
G01*
X120388072Y-44490000D01*
X120388072Y-44400000D01*
X120375812Y-44275518D01*
X120339502Y-44155820D01*
X120280537Y-44045506D01*
X120201185Y-43948815D01*
X120104494Y-43869463D01*
X119994180Y-43810498D01*
X119874482Y-43774188D01*
X119750000Y-43761928D01*
X117550000Y-43761928D01*
X117425518Y-43774188D01*
X117305820Y-43810498D01*
X117195506Y-43869463D01*
X117098815Y-43948815D01*
X117019463Y-44045506D01*
X116960498Y-44155820D01*
X116924188Y-44275518D01*
X116911928Y-44400000D01*
X116911928Y-46600000D01*
X116924188Y-46724482D01*
X116960498Y-46844180D01*
X117019463Y-46954494D01*
X117098815Y-47051185D01*
X117195506Y-47130537D01*
X117305820Y-47189502D01*
X117425518Y-47225812D01*
X117550000Y-47238072D01*
X117640000Y-47238072D01*
X117640001Y-48738193D01*
X117544002Y-48802337D01*
X117302337Y-49044002D01*
X117112463Y-49328169D01*
X116981675Y-49643919D01*
X116915000Y-49979117D01*
X116915000Y-50320883D01*
X116981675Y-50656081D01*
X117112463Y-50971831D01*
X117302337Y-51255998D01*
X117544002Y-51497663D01*
X117828169Y-51687537D01*
X118143919Y-51818325D01*
X118479117Y-51885000D01*
X118820883Y-51885000D01*
X119156081Y-51818325D01*
X119471831Y-51687537D01*
X119755998Y-51497663D01*
X119997663Y-51255998D01*
X120187537Y-50971831D01*
X120318325Y-50656081D01*
X120385000Y-50320883D01*
X120385000Y-49979117D01*
X120318325Y-49643919D01*
X120187537Y-49328169D01*
X119997663Y-49044002D01*
X119755998Y-48802337D01*
X119660000Y-48738193D01*
X119660000Y-47238072D01*
X119750000Y-47238072D01*
X119874482Y-47225812D01*
X119994180Y-47189502D01*
X120104494Y-47130537D01*
X120201185Y-47051185D01*
X120280537Y-46954494D01*
X120339502Y-46844180D01*
X120375812Y-46724482D01*
X120388072Y-46600000D01*
X120388072Y-46510000D01*
X120873000Y-46510000D01*
X120873000Y-71500000D01*
X120875440Y-71524776D01*
X120882667Y-71548601D01*
X120894403Y-71570557D01*
X120910197Y-71589803D01*
X124373000Y-75052606D01*
X124373000Y-85447394D01*
X122947394Y-86873000D01*
X98500000Y-86873000D01*
X98475224Y-86875440D01*
X98451399Y-86882667D01*
X98429443Y-86894403D01*
X98410197Y-86910197D01*
X90947394Y-94373000D01*
X80127000Y-94373000D01*
X80127000Y-91597035D01*
X86007122Y-91597035D01*
X86007954Y-91601225D01*
X86081023Y-91840660D01*
X86199400Y-92061239D01*
X86358535Y-92254486D01*
X86552313Y-92412974D01*
X86773287Y-92530612D01*
X87012965Y-92602880D01*
X87212000Y-92506850D01*
X87212000Y-91398000D01*
X87308000Y-91398000D01*
X87308000Y-92506850D01*
X87507035Y-92602880D01*
X87746713Y-92530612D01*
X87967687Y-92412974D01*
X88161465Y-92254486D01*
X88320600Y-92061239D01*
X88438977Y-91840660D01*
X88512046Y-91601225D01*
X88512878Y-91597035D01*
X88416755Y-91398000D01*
X87308000Y-91398000D01*
X87212000Y-91398000D01*
X86103245Y-91398000D01*
X86007122Y-91597035D01*
X80127000Y-91597035D01*
X80127000Y-91102965D01*
X86007122Y-91102965D01*
X86103245Y-91302000D01*
X87212000Y-91302000D01*
X87212000Y-90193150D01*
X87308000Y-90193150D01*
X87308000Y-91302000D01*
X88416755Y-91302000D01*
X88512878Y-91102965D01*
X88512046Y-91098775D01*
X88438977Y-90859340D01*
X88320600Y-90638761D01*
X88161465Y-90445514D01*
X87967687Y-90287026D01*
X87746713Y-90169388D01*
X87507035Y-90097120D01*
X87308000Y-90193150D01*
X87212000Y-90193150D01*
X87012965Y-90097120D01*
X86773287Y-90169388D01*
X86552313Y-90287026D01*
X86358535Y-90445514D01*
X86199400Y-90638761D01*
X86081023Y-90859340D01*
X86007954Y-91098775D01*
X86007122Y-91102965D01*
X80127000Y-91102965D01*
X80127000Y-80052606D01*
X84189803Y-75989803D01*
X84205597Y-75970557D01*
X84217333Y-75948601D01*
X84224560Y-75924776D01*
X84227000Y-75900000D01*
X84227000Y-52669500D01*
X84249400Y-52711239D01*
X84408535Y-52904486D01*
X84602313Y-53062974D01*
X84823287Y-53180612D01*
X85062965Y-53252880D01*
X85262000Y-53156850D01*
X85262000Y-52048000D01*
X85358000Y-52048000D01*
X85358000Y-53156850D01*
X85557035Y-53252880D01*
X85796713Y-53180612D01*
X86017687Y-53062974D01*
X86211465Y-52904486D01*
X86370600Y-52711239D01*
X86488977Y-52490660D01*
X86562046Y-52251225D01*
X86562878Y-52247035D01*
X86466755Y-52048000D01*
X85358000Y-52048000D01*
X85262000Y-52048000D01*
X85242000Y-52048000D01*
X85242000Y-51952000D01*
X85262000Y-51952000D01*
X85262000Y-50843150D01*
X85358000Y-50843150D01*
X85358000Y-51952000D01*
X86466755Y-51952000D01*
X86562878Y-51752965D01*
X86562046Y-51748775D01*
X86488977Y-51509340D01*
X86370600Y-51288761D01*
X86211465Y-51095514D01*
X86017687Y-50937026D01*
X85796713Y-50819388D01*
X85557035Y-50747120D01*
X85358000Y-50843150D01*
X85262000Y-50843150D01*
X85062965Y-50747120D01*
X84823287Y-50819388D01*
X84602313Y-50937026D01*
X84408535Y-51095514D01*
X84249400Y-51288761D01*
X84227000Y-51330500D01*
X84227000Y-49696396D01*
X84395241Y-49864637D01*
X84630273Y-50021680D01*
X84891426Y-50129853D01*
X85168665Y-50185000D01*
X85451335Y-50185000D01*
X85728574Y-50129853D01*
X85989727Y-50021680D01*
X86224759Y-49864637D01*
X86424637Y-49664759D01*
X86444521Y-49635000D01*
X86886315Y-49635000D01*
X87077114Y-49825799D01*
X87303957Y-49977371D01*
X87556011Y-50081775D01*
X87823589Y-50135000D01*
X88096411Y-50135000D01*
X88363989Y-50081775D01*
X88616043Y-49977371D01*
X88842886Y-49825799D01*
X89035799Y-49632886D01*
X89187371Y-49406043D01*
X89230000Y-49303127D01*
X89272629Y-49406043D01*
X89424201Y-49632886D01*
X89615000Y-49823685D01*
X89615001Y-51415478D01*
X89585241Y-51435363D01*
X89385363Y-51635241D01*
X89228320Y-51870273D01*
X89120147Y-52131426D01*
X89065000Y-52408665D01*
X89065000Y-52691335D01*
X89120147Y-52968574D01*
X89228320Y-53229727D01*
X89385363Y-53464759D01*
X89585241Y-53664637D01*
X89820273Y-53821680D01*
X90081426Y-53929853D01*
X90358665Y-53985000D01*
X90641335Y-53985000D01*
X90918574Y-53929853D01*
X91179727Y-53821680D01*
X91414759Y-53664637D01*
X91614637Y-53464759D01*
X91634521Y-53435000D01*
X92565479Y-53435000D01*
X92585363Y-53464759D01*
X92785241Y-53664637D01*
X93020273Y-53821680D01*
X93281426Y-53929853D01*
X93558665Y-53985000D01*
X93841335Y-53985000D01*
X94118574Y-53929853D01*
X94379727Y-53821680D01*
X94614759Y-53664637D01*
X94814637Y-53464759D01*
X94971680Y-53229727D01*
X95079853Y-52968574D01*
X95135000Y-52691335D01*
X95135000Y-52408665D01*
X95079853Y-52131426D01*
X94971680Y-51870273D01*
X94814637Y-51635241D01*
X94614759Y-51435363D01*
X94379727Y-51278320D01*
X94118574Y-51170147D01*
X93841335Y-51115000D01*
X93558665Y-51115000D01*
X93281426Y-51170147D01*
X93020273Y-51278320D01*
X92785241Y-51435363D01*
X92585363Y-51635241D01*
X92565479Y-51665000D01*
X91634521Y-51665000D01*
X91614637Y-51635241D01*
X91414759Y-51435363D01*
X91385000Y-51415479D01*
X91385000Y-49823685D01*
X91575799Y-49632886D01*
X91653555Y-49516517D01*
X91664188Y-49624482D01*
X91700498Y-49744180D01*
X91759463Y-49854494D01*
X91838815Y-49951185D01*
X91935506Y-50030537D01*
X92045820Y-50089502D01*
X92165518Y-50125812D01*
X92290000Y-50138072D01*
X93790000Y-50138072D01*
X93914482Y-50125812D01*
X94034180Y-50089502D01*
X94144494Y-50030537D01*
X94241185Y-49951185D01*
X94320537Y-49854494D01*
X94371046Y-49760000D01*
X95281645Y-49760000D01*
X97200744Y-51679100D01*
X97232367Y-51717633D01*
X97386160Y-51843847D01*
X97530846Y-51921183D01*
X97561620Y-51937632D01*
X97752005Y-51995385D01*
X97950000Y-52014886D01*
X97999608Y-52010000D01*
X99362913Y-52010000D01*
X99374188Y-52124482D01*
X99410498Y-52244180D01*
X99469463Y-52354494D01*
X99548815Y-52451185D01*
X99645506Y-52530537D01*
X99755820Y-52589502D01*
X99875518Y-52625812D01*
X99988755Y-52636964D01*
X100004615Y-52797994D01*
X100062368Y-52988379D01*
X100062369Y-52988380D01*
X100156154Y-53163840D01*
X100282368Y-53317633D01*
X100320901Y-53349256D01*
X101461645Y-54490000D01*
X94699604Y-54490000D01*
X94649999Y-54485114D01*
X94600394Y-54490000D01*
X94600392Y-54490000D01*
X94452006Y-54504615D01*
X94261620Y-54562368D01*
X94086160Y-54656153D01*
X93932367Y-54782367D01*
X93900739Y-54820906D01*
X89820906Y-58900739D01*
X89782367Y-58932367D01*
X89656153Y-59086160D01*
X89584693Y-59219853D01*
X89562368Y-59261621D01*
X89504615Y-59452006D01*
X89485114Y-59650000D01*
X89490000Y-59699608D01*
X89490001Y-61690603D01*
X89480604Y-61700000D01*
X87989608Y-61700000D01*
X87940000Y-61695114D01*
X87742005Y-61714615D01*
X87551620Y-61772368D01*
X87376160Y-61866153D01*
X87222367Y-61992367D01*
X87190743Y-62030901D01*
X85960901Y-63260744D01*
X85922368Y-63292367D01*
X85890745Y-63330900D01*
X85890744Y-63330901D01*
X85796154Y-63446160D01*
X85702368Y-63621621D01*
X85644615Y-63812006D01*
X85625114Y-64010000D01*
X85630001Y-64059617D01*
X85630000Y-65030604D01*
X85525363Y-65135241D01*
X85368320Y-65370273D01*
X85260147Y-65631426D01*
X85205000Y-65908665D01*
X85205000Y-66191335D01*
X85260147Y-66468574D01*
X85368320Y-66729727D01*
X85525363Y-66964759D01*
X85630000Y-67069396D01*
X85630001Y-68291644D01*
X85470906Y-68450739D01*
X85432367Y-68482367D01*
X85306153Y-68636160D01*
X85221690Y-68794180D01*
X85212368Y-68811621D01*
X85154615Y-69002006D01*
X85135114Y-69200000D01*
X85140000Y-69249608D01*
X85140001Y-72430603D01*
X85035363Y-72535241D01*
X84878320Y-72770273D01*
X84770147Y-73031426D01*
X84715000Y-73308665D01*
X84715000Y-73591335D01*
X84770147Y-73868574D01*
X84878320Y-74129727D01*
X85035363Y-74364759D01*
X85235241Y-74564637D01*
X85470273Y-74721680D01*
X85731426Y-74829853D01*
X86008665Y-74885000D01*
X86156645Y-74885000D01*
X87500744Y-76229100D01*
X87532367Y-76267633D01*
X87686160Y-76393847D01*
X87861620Y-76487632D01*
X88052006Y-76545385D01*
X88200392Y-76560000D01*
X88200401Y-76560000D01*
X88249999Y-76564885D01*
X88299597Y-76560000D01*
X89490000Y-76560000D01*
X89490001Y-77740383D01*
X89485114Y-77790000D01*
X89504615Y-77987994D01*
X89562368Y-78178379D01*
X89562369Y-78178380D01*
X89656154Y-78353840D01*
X89782368Y-78507633D01*
X89820901Y-78539256D01*
X93770000Y-82488355D01*
X93770001Y-86718954D01*
X93675506Y-86769463D01*
X93578815Y-86848815D01*
X93499463Y-86945506D01*
X93440498Y-87055820D01*
X93404188Y-87175518D01*
X93393555Y-87283483D01*
X93315799Y-87167114D01*
X93125000Y-86976315D01*
X93125000Y-84983465D01*
X93129281Y-84939999D01*
X93125000Y-84896533D01*
X93125000Y-84896523D01*
X93112195Y-84766510D01*
X93061589Y-84599687D01*
X92979411Y-84445941D01*
X92955210Y-84416452D01*
X92896532Y-84344953D01*
X92896530Y-84344951D01*
X92868817Y-84311183D01*
X92835050Y-84283471D01*
X91556534Y-83004956D01*
X91528817Y-82971183D01*
X91394059Y-82860589D01*
X91240313Y-82778411D01*
X91073490Y-82727805D01*
X90943477Y-82715000D01*
X90943469Y-82715000D01*
X90900000Y-82710719D01*
X90856531Y-82715000D01*
X90434521Y-82715000D01*
X90414637Y-82685241D01*
X90214759Y-82485363D01*
X89979727Y-82328320D01*
X89718574Y-82220147D01*
X89441335Y-82165000D01*
X89158665Y-82165000D01*
X88881426Y-82220147D01*
X88620273Y-82328320D01*
X88385241Y-82485363D01*
X88185363Y-82685241D01*
X88158797Y-82725000D01*
X87284521Y-82725000D01*
X87264637Y-82695241D01*
X87064759Y-82495363D01*
X86829727Y-82338320D01*
X86568574Y-82230147D01*
X86291335Y-82175000D01*
X86008665Y-82175000D01*
X85731426Y-82230147D01*
X85470273Y-82338320D01*
X85235241Y-82495363D01*
X85035363Y-82695241D01*
X84878320Y-82930273D01*
X84770147Y-83191426D01*
X84715000Y-83468665D01*
X84715000Y-83751335D01*
X84770147Y-84028574D01*
X84878320Y-84289727D01*
X85035363Y-84524759D01*
X85235241Y-84724637D01*
X85470273Y-84881680D01*
X85731426Y-84989853D01*
X86008665Y-85045000D01*
X86291335Y-85045000D01*
X86568574Y-84989853D01*
X86829727Y-84881680D01*
X87064759Y-84724637D01*
X87264637Y-84524759D01*
X87284521Y-84495000D01*
X88172160Y-84495000D01*
X88185363Y-84514759D01*
X88385241Y-84714637D01*
X88620273Y-84871680D01*
X88881426Y-84979853D01*
X89158665Y-85035000D01*
X89441335Y-85035000D01*
X89718574Y-84979853D01*
X89979727Y-84871680D01*
X90214759Y-84714637D01*
X90414637Y-84514759D01*
X90434521Y-84485000D01*
X90533422Y-84485000D01*
X91355000Y-85306579D01*
X91355001Y-86976314D01*
X91164201Y-87167114D01*
X91012629Y-87393957D01*
X90970000Y-87496873D01*
X90927371Y-87393957D01*
X90775799Y-87167114D01*
X90582886Y-86974201D01*
X90356043Y-86822629D01*
X90103989Y-86718225D01*
X89836411Y-86665000D01*
X89563589Y-86665000D01*
X89296011Y-86718225D01*
X89043957Y-86822629D01*
X88817114Y-86974201D01*
X88626315Y-87165000D01*
X88394521Y-87165000D01*
X88374637Y-87135241D01*
X88174759Y-86935363D01*
X87939727Y-86778320D01*
X87678574Y-86670147D01*
X87401335Y-86615000D01*
X87118665Y-86615000D01*
X86841426Y-86670147D01*
X86580273Y-86778320D01*
X86345241Y-86935363D01*
X86145363Y-87135241D01*
X85988320Y-87370273D01*
X85880147Y-87631426D01*
X85825000Y-87908665D01*
X85825000Y-88191335D01*
X85880147Y-88468574D01*
X85988320Y-88729727D01*
X86145363Y-88964759D01*
X86345241Y-89164637D01*
X86580273Y-89321680D01*
X86841426Y-89429853D01*
X87118665Y-89485000D01*
X87401335Y-89485000D01*
X87678574Y-89429853D01*
X87939727Y-89321680D01*
X88174759Y-89164637D01*
X88374637Y-88964759D01*
X88394521Y-88935000D01*
X88626315Y-88935000D01*
X88817114Y-89125799D01*
X89043957Y-89277371D01*
X89296011Y-89381775D01*
X89563589Y-89435000D01*
X89836411Y-89435000D01*
X90103989Y-89381775D01*
X90356043Y-89277371D01*
X90582886Y-89125799D01*
X90775799Y-88932886D01*
X90927371Y-88706043D01*
X90970000Y-88603127D01*
X91012629Y-88706043D01*
X91164201Y-88932886D01*
X91357114Y-89125799D01*
X91583957Y-89277371D01*
X91836011Y-89381775D01*
X92103589Y-89435000D01*
X92376411Y-89435000D01*
X92643989Y-89381775D01*
X92896043Y-89277371D01*
X93122886Y-89125799D01*
X93315799Y-88932886D01*
X93393555Y-88816517D01*
X93404188Y-88924482D01*
X93440498Y-89044180D01*
X93499463Y-89154494D01*
X93578815Y-89251185D01*
X93675506Y-89330537D01*
X93785820Y-89389502D01*
X93905518Y-89425812D01*
X94030000Y-89438072D01*
X95530000Y-89438072D01*
X95654482Y-89425812D01*
X95774180Y-89389502D01*
X95884494Y-89330537D01*
X95981185Y-89251185D01*
X96060537Y-89154494D01*
X96119502Y-89044180D01*
X96155812Y-88924482D01*
X96168072Y-88800000D01*
X96168072Y-87300000D01*
X96155812Y-87175518D01*
X96119502Y-87055820D01*
X96060537Y-86945506D01*
X95981185Y-86848815D01*
X95884494Y-86769463D01*
X95790000Y-86718954D01*
X95790000Y-82119604D01*
X95794886Y-82069999D01*
X95790000Y-82020392D01*
X95775385Y-81872006D01*
X95717632Y-81681620D01*
X95623847Y-81506160D01*
X95497633Y-81352367D01*
X95459094Y-81320739D01*
X94338355Y-80200000D01*
X99211928Y-80200000D01*
X99211928Y-81800000D01*
X99224188Y-81924482D01*
X99260498Y-82044180D01*
X99319463Y-82154494D01*
X99398815Y-82251185D01*
X99495506Y-82330537D01*
X99605820Y-82389502D01*
X99725518Y-82425812D01*
X99765000Y-82429701D01*
X99765000Y-82555478D01*
X99735241Y-82575363D01*
X99535363Y-82775241D01*
X99378320Y-83010273D01*
X99270147Y-83271426D01*
X99215000Y-83548665D01*
X99215000Y-83831335D01*
X99270147Y-84108574D01*
X99378320Y-84369727D01*
X99535363Y-84604759D01*
X99735241Y-84804637D01*
X99970273Y-84961680D01*
X100231426Y-85069853D01*
X100508665Y-85125000D01*
X100791335Y-85125000D01*
X101068574Y-85069853D01*
X101329727Y-84961680D01*
X101564759Y-84804637D01*
X101764637Y-84604759D01*
X101921680Y-84369727D01*
X102029853Y-84108574D01*
X102085000Y-83831335D01*
X102085000Y-83548665D01*
X102029853Y-83271426D01*
X101921680Y-83010273D01*
X101764637Y-82775241D01*
X101564759Y-82575363D01*
X101535000Y-82555479D01*
X101535000Y-82429701D01*
X101574482Y-82425812D01*
X101694180Y-82389502D01*
X101804494Y-82330537D01*
X101901185Y-82251185D01*
X101980537Y-82154494D01*
X102039502Y-82044180D01*
X102075812Y-81924482D01*
X102076643Y-81916039D01*
X102275241Y-82114637D01*
X102510273Y-82271680D01*
X102771426Y-82379853D01*
X103048665Y-82435000D01*
X103331335Y-82435000D01*
X103608574Y-82379853D01*
X103869727Y-82271680D01*
X104104759Y-82114637D01*
X104304637Y-81914759D01*
X104460000Y-81682241D01*
X104615363Y-81914759D01*
X104815241Y-82114637D01*
X104865001Y-82147885D01*
X104865000Y-83315478D01*
X104835241Y-83335363D01*
X104635363Y-83535241D01*
X104478320Y-83770273D01*
X104370147Y-84031426D01*
X104315000Y-84308665D01*
X104315000Y-84591335D01*
X104370147Y-84868574D01*
X104478320Y-85129727D01*
X104635363Y-85364759D01*
X104835241Y-85564637D01*
X105070273Y-85721680D01*
X105331426Y-85829853D01*
X105608665Y-85885000D01*
X105891335Y-85885000D01*
X106168574Y-85829853D01*
X106429727Y-85721680D01*
X106664759Y-85564637D01*
X106864637Y-85364759D01*
X107000000Y-85162173D01*
X107135363Y-85364759D01*
X107335241Y-85564637D01*
X107570273Y-85721680D01*
X107831426Y-85829853D01*
X108108665Y-85885000D01*
X108391335Y-85885000D01*
X108668574Y-85829853D01*
X108929727Y-85721680D01*
X109164759Y-85564637D01*
X109364637Y-85364759D01*
X109384521Y-85335000D01*
X109665479Y-85335000D01*
X109685363Y-85364759D01*
X109885241Y-85564637D01*
X110120273Y-85721680D01*
X110381426Y-85829853D01*
X110658665Y-85885000D01*
X110941335Y-85885000D01*
X111218574Y-85829853D01*
X111479727Y-85721680D01*
X111714759Y-85564637D01*
X111914637Y-85364759D01*
X112071680Y-85129727D01*
X112179853Y-84868574D01*
X112235000Y-84591335D01*
X112235000Y-84308665D01*
X112179853Y-84031426D01*
X112071680Y-83770273D01*
X111914637Y-83535241D01*
X111714759Y-83335363D01*
X111685000Y-83315479D01*
X111685000Y-82141203D01*
X111724759Y-82114637D01*
X111924637Y-81914759D01*
X111944521Y-81885000D01*
X112215479Y-81885000D01*
X112235363Y-81914759D01*
X112435241Y-82114637D01*
X112670273Y-82271680D01*
X112931426Y-82379853D01*
X113208665Y-82435000D01*
X113491335Y-82435000D01*
X113768574Y-82379853D01*
X114029727Y-82271680D01*
X114264759Y-82114637D01*
X114464637Y-81914759D01*
X114621680Y-81679727D01*
X114706119Y-81475872D01*
X114709388Y-81486713D01*
X114827026Y-81707687D01*
X114985514Y-81901465D01*
X115178761Y-82060600D01*
X115399340Y-82178977D01*
X115638775Y-82252046D01*
X115642965Y-82252878D01*
X115842000Y-82156755D01*
X115842000Y-81048000D01*
X115938000Y-81048000D01*
X115938000Y-82156755D01*
X116137035Y-82252878D01*
X116141225Y-82252046D01*
X116380660Y-82178977D01*
X116601239Y-82060600D01*
X116794486Y-81901465D01*
X116952974Y-81707687D01*
X117070612Y-81486713D01*
X117142880Y-81247035D01*
X117046850Y-81048000D01*
X115938000Y-81048000D01*
X115842000Y-81048000D01*
X115822000Y-81048000D01*
X115822000Y-80952000D01*
X115842000Y-80952000D01*
X115842000Y-79843245D01*
X115938000Y-79843245D01*
X115938000Y-80952000D01*
X117046850Y-80952000D01*
X117142880Y-80752965D01*
X117070612Y-80513287D01*
X116952974Y-80292313D01*
X116794486Y-80098535D01*
X116601239Y-79939400D01*
X116380660Y-79821023D01*
X116141225Y-79747954D01*
X116137035Y-79747122D01*
X115938000Y-79843245D01*
X115842000Y-79843245D01*
X115642965Y-79747122D01*
X115638775Y-79747954D01*
X115399340Y-79821023D01*
X115178761Y-79939400D01*
X114985514Y-80098535D01*
X114827026Y-80292313D01*
X114709388Y-80513287D01*
X114706119Y-80524128D01*
X114621680Y-80320273D01*
X114464637Y-80085241D01*
X114264759Y-79885363D01*
X114029727Y-79728320D01*
X113768574Y-79620147D01*
X113491335Y-79565000D01*
X113208665Y-79565000D01*
X112931426Y-79620147D01*
X112670273Y-79728320D01*
X112435241Y-79885363D01*
X112235363Y-80085241D01*
X112215479Y-80115000D01*
X111944521Y-80115000D01*
X111924637Y-80085241D01*
X111724759Y-79885363D01*
X111489727Y-79728320D01*
X111228574Y-79620147D01*
X110951335Y-79565000D01*
X110668665Y-79565000D01*
X110391426Y-79620147D01*
X110130273Y-79728320D01*
X109895241Y-79885363D01*
X109695363Y-80085241D01*
X109540000Y-80317759D01*
X109384637Y-80085241D01*
X109184759Y-79885363D01*
X108949727Y-79728320D01*
X108688574Y-79620147D01*
X108411335Y-79565000D01*
X108128665Y-79565000D01*
X107851426Y-79620147D01*
X107590273Y-79728320D01*
X107355241Y-79885363D01*
X107155363Y-80085241D01*
X107000000Y-80317759D01*
X106844637Y-80085241D01*
X106644759Y-79885363D01*
X106409727Y-79728320D01*
X106148574Y-79620147D01*
X105871335Y-79565000D01*
X105588665Y-79565000D01*
X105311426Y-79620147D01*
X105050273Y-79728320D01*
X104815241Y-79885363D01*
X104615363Y-80085241D01*
X104460000Y-80317759D01*
X104304637Y-80085241D01*
X104104759Y-79885363D01*
X103869727Y-79728320D01*
X103608574Y-79620147D01*
X103331335Y-79565000D01*
X103048665Y-79565000D01*
X102771426Y-79620147D01*
X102510273Y-79728320D01*
X102275241Y-79885363D01*
X102076643Y-80083961D01*
X102075812Y-80075518D01*
X102039502Y-79955820D01*
X101980537Y-79845506D01*
X101901185Y-79748815D01*
X101804494Y-79669463D01*
X101694180Y-79610498D01*
X101574482Y-79574188D01*
X101450000Y-79561928D01*
X99850000Y-79561928D01*
X99725518Y-79574188D01*
X99605820Y-79610498D01*
X99495506Y-79669463D01*
X99398815Y-79748815D01*
X99319463Y-79845506D01*
X99260498Y-79955820D01*
X99224188Y-80075518D01*
X99211928Y-80200000D01*
X94338355Y-80200000D01*
X91510000Y-77371645D01*
X91510000Y-76756263D01*
X96111619Y-76756263D01*
X96185127Y-76965601D01*
X96406752Y-77084591D01*
X96647332Y-77158057D01*
X96897621Y-77183177D01*
X97148002Y-77158985D01*
X97388853Y-77086411D01*
X97610917Y-76968244D01*
X97614873Y-76965601D01*
X97688381Y-76756263D01*
X96900000Y-75967882D01*
X96111619Y-76756263D01*
X91510000Y-76756263D01*
X91510000Y-75968355D01*
X91580734Y-75897621D01*
X95616823Y-75897621D01*
X95641015Y-76148002D01*
X95713589Y-76388853D01*
X95831756Y-76610917D01*
X95834399Y-76614873D01*
X96043737Y-76688381D01*
X96832118Y-75900000D01*
X96967882Y-75900000D01*
X97756263Y-76688381D01*
X97965601Y-76614873D01*
X98084591Y-76393248D01*
X98158057Y-76152668D01*
X98183177Y-75902379D01*
X98158985Y-75651998D01*
X98086411Y-75411147D01*
X97968244Y-75189083D01*
X97965601Y-75185127D01*
X97756263Y-75111619D01*
X96967882Y-75900000D01*
X96832118Y-75900000D01*
X96043737Y-75111619D01*
X95834399Y-75185127D01*
X95715409Y-75406752D01*
X95641943Y-75647332D01*
X95616823Y-75897621D01*
X91580734Y-75897621D01*
X93068355Y-74410000D01*
X95880604Y-74410000D01*
X95985241Y-74514637D01*
X96220273Y-74671680D01*
X96371887Y-74734480D01*
X96189083Y-74831756D01*
X96185127Y-74834399D01*
X96111619Y-75043737D01*
X96900000Y-75832118D01*
X97688381Y-75043737D01*
X97614873Y-74834399D01*
X97428484Y-74734327D01*
X97579727Y-74671680D01*
X97814759Y-74514637D01*
X97919396Y-74410000D01*
X99640001Y-74410000D01*
X99640001Y-75150383D01*
X99635114Y-75200000D01*
X99654615Y-75397994D01*
X99712368Y-75588379D01*
X99712369Y-75588380D01*
X99806154Y-75763840D01*
X99932368Y-75917633D01*
X99970901Y-75949256D01*
X101800743Y-77779099D01*
X101832367Y-77817633D01*
X101986160Y-77943847D01*
X102068754Y-77987994D01*
X102161620Y-78037632D01*
X102352005Y-78095385D01*
X102550000Y-78114886D01*
X102599608Y-78110000D01*
X117081645Y-78110000D01*
X119950000Y-80978356D01*
X119950001Y-83430603D01*
X119845363Y-83535241D01*
X119688320Y-83770273D01*
X119580147Y-84031426D01*
X119525000Y-84308665D01*
X119525000Y-84591335D01*
X119580147Y-84868574D01*
X119688320Y-85129727D01*
X119845363Y-85364759D01*
X120045241Y-85564637D01*
X120280273Y-85721680D01*
X120541426Y-85829853D01*
X120818665Y-85885000D01*
X121101335Y-85885000D01*
X121378574Y-85829853D01*
X121639727Y-85721680D01*
X121874759Y-85564637D01*
X122074637Y-85364759D01*
X122231680Y-85129727D01*
X122339853Y-84868574D01*
X122395000Y-84591335D01*
X122395000Y-84308665D01*
X122339853Y-84031426D01*
X122231680Y-83770273D01*
X122074637Y-83535241D01*
X121970000Y-83430604D01*
X121970000Y-80609608D01*
X121974886Y-80560000D01*
X121955385Y-80362005D01*
X121897632Y-80171620D01*
X121884903Y-80147805D01*
X121803847Y-79996160D01*
X121677633Y-79842367D01*
X121639100Y-79810744D01*
X118249261Y-76420906D01*
X118217633Y-76382367D01*
X118063840Y-76256153D01*
X117888380Y-76162368D01*
X117697994Y-76104615D01*
X117549608Y-76090000D01*
X117500000Y-76085114D01*
X117450392Y-76090000D01*
X102968356Y-76090000D01*
X101660000Y-74781645D01*
X101660000Y-74399396D01*
X101764637Y-74294759D01*
X101920000Y-74062241D01*
X102075363Y-74294759D01*
X102275241Y-74494637D01*
X102510273Y-74651680D01*
X102771426Y-74759853D01*
X103048665Y-74815000D01*
X103331335Y-74815000D01*
X103608574Y-74759853D01*
X103869727Y-74651680D01*
X104104759Y-74494637D01*
X104304637Y-74294759D01*
X104460000Y-74062241D01*
X104615363Y-74294759D01*
X104815241Y-74494637D01*
X105050273Y-74651680D01*
X105311426Y-74759853D01*
X105588665Y-74815000D01*
X105871335Y-74815000D01*
X105906439Y-74808017D01*
X106893470Y-75795049D01*
X106921183Y-75828817D01*
X106954951Y-75856530D01*
X106954953Y-75856532D01*
X107055941Y-75939411D01*
X107209686Y-76021589D01*
X107376510Y-76072195D01*
X107506523Y-76085000D01*
X107506531Y-76085000D01*
X107550000Y-76089281D01*
X107593469Y-76085000D01*
X114026531Y-76085000D01*
X114070000Y-76089281D01*
X114113469Y-76085000D01*
X114113477Y-76085000D01*
X114243490Y-76072195D01*
X114410313Y-76021589D01*
X114564059Y-75939411D01*
X114698817Y-75828817D01*
X114726534Y-75795044D01*
X115713561Y-74808017D01*
X115748665Y-74815000D01*
X116031335Y-74815000D01*
X116308574Y-74759853D01*
X116569727Y-74651680D01*
X116804759Y-74494637D01*
X117004637Y-74294759D01*
X117161680Y-74059727D01*
X117269853Y-73798574D01*
X117325000Y-73521335D01*
X117325000Y-73238665D01*
X117269853Y-72961426D01*
X117161680Y-72700273D01*
X117004637Y-72465241D01*
X116804759Y-72265363D01*
X116569727Y-72108320D01*
X116308574Y-72000147D01*
X116031335Y-71945000D01*
X115748665Y-71945000D01*
X115471426Y-72000147D01*
X115210273Y-72108320D01*
X114975241Y-72265363D01*
X114775363Y-72465241D01*
X114620000Y-72697759D01*
X114464637Y-72465241D01*
X114264759Y-72265363D01*
X114235000Y-72245479D01*
X114235000Y-71593469D01*
X114239281Y-71550000D01*
X114235000Y-71506531D01*
X114235000Y-71506523D01*
X114222195Y-71376510D01*
X114171589Y-71209687D01*
X114089411Y-71055941D01*
X113978817Y-70921183D01*
X113945050Y-70893471D01*
X111956534Y-68904956D01*
X111928817Y-68871183D01*
X111794059Y-68760589D01*
X111671513Y-68695087D01*
X111724486Y-68651465D01*
X111882974Y-68457687D01*
X112000612Y-68236713D01*
X112003881Y-68225872D01*
X112088320Y-68429727D01*
X112245363Y-68664759D01*
X112445241Y-68864637D01*
X112680273Y-69021680D01*
X112941426Y-69129853D01*
X113218665Y-69185000D01*
X113501335Y-69185000D01*
X113778574Y-69129853D01*
X114039727Y-69021680D01*
X114274759Y-68864637D01*
X114474637Y-68664759D01*
X114631680Y-68429727D01*
X114716119Y-68225872D01*
X114719388Y-68236713D01*
X114837026Y-68457687D01*
X114995514Y-68651465D01*
X115188761Y-68810600D01*
X115409340Y-68928977D01*
X115648775Y-69002046D01*
X115652965Y-69002878D01*
X115852000Y-68906755D01*
X115852000Y-67798000D01*
X115948000Y-67798000D01*
X115948000Y-68906755D01*
X116147035Y-69002878D01*
X116151225Y-69002046D01*
X116390660Y-68928977D01*
X116611239Y-68810600D01*
X116804486Y-68651465D01*
X116962974Y-68457687D01*
X117080612Y-68236713D01*
X117152880Y-67997035D01*
X117187120Y-67997035D01*
X117259388Y-68236713D01*
X117377026Y-68457687D01*
X117535514Y-68651465D01*
X117728761Y-68810600D01*
X117949340Y-68928977D01*
X118188775Y-69002046D01*
X118192965Y-69002878D01*
X118392000Y-68906755D01*
X118392000Y-67798000D01*
X118488000Y-67798000D01*
X118488000Y-68906755D01*
X118687035Y-69002878D01*
X118691225Y-69002046D01*
X118930660Y-68928977D01*
X119151239Y-68810600D01*
X119344486Y-68651465D01*
X119502974Y-68457687D01*
X119620612Y-68236713D01*
X119692880Y-67997035D01*
X119596850Y-67798000D01*
X118488000Y-67798000D01*
X118392000Y-67798000D01*
X117283150Y-67798000D01*
X117187120Y-67997035D01*
X117152880Y-67997035D01*
X117056850Y-67798000D01*
X115948000Y-67798000D01*
X115852000Y-67798000D01*
X115832000Y-67798000D01*
X115832000Y-67702000D01*
X115852000Y-67702000D01*
X115852000Y-66593245D01*
X115948000Y-66593245D01*
X115948000Y-67702000D01*
X117056850Y-67702000D01*
X117152880Y-67502965D01*
X117187120Y-67502965D01*
X117283150Y-67702000D01*
X118392000Y-67702000D01*
X118392000Y-66593245D01*
X118488000Y-66593245D01*
X118488000Y-67702000D01*
X119596850Y-67702000D01*
X119692880Y-67502965D01*
X119620612Y-67263287D01*
X119502974Y-67042313D01*
X119344486Y-66848535D01*
X119151239Y-66689400D01*
X118930660Y-66571023D01*
X118691225Y-66497954D01*
X118687035Y-66497122D01*
X118488000Y-66593245D01*
X118392000Y-66593245D01*
X118192965Y-66497122D01*
X118188775Y-66497954D01*
X117949340Y-66571023D01*
X117728761Y-66689400D01*
X117535514Y-66848535D01*
X117377026Y-67042313D01*
X117259388Y-67263287D01*
X117187120Y-67502965D01*
X117152880Y-67502965D01*
X117080612Y-67263287D01*
X116962974Y-67042313D01*
X116804486Y-66848535D01*
X116611239Y-66689400D01*
X116390660Y-66571023D01*
X116151225Y-66497954D01*
X116147035Y-66497122D01*
X115948000Y-66593245D01*
X115852000Y-66593245D01*
X115652965Y-66497122D01*
X115648775Y-66497954D01*
X115409340Y-66571023D01*
X115188761Y-66689400D01*
X114995514Y-66848535D01*
X114837026Y-67042313D01*
X114719388Y-67263287D01*
X114716119Y-67274128D01*
X114631680Y-67070273D01*
X114474637Y-66835241D01*
X114274759Y-66635363D01*
X114039727Y-66478320D01*
X113778574Y-66370147D01*
X113501335Y-66315000D01*
X113218665Y-66315000D01*
X113183561Y-66321983D01*
X112216534Y-65354956D01*
X112188817Y-65321183D01*
X112054059Y-65210589D01*
X111900313Y-65128411D01*
X111733490Y-65077805D01*
X111603477Y-65065000D01*
X111603469Y-65065000D01*
X111560000Y-65060719D01*
X111516531Y-65065000D01*
X107583465Y-65065000D01*
X107539999Y-65060719D01*
X107496533Y-65065000D01*
X107496523Y-65065000D01*
X107366510Y-65077805D01*
X107199687Y-65128411D01*
X107045941Y-65210589D01*
X107045939Y-65210590D01*
X107045940Y-65210590D01*
X106944953Y-65293468D01*
X106944951Y-65293470D01*
X106911183Y-65321183D01*
X106883470Y-65354951D01*
X105916439Y-66321983D01*
X105881335Y-66315000D01*
X105598665Y-66315000D01*
X105321426Y-66370147D01*
X105060273Y-66478320D01*
X104825241Y-66635363D01*
X104626643Y-66833961D01*
X104625812Y-66825518D01*
X104589502Y-66705820D01*
X104530537Y-66595506D01*
X104451185Y-66498815D01*
X104354494Y-66419463D01*
X104244180Y-66360498D01*
X104124482Y-66324188D01*
X104000000Y-66311928D01*
X102400000Y-66311928D01*
X102275518Y-66324188D01*
X102155820Y-66360498D01*
X102045506Y-66419463D01*
X101948815Y-66498815D01*
X101869463Y-66595506D01*
X101810498Y-66705820D01*
X101774188Y-66825518D01*
X101761928Y-66950000D01*
X101761928Y-68550000D01*
X101774188Y-68674482D01*
X101810498Y-68794180D01*
X101869463Y-68904494D01*
X101948815Y-69001185D01*
X102045506Y-69080537D01*
X102155820Y-69139502D01*
X102275518Y-69175812D01*
X102400000Y-69188072D01*
X103286494Y-69188072D01*
X103863421Y-69765000D01*
X101616579Y-69765000D01*
X100135000Y-68283422D01*
X100135000Y-65143465D01*
X100139281Y-65099999D01*
X100135000Y-65056533D01*
X100135000Y-65056523D01*
X100122195Y-64926510D01*
X100071589Y-64759687D01*
X99989411Y-64605941D01*
X99878817Y-64471183D01*
X99845049Y-64443470D01*
X98857842Y-63456263D01*
X99061619Y-63456263D01*
X99135127Y-63665601D01*
X99356752Y-63784591D01*
X99597332Y-63858057D01*
X99847621Y-63883177D01*
X100098002Y-63858985D01*
X100338853Y-63786411D01*
X100560917Y-63668244D01*
X100564873Y-63665601D01*
X100638381Y-63456263D01*
X99850000Y-62667882D01*
X99061619Y-63456263D01*
X98857842Y-63456263D01*
X97999200Y-62597621D01*
X98566823Y-62597621D01*
X98591015Y-62848002D01*
X98663589Y-63088853D01*
X98781756Y-63310917D01*
X98784399Y-63314873D01*
X98993737Y-63388381D01*
X99782118Y-62600000D01*
X99917882Y-62600000D01*
X100706263Y-63388381D01*
X100915601Y-63314873D01*
X101034591Y-63093248D01*
X101108057Y-62852668D01*
X101133177Y-62602379D01*
X101108985Y-62351998D01*
X101036411Y-62111147D01*
X100918244Y-61889083D01*
X100915601Y-61885127D01*
X100706263Y-61811619D01*
X99917882Y-62600000D01*
X99782118Y-62600000D01*
X98993737Y-61811619D01*
X98784399Y-61885127D01*
X98665409Y-62106752D01*
X98591943Y-62347332D01*
X98566823Y-62597621D01*
X97999200Y-62597621D01*
X97516534Y-62114956D01*
X97488817Y-62081183D01*
X97354059Y-61970589D01*
X97200313Y-61888411D01*
X97033490Y-61837805D01*
X96903477Y-61825000D01*
X96903469Y-61825000D01*
X96860000Y-61820719D01*
X96816531Y-61825000D01*
X94834521Y-61825000D01*
X94814637Y-61795241D01*
X94614759Y-61595363D01*
X94379727Y-61438320D01*
X94118574Y-61330147D01*
X93841335Y-61275000D01*
X93558665Y-61275000D01*
X93281426Y-61330147D01*
X93020273Y-61438320D01*
X92785241Y-61595363D01*
X92585363Y-61795241D01*
X92428320Y-62030273D01*
X92320147Y-62291426D01*
X92265000Y-62568665D01*
X92265000Y-62851335D01*
X92320147Y-63128574D01*
X92428320Y-63389727D01*
X92585363Y-63624759D01*
X92785241Y-63824637D01*
X93020273Y-63981680D01*
X93281426Y-64089853D01*
X93558665Y-64145000D01*
X93841335Y-64145000D01*
X94118574Y-64089853D01*
X94379727Y-63981680D01*
X94614759Y-63824637D01*
X94814637Y-63624759D01*
X94834521Y-63595000D01*
X96493422Y-63595000D01*
X98365001Y-65466580D01*
X98365000Y-68606531D01*
X98360719Y-68650000D01*
X98365000Y-68693469D01*
X98365000Y-68693476D01*
X98371610Y-68760589D01*
X98377805Y-68823490D01*
X98390287Y-68864637D01*
X98428411Y-68990312D01*
X98510589Y-69144058D01*
X98621183Y-69278817D01*
X98654956Y-69306534D01*
X100163421Y-70815000D01*
X91083469Y-70815000D01*
X91040000Y-70810719D01*
X90996531Y-70815000D01*
X90996523Y-70815000D01*
X90866510Y-70827805D01*
X90699686Y-70878411D01*
X90545941Y-70960589D01*
X90444953Y-71043468D01*
X90444951Y-71043470D01*
X90411183Y-71071183D01*
X90383470Y-71104951D01*
X89476439Y-72011983D01*
X89441335Y-72005000D01*
X89158665Y-72005000D01*
X88881426Y-72060147D01*
X88620273Y-72168320D01*
X88385241Y-72325363D01*
X88185363Y-72525241D01*
X88028320Y-72760273D01*
X87920147Y-73021426D01*
X87865000Y-73298665D01*
X87865000Y-73581335D01*
X87903564Y-73775209D01*
X87585000Y-73456645D01*
X87585000Y-73308665D01*
X87529853Y-73031426D01*
X87421680Y-72770273D01*
X87264637Y-72535241D01*
X87160000Y-72430604D01*
X87160000Y-70156263D01*
X93511619Y-70156263D01*
X93585127Y-70365601D01*
X93806752Y-70484591D01*
X94047332Y-70558057D01*
X94297621Y-70583177D01*
X94548002Y-70558985D01*
X94788853Y-70486411D01*
X95010917Y-70368244D01*
X95014873Y-70365601D01*
X95088381Y-70156263D01*
X94300000Y-69367882D01*
X93511619Y-70156263D01*
X87160000Y-70156263D01*
X87160000Y-69618355D01*
X87319094Y-69459261D01*
X87357633Y-69427633D01*
X87464330Y-69297621D01*
X93016823Y-69297621D01*
X93041015Y-69548002D01*
X93113589Y-69788853D01*
X93231756Y-70010917D01*
X93234399Y-70014873D01*
X93443737Y-70088381D01*
X94232118Y-69300000D01*
X94367882Y-69300000D01*
X95156263Y-70088381D01*
X95365601Y-70014873D01*
X95465673Y-69828484D01*
X95528320Y-69979727D01*
X95685363Y-70214759D01*
X95885241Y-70414637D01*
X96120273Y-70571680D01*
X96381426Y-70679853D01*
X96658665Y-70735000D01*
X96941335Y-70735000D01*
X97218574Y-70679853D01*
X97479727Y-70571680D01*
X97714759Y-70414637D01*
X97914637Y-70214759D01*
X98071680Y-69979727D01*
X98179853Y-69718574D01*
X98235000Y-69441335D01*
X98235000Y-69158665D01*
X98179853Y-68881426D01*
X98071680Y-68620273D01*
X97914637Y-68385241D01*
X97714759Y-68185363D01*
X97685000Y-68165479D01*
X97685000Y-67184521D01*
X97714759Y-67164637D01*
X97914637Y-66964759D01*
X98071680Y-66729727D01*
X98179853Y-66468574D01*
X98235000Y-66191335D01*
X98235000Y-65908665D01*
X98179853Y-65631426D01*
X98071680Y-65370273D01*
X97914637Y-65135241D01*
X97714759Y-64935363D01*
X97479727Y-64778320D01*
X97218574Y-64670147D01*
X96941335Y-64615000D01*
X96658665Y-64615000D01*
X96381426Y-64670147D01*
X96120273Y-64778320D01*
X95885241Y-64935363D01*
X95685363Y-65135241D01*
X95528320Y-65370273D01*
X95420147Y-65631426D01*
X95365000Y-65908665D01*
X95365000Y-66191335D01*
X95420147Y-66468574D01*
X95528320Y-66729727D01*
X95685363Y-66964759D01*
X95885241Y-67164637D01*
X95915001Y-67184522D01*
X95915000Y-68165478D01*
X95885241Y-68185363D01*
X95685363Y-68385241D01*
X95528320Y-68620273D01*
X95465520Y-68771887D01*
X95368244Y-68589083D01*
X95365601Y-68585127D01*
X95156263Y-68511619D01*
X94367882Y-69300000D01*
X94232118Y-69300000D01*
X93443737Y-68511619D01*
X93234399Y-68585127D01*
X93115409Y-68806752D01*
X93041943Y-69047332D01*
X93016823Y-69297621D01*
X87464330Y-69297621D01*
X87483847Y-69273840D01*
X87577632Y-69098380D01*
X87605673Y-69005941D01*
X87635385Y-68907995D01*
X87654886Y-68710000D01*
X87650000Y-68660392D01*
X87650000Y-68443737D01*
X93511619Y-68443737D01*
X94300000Y-69232118D01*
X95088381Y-68443737D01*
X95014873Y-68234399D01*
X94793248Y-68115409D01*
X94552668Y-68041943D01*
X94302379Y-68016823D01*
X94051998Y-68041015D01*
X93811147Y-68113589D01*
X93589083Y-68231756D01*
X93585127Y-68234399D01*
X93511619Y-68443737D01*
X87650000Y-68443737D01*
X87650000Y-67069396D01*
X87754637Y-66964759D01*
X87911680Y-66729727D01*
X88019853Y-66468574D01*
X88075000Y-66191335D01*
X88075000Y-65908665D01*
X88019853Y-65631426D01*
X87911680Y-65370273D01*
X87754637Y-65135241D01*
X87650000Y-65030604D01*
X87650000Y-64428355D01*
X88358356Y-63720000D01*
X89480604Y-63720000D01*
X89585241Y-63824637D01*
X89820273Y-63981680D01*
X90081426Y-64089853D01*
X90358665Y-64145000D01*
X90641335Y-64145000D01*
X90918574Y-64089853D01*
X91179727Y-63981680D01*
X91414759Y-63824637D01*
X91614637Y-63624759D01*
X91771680Y-63389727D01*
X91879853Y-63128574D01*
X91935000Y-62851335D01*
X91935000Y-62568665D01*
X91879853Y-62291426D01*
X91771680Y-62030273D01*
X91614637Y-61795241D01*
X91510000Y-61690604D01*
X91510000Y-60068355D01*
X95068355Y-56510000D01*
X101630604Y-56510000D01*
X101640001Y-56519397D01*
X101640001Y-56900383D01*
X101635114Y-56950000D01*
X101654615Y-57147994D01*
X101712368Y-57338379D01*
X101712369Y-57338380D01*
X101806154Y-57513840D01*
X101932368Y-57667633D01*
X101970901Y-57699256D01*
X102190000Y-57918355D01*
X102190001Y-59110603D01*
X102180604Y-59120000D01*
X100899396Y-59120000D01*
X100764759Y-58985363D01*
X100529727Y-58828320D01*
X100268574Y-58720147D01*
X99991335Y-58665000D01*
X99708665Y-58665000D01*
X99431426Y-58720147D01*
X99170273Y-58828320D01*
X98935241Y-58985363D01*
X98735363Y-59185241D01*
X98578320Y-59420273D01*
X98470147Y-59681426D01*
X98415000Y-59958665D01*
X98415000Y-60241335D01*
X98470147Y-60518574D01*
X98578320Y-60779727D01*
X98735363Y-61014759D01*
X98935241Y-61214637D01*
X99170273Y-61371680D01*
X99321887Y-61434480D01*
X99139083Y-61531756D01*
X99135127Y-61534399D01*
X99061619Y-61743737D01*
X99850000Y-62532118D01*
X100638381Y-61743737D01*
X100564873Y-61534399D01*
X100378484Y-61434327D01*
X100529727Y-61371680D01*
X100764759Y-61214637D01*
X100839396Y-61140000D01*
X102180604Y-61140000D01*
X102285241Y-61244637D01*
X102520273Y-61401680D01*
X102781426Y-61509853D01*
X103058665Y-61565000D01*
X103341335Y-61565000D01*
X103618574Y-61509853D01*
X103879727Y-61401680D01*
X104114759Y-61244637D01*
X104314637Y-61044759D01*
X104470000Y-60812241D01*
X104625363Y-61044759D01*
X104825241Y-61244637D01*
X105060273Y-61401680D01*
X105321426Y-61509853D01*
X105598665Y-61565000D01*
X105881335Y-61565000D01*
X106158574Y-61509853D01*
X106419727Y-61401680D01*
X106654759Y-61244637D01*
X106854637Y-61044759D01*
X107010000Y-60812241D01*
X107165363Y-61044759D01*
X107365241Y-61244637D01*
X107600273Y-61401680D01*
X107861426Y-61509853D01*
X108138665Y-61565000D01*
X108421335Y-61565000D01*
X108698574Y-61509853D01*
X108959727Y-61401680D01*
X109194759Y-61244637D01*
X109394637Y-61044759D01*
X109551680Y-60809727D01*
X109636119Y-60605872D01*
X109639388Y-60616713D01*
X109757026Y-60837687D01*
X109915514Y-61031465D01*
X110108761Y-61190600D01*
X110329340Y-61308977D01*
X110568775Y-61382046D01*
X110572965Y-61382878D01*
X110772000Y-61286755D01*
X110772000Y-60178000D01*
X110868000Y-60178000D01*
X110868000Y-61286755D01*
X111067035Y-61382878D01*
X111071225Y-61382046D01*
X111310660Y-61308977D01*
X111531239Y-61190600D01*
X111724486Y-61031465D01*
X111882974Y-60837687D01*
X112000612Y-60616713D01*
X112072880Y-60377035D01*
X112107120Y-60377035D01*
X112179388Y-60616713D01*
X112297026Y-60837687D01*
X112455514Y-61031465D01*
X112648761Y-61190600D01*
X112869340Y-61308977D01*
X113108775Y-61382046D01*
X113112965Y-61382878D01*
X113312000Y-61286755D01*
X113312000Y-60178000D01*
X113408000Y-60178000D01*
X113408000Y-61286755D01*
X113607035Y-61382878D01*
X113611225Y-61382046D01*
X113850660Y-61308977D01*
X114071239Y-61190600D01*
X114264486Y-61031465D01*
X114422974Y-60837687D01*
X114540612Y-60616713D01*
X114612880Y-60377035D01*
X114647120Y-60377035D01*
X114719388Y-60616713D01*
X114837026Y-60837687D01*
X114995514Y-61031465D01*
X115188761Y-61190600D01*
X115409340Y-61308977D01*
X115648775Y-61382046D01*
X115652965Y-61382878D01*
X115852000Y-61286755D01*
X115852000Y-60178000D01*
X115948000Y-60178000D01*
X115948000Y-61286755D01*
X116147035Y-61382878D01*
X116151225Y-61382046D01*
X116390660Y-61308977D01*
X116611239Y-61190600D01*
X116804486Y-61031465D01*
X116962974Y-60837687D01*
X117080612Y-60616713D01*
X117152880Y-60377035D01*
X117187120Y-60377035D01*
X117259388Y-60616713D01*
X117377026Y-60837687D01*
X117535514Y-61031465D01*
X117728761Y-61190600D01*
X117949340Y-61308977D01*
X118188775Y-61382046D01*
X118192965Y-61382878D01*
X118392000Y-61286755D01*
X118392000Y-60178000D01*
X118488000Y-60178000D01*
X118488000Y-61286755D01*
X118687035Y-61382878D01*
X118691225Y-61382046D01*
X118930660Y-61308977D01*
X119151239Y-61190600D01*
X119344486Y-61031465D01*
X119502974Y-60837687D01*
X119620612Y-60616713D01*
X119692880Y-60377035D01*
X119596850Y-60178000D01*
X118488000Y-60178000D01*
X118392000Y-60178000D01*
X117283150Y-60178000D01*
X117187120Y-60377035D01*
X117152880Y-60377035D01*
X117056850Y-60178000D01*
X115948000Y-60178000D01*
X115852000Y-60178000D01*
X114743150Y-60178000D01*
X114647120Y-60377035D01*
X114612880Y-60377035D01*
X114516850Y-60178000D01*
X113408000Y-60178000D01*
X113312000Y-60178000D01*
X112203150Y-60178000D01*
X112107120Y-60377035D01*
X112072880Y-60377035D01*
X111976850Y-60178000D01*
X110868000Y-60178000D01*
X110772000Y-60178000D01*
X110752000Y-60178000D01*
X110752000Y-60082000D01*
X110772000Y-60082000D01*
X110772000Y-58973245D01*
X110868000Y-58973245D01*
X110868000Y-60082000D01*
X111976850Y-60082000D01*
X112072880Y-59882965D01*
X112107120Y-59882965D01*
X112203150Y-60082000D01*
X113312000Y-60082000D01*
X113312000Y-58973245D01*
X113408000Y-58973245D01*
X113408000Y-60082000D01*
X114516850Y-60082000D01*
X114612880Y-59882965D01*
X114647120Y-59882965D01*
X114743150Y-60082000D01*
X115852000Y-60082000D01*
X115852000Y-58973245D01*
X115948000Y-58973245D01*
X115948000Y-60082000D01*
X117056850Y-60082000D01*
X117152880Y-59882965D01*
X117187120Y-59882965D01*
X117283150Y-60082000D01*
X118392000Y-60082000D01*
X118392000Y-58973245D01*
X118488000Y-58973245D01*
X118488000Y-60082000D01*
X119596850Y-60082000D01*
X119692880Y-59882965D01*
X119620612Y-59643287D01*
X119502974Y-59422313D01*
X119344486Y-59228535D01*
X119151239Y-59069400D01*
X118930660Y-58951023D01*
X118691225Y-58877954D01*
X118687035Y-58877122D01*
X118488000Y-58973245D01*
X118392000Y-58973245D01*
X118192965Y-58877122D01*
X118188775Y-58877954D01*
X117949340Y-58951023D01*
X117728761Y-59069400D01*
X117535514Y-59228535D01*
X117377026Y-59422313D01*
X117259388Y-59643287D01*
X117187120Y-59882965D01*
X117152880Y-59882965D01*
X117080612Y-59643287D01*
X116962974Y-59422313D01*
X116804486Y-59228535D01*
X116611239Y-59069400D01*
X116390660Y-58951023D01*
X116151225Y-58877954D01*
X116147035Y-58877122D01*
X115948000Y-58973245D01*
X115852000Y-58973245D01*
X115652965Y-58877122D01*
X115648775Y-58877954D01*
X115409340Y-58951023D01*
X115188761Y-59069400D01*
X114995514Y-59228535D01*
X114837026Y-59422313D01*
X114719388Y-59643287D01*
X114647120Y-59882965D01*
X114612880Y-59882965D01*
X114540612Y-59643287D01*
X114422974Y-59422313D01*
X114264486Y-59228535D01*
X114071239Y-59069400D01*
X113850660Y-58951023D01*
X113611225Y-58877954D01*
X113607035Y-58877122D01*
X113408000Y-58973245D01*
X113312000Y-58973245D01*
X113112965Y-58877122D01*
X113108775Y-58877954D01*
X112869340Y-58951023D01*
X112648761Y-59069400D01*
X112455514Y-59228535D01*
X112297026Y-59422313D01*
X112179388Y-59643287D01*
X112107120Y-59882965D01*
X112072880Y-59882965D01*
X112000612Y-59643287D01*
X111882974Y-59422313D01*
X111724486Y-59228535D01*
X111531239Y-59069400D01*
X111310660Y-58951023D01*
X111071225Y-58877954D01*
X111067035Y-58877122D01*
X110868000Y-58973245D01*
X110772000Y-58973245D01*
X110572965Y-58877122D01*
X110568775Y-58877954D01*
X110329340Y-58951023D01*
X110108761Y-59069400D01*
X109915514Y-59228535D01*
X109757026Y-59422313D01*
X109639388Y-59643287D01*
X109636119Y-59654128D01*
X109551680Y-59450273D01*
X109394637Y-59215241D01*
X109194759Y-59015363D01*
X108959727Y-58858320D01*
X108698574Y-58750147D01*
X108421335Y-58695000D01*
X108138665Y-58695000D01*
X107861426Y-58750147D01*
X107600273Y-58858320D01*
X107365241Y-59015363D01*
X107165363Y-59215241D01*
X107010000Y-59447759D01*
X106854637Y-59215241D01*
X106654759Y-59015363D01*
X106419727Y-58858320D01*
X106158574Y-58750147D01*
X105881335Y-58695000D01*
X105598665Y-58695000D01*
X105321426Y-58750147D01*
X105060273Y-58858320D01*
X104825241Y-59015363D01*
X104625363Y-59215241D01*
X104470000Y-59447759D01*
X104314637Y-59215241D01*
X104210000Y-59110604D01*
X104210000Y-57549597D01*
X104214885Y-57499999D01*
X104210000Y-57450401D01*
X104210000Y-57450392D01*
X104195385Y-57302006D01*
X104137632Y-57111620D01*
X104043847Y-56936160D01*
X103917633Y-56782367D01*
X103879094Y-56750739D01*
X103660000Y-56531645D01*
X103660000Y-56519396D01*
X103764637Y-56414759D01*
X103921680Y-56179727D01*
X104029853Y-55918574D01*
X104085000Y-55641335D01*
X104085000Y-55358665D01*
X111375000Y-55358665D01*
X111375000Y-55641335D01*
X111430147Y-55918574D01*
X111538320Y-56179727D01*
X111695363Y-56414759D01*
X111895241Y-56614637D01*
X112130273Y-56771680D01*
X112391426Y-56879853D01*
X112668665Y-56935000D01*
X112951335Y-56935000D01*
X113228574Y-56879853D01*
X113489727Y-56771680D01*
X113724759Y-56614637D01*
X113924637Y-56414759D01*
X113944521Y-56385000D01*
X114645210Y-56385000D01*
X114707688Y-56478505D01*
X114921495Y-56692312D01*
X115172905Y-56860299D01*
X115452257Y-56976011D01*
X115748816Y-57035000D01*
X116051184Y-57035000D01*
X116347743Y-56976011D01*
X116627095Y-56860299D01*
X116878505Y-56692312D01*
X117071626Y-56499191D01*
X117097177Y-56583423D01*
X117141470Y-56666289D01*
X117201078Y-56738922D01*
X117273711Y-56798530D01*
X117356577Y-56842823D01*
X117446492Y-56870098D01*
X117540000Y-56879308D01*
X118272750Y-56877000D01*
X118392000Y-56757750D01*
X118392000Y-55548000D01*
X118488000Y-55548000D01*
X118488000Y-56757750D01*
X118607250Y-56877000D01*
X119340000Y-56879308D01*
X119433508Y-56870098D01*
X119523423Y-56842823D01*
X119606289Y-56798530D01*
X119678922Y-56738922D01*
X119738530Y-56666289D01*
X119782823Y-56583423D01*
X119810098Y-56493508D01*
X119819308Y-56400000D01*
X119817000Y-55667250D01*
X119697750Y-55548000D01*
X118488000Y-55548000D01*
X118392000Y-55548000D01*
X118372000Y-55548000D01*
X118372000Y-55452000D01*
X118392000Y-55452000D01*
X118392000Y-54242250D01*
X118488000Y-54242250D01*
X118488000Y-55452000D01*
X119697750Y-55452000D01*
X119817000Y-55332750D01*
X119819308Y-54600000D01*
X119810098Y-54506492D01*
X119782823Y-54416577D01*
X119738530Y-54333711D01*
X119678922Y-54261078D01*
X119606289Y-54201470D01*
X119523423Y-54157177D01*
X119433508Y-54129902D01*
X119340000Y-54120692D01*
X118607250Y-54123000D01*
X118488000Y-54242250D01*
X118392000Y-54242250D01*
X118272750Y-54123000D01*
X117540000Y-54120692D01*
X117446492Y-54129902D01*
X117356577Y-54157177D01*
X117273711Y-54201470D01*
X117201078Y-54261078D01*
X117141470Y-54333711D01*
X117097177Y-54416577D01*
X117071626Y-54500809D01*
X116878505Y-54307688D01*
X116627095Y-54139701D01*
X116347743Y-54023989D01*
X116051184Y-53965000D01*
X115748816Y-53965000D01*
X115452257Y-54023989D01*
X115172905Y-54139701D01*
X114921495Y-54307688D01*
X114707688Y-54521495D01*
X114645210Y-54615000D01*
X113944521Y-54615000D01*
X113924637Y-54585241D01*
X113724759Y-54385363D01*
X113489727Y-54228320D01*
X113228574Y-54120147D01*
X112951335Y-54065000D01*
X112668665Y-54065000D01*
X112391426Y-54120147D01*
X112130273Y-54228320D01*
X111895241Y-54385363D01*
X111695363Y-54585241D01*
X111538320Y-54820273D01*
X111430147Y-55081426D01*
X111375000Y-55358665D01*
X104085000Y-55358665D01*
X104029853Y-55081426D01*
X103921680Y-54820273D01*
X103764637Y-54585241D01*
X103660000Y-54480604D01*
X103660000Y-54299604D01*
X103664886Y-54249999D01*
X103660000Y-54200392D01*
X103645385Y-54052006D01*
X103587632Y-53861620D01*
X103493847Y-53686160D01*
X103367633Y-53532367D01*
X103329094Y-53500739D01*
X102356910Y-52528555D01*
X102451185Y-52451185D01*
X102530537Y-52354494D01*
X102589502Y-52244180D01*
X102625812Y-52124482D01*
X102637087Y-52010000D01*
X104500392Y-52010000D01*
X104550000Y-52014886D01*
X104747994Y-51995385D01*
X104938380Y-51937632D01*
X105113840Y-51843847D01*
X105267633Y-51717633D01*
X105299261Y-51679095D01*
X105818356Y-51160000D01*
X106751928Y-51160000D01*
X106751928Y-51250000D01*
X106764188Y-51374482D01*
X106800498Y-51494180D01*
X106859463Y-51604494D01*
X106938815Y-51701185D01*
X107035506Y-51780537D01*
X107145820Y-51839502D01*
X107265518Y-51875812D01*
X107390000Y-51888072D01*
X109590000Y-51888072D01*
X109714482Y-51875812D01*
X109834180Y-51839502D01*
X109944494Y-51780537D01*
X110041185Y-51701185D01*
X110120537Y-51604494D01*
X110179502Y-51494180D01*
X110215812Y-51374482D01*
X110228072Y-51250000D01*
X110228072Y-49050000D01*
X110215812Y-48925518D01*
X110179502Y-48805820D01*
X110120537Y-48695506D01*
X110041185Y-48598815D01*
X109944494Y-48519463D01*
X109834180Y-48460498D01*
X109714482Y-48424188D01*
X109590000Y-48411928D01*
X107390000Y-48411928D01*
X107265518Y-48424188D01*
X107145820Y-48460498D01*
X107035506Y-48519463D01*
X106938815Y-48598815D01*
X106859463Y-48695506D01*
X106800498Y-48805820D01*
X106764188Y-48925518D01*
X106751928Y-49050000D01*
X106751928Y-49140000D01*
X105449608Y-49140000D01*
X105400000Y-49135114D01*
X105202005Y-49154615D01*
X105155989Y-49168574D01*
X105011620Y-49212368D01*
X104836160Y-49306153D01*
X104682367Y-49432367D01*
X104650743Y-49470901D01*
X104131645Y-49990000D01*
X102637087Y-49990000D01*
X102625812Y-49875518D01*
X102589502Y-49755820D01*
X102530537Y-49645506D01*
X102451185Y-49548815D01*
X102354494Y-49469463D01*
X102244180Y-49410498D01*
X102124482Y-49374188D01*
X102000000Y-49361928D01*
X100000000Y-49361928D01*
X99875518Y-49374188D01*
X99755820Y-49410498D01*
X99645506Y-49469463D01*
X99548815Y-49548815D01*
X99469463Y-49645506D01*
X99410498Y-49755820D01*
X99374188Y-49875518D01*
X99362913Y-49990000D01*
X98368356Y-49990000D01*
X96449261Y-48070906D01*
X96417633Y-48032367D01*
X96263840Y-47906153D01*
X96088380Y-47812368D01*
X95897994Y-47754615D01*
X95749608Y-47740000D01*
X95700000Y-47735114D01*
X95650392Y-47740000D01*
X94371046Y-47740000D01*
X94320537Y-47645506D01*
X94241185Y-47548815D01*
X94144494Y-47469463D01*
X94034180Y-47410498D01*
X93914482Y-47374188D01*
X93790000Y-47361928D01*
X93677000Y-47361928D01*
X93677000Y-46998472D01*
X100069410Y-46998472D01*
X100166929Y-47228285D01*
X100422563Y-47367209D01*
X100700388Y-47453591D01*
X100989726Y-47484112D01*
X101279459Y-47457600D01*
X101558453Y-47375072D01*
X101815986Y-47239702D01*
X101833071Y-47228285D01*
X101930590Y-46998472D01*
X101000000Y-46067882D01*
X100069410Y-46998472D01*
X93677000Y-46998472D01*
X93677000Y-45989726D01*
X99515888Y-45989726D01*
X99542400Y-46279459D01*
X99624928Y-46558453D01*
X99760298Y-46815986D01*
X99771715Y-46833071D01*
X100001528Y-46930590D01*
X100932118Y-46000000D01*
X101067882Y-46000000D01*
X101998472Y-46930590D01*
X102228285Y-46833071D01*
X102367209Y-46577437D01*
X102453591Y-46299612D01*
X102484112Y-46010274D01*
X102464322Y-45793992D01*
X109480646Y-45793992D01*
X109486074Y-45821300D01*
X109578423Y-46116331D01*
X109726555Y-46387677D01*
X109924778Y-46624910D01*
X110165474Y-46818913D01*
X110439393Y-46962231D01*
X110736008Y-47049356D01*
X110982000Y-46957021D01*
X110982000Y-45548000D01*
X111078000Y-45548000D01*
X111078000Y-46957021D01*
X111323992Y-47049356D01*
X111620607Y-46962231D01*
X111894526Y-46818913D01*
X112135222Y-46624910D01*
X112333445Y-46387677D01*
X112481577Y-46116331D01*
X112573926Y-45821300D01*
X112579354Y-45793992D01*
X112486960Y-45548000D01*
X111078000Y-45548000D01*
X110982000Y-45548000D01*
X109573040Y-45548000D01*
X109480646Y-45793992D01*
X102464322Y-45793992D01*
X102457600Y-45720541D01*
X102375072Y-45441547D01*
X102251263Y-45206008D01*
X109480646Y-45206008D01*
X109573040Y-45452000D01*
X110982000Y-45452000D01*
X110982000Y-44042979D01*
X111078000Y-44042979D01*
X111078000Y-45452000D01*
X112486960Y-45452000D01*
X112579354Y-45206008D01*
X112573926Y-45178700D01*
X112481577Y-44883669D01*
X112333445Y-44612323D01*
X112135222Y-44375090D01*
X111894526Y-44181087D01*
X111620607Y-44037769D01*
X111323992Y-43950644D01*
X111078000Y-44042979D01*
X110982000Y-44042979D01*
X110736008Y-43950644D01*
X110439393Y-44037769D01*
X110165474Y-44181087D01*
X109924778Y-44375090D01*
X109726555Y-44612323D01*
X109578423Y-44883669D01*
X109486074Y-45178700D01*
X109480646Y-45206008D01*
X102251263Y-45206008D01*
X102239702Y-45184014D01*
X102228285Y-45166929D01*
X101998472Y-45069410D01*
X101067882Y-46000000D01*
X100932118Y-46000000D01*
X100001528Y-45069410D01*
X99771715Y-45166929D01*
X99632791Y-45422563D01*
X99546409Y-45700388D01*
X99515888Y-45989726D01*
X93677000Y-45989726D01*
X93677000Y-45206263D01*
X93861619Y-45206263D01*
X93935127Y-45415601D01*
X94156752Y-45534591D01*
X94397332Y-45608057D01*
X94647621Y-45633177D01*
X94898002Y-45608985D01*
X95138853Y-45536411D01*
X95360917Y-45418244D01*
X95364873Y-45415601D01*
X95438381Y-45206263D01*
X94650000Y-44417882D01*
X93861619Y-45206263D01*
X93677000Y-45206263D01*
X93677000Y-45097389D01*
X93793737Y-45138381D01*
X94582118Y-44350000D01*
X94567976Y-44335858D01*
X94635858Y-44267976D01*
X94650000Y-44282118D01*
X94664143Y-44267976D01*
X94732025Y-44335858D01*
X94717882Y-44350000D01*
X95506263Y-45138381D01*
X95715601Y-45064873D01*
X95749610Y-45001528D01*
X100069410Y-45001528D01*
X101000000Y-45932118D01*
X101930590Y-45001528D01*
X101833071Y-44771715D01*
X101577437Y-44632791D01*
X101299612Y-44546409D01*
X101010274Y-44515888D01*
X100720541Y-44542400D01*
X100441547Y-44624928D01*
X100184014Y-44760298D01*
X100166929Y-44771715D01*
X100069410Y-45001528D01*
X95749610Y-45001528D01*
X95834591Y-44843248D01*
X95908057Y-44602668D01*
X95933177Y-44352379D01*
X95908985Y-44101998D01*
X95836411Y-43861147D01*
X95718244Y-43639083D01*
X95715601Y-43635127D01*
X95692457Y-43627000D01*
X120873000Y-43627000D01*
X120873000Y-44490000D01*
G37*
%TD.AperFunction*%
D33*
X110868000Y-67702000D02*
X110888000Y-67702000D01*
X110888000Y-67798000D01*
X110868000Y-67798000D01*
X110868000Y-67818000D01*
X110772000Y-67818000D01*
X110772000Y-67798000D01*
X110752000Y-67798000D01*
X110752000Y-67702000D01*
X110772000Y-67702000D01*
X110772000Y-67682000D01*
X110868000Y-67682000D01*
X110868000Y-67702000D01*
%TA.AperFunction,Conductor*%
D34*
G36*
X110868000Y-67702000D02*
G01*
X110888000Y-67702000D01*
X110888000Y-67798000D01*
X110868000Y-67798000D01*
X110868000Y-67818000D01*
X110772000Y-67818000D01*
X110772000Y-67798000D01*
X110752000Y-67798000D01*
X110752000Y-67702000D01*
X110772000Y-67702000D01*
X110772000Y-67682000D01*
X110868000Y-67682000D01*
X110868000Y-67702000D01*
G37*
%TD.AperFunction*%
%TD*%
D33*
%TO.N,/LIVE_A*%
X63248801Y-43701778D02*
X63099208Y-43781739D01*
X63015525Y-44035920D01*
X63900000Y-44920395D01*
X64784475Y-44035920D01*
X64700792Y-43781739D01*
X64428225Y-43650842D01*
X64335381Y-43627000D01*
X65947394Y-43627000D01*
X67873000Y-45552606D01*
X67873000Y-54947394D01*
X66447394Y-56373000D01*
X44660000Y-56373000D01*
X44660000Y-46164080D01*
X63015525Y-46164080D01*
X63099208Y-46418261D01*
X63371775Y-46549158D01*
X63664642Y-46624365D01*
X63966553Y-46640991D01*
X64265907Y-46598397D01*
X64551199Y-46498222D01*
X64700792Y-46418261D01*
X64784475Y-46164080D01*
X63900000Y-45279605D01*
X63015525Y-46164080D01*
X44660000Y-46164080D01*
X44660000Y-45166553D01*
X62359009Y-45166553D01*
X62401603Y-45465907D01*
X62501778Y-45751199D01*
X62581739Y-45900792D01*
X62835920Y-45984475D01*
X63720395Y-45100000D01*
X64079605Y-45100000D01*
X64964080Y-45984475D01*
X65218261Y-45900792D01*
X65349158Y-45628225D01*
X65424365Y-45335358D01*
X65440991Y-45033447D01*
X65398397Y-44734093D01*
X65298222Y-44448801D01*
X65218261Y-44299208D01*
X64964080Y-44215525D01*
X64079605Y-45100000D01*
X63720395Y-45100000D01*
X62835920Y-44215525D01*
X62581739Y-44299208D01*
X62450842Y-44571775D01*
X62375635Y-44864642D01*
X62359009Y-45166553D01*
X44660000Y-45166553D01*
X44660000Y-43627000D01*
X63461764Y-43627000D01*
X63248801Y-43701778D01*
%TA.AperFunction,Conductor*%
D34*
G36*
X63248801Y-43701778D02*
G01*
X63099208Y-43781739D01*
X63015525Y-44035920D01*
X63900000Y-44920395D01*
X64784475Y-44035920D01*
X64700792Y-43781739D01*
X64428225Y-43650842D01*
X64335381Y-43627000D01*
X65947394Y-43627000D01*
X67873000Y-45552606D01*
X67873000Y-54947394D01*
X66447394Y-56373000D01*
X44660000Y-56373000D01*
X44660000Y-46164080D01*
X63015525Y-46164080D01*
X63099208Y-46418261D01*
X63371775Y-46549158D01*
X63664642Y-46624365D01*
X63966553Y-46640991D01*
X64265907Y-46598397D01*
X64551199Y-46498222D01*
X64700792Y-46418261D01*
X64784475Y-46164080D01*
X63900000Y-45279605D01*
X63015525Y-46164080D01*
X44660000Y-46164080D01*
X44660000Y-45166553D01*
X62359009Y-45166553D01*
X62401603Y-45465907D01*
X62501778Y-45751199D01*
X62581739Y-45900792D01*
X62835920Y-45984475D01*
X63720395Y-45100000D01*
X64079605Y-45100000D01*
X64964080Y-45984475D01*
X65218261Y-45900792D01*
X65349158Y-45628225D01*
X65424365Y-45335358D01*
X65440991Y-45033447D01*
X65398397Y-44734093D01*
X65298222Y-44448801D01*
X65218261Y-44299208D01*
X64964080Y-44215525D01*
X64079605Y-45100000D01*
X63720395Y-45100000D01*
X62835920Y-44215525D01*
X62581739Y-44299208D01*
X62450842Y-44571775D01*
X62375635Y-44864642D01*
X62359009Y-45166553D01*
X44660000Y-45166553D01*
X44660000Y-43627000D01*
X63461764Y-43627000D01*
X63248801Y-43701778D01*
G37*
%TD.AperFunction*%
%TD*%
D33*
%TO.N,/LIVE_B*%
X67873000Y-85552606D02*
X67873000Y-94947394D01*
X66447394Y-96373000D01*
X44660000Y-96373000D01*
X44660000Y-95464080D01*
X64615525Y-95464080D01*
X64699208Y-95718261D01*
X64971775Y-95849158D01*
X65264642Y-95924365D01*
X65566553Y-95940991D01*
X65865907Y-95898397D01*
X66151199Y-95798222D01*
X66300792Y-95718261D01*
X66384475Y-95464080D01*
X65500000Y-94579605D01*
X64615525Y-95464080D01*
X44660000Y-95464080D01*
X44660000Y-94466553D01*
X63959009Y-94466553D01*
X64001603Y-94765907D01*
X64101778Y-95051199D01*
X64181739Y-95200792D01*
X64435920Y-95284475D01*
X65320395Y-94400000D01*
X65679605Y-94400000D01*
X66564080Y-95284475D01*
X66818261Y-95200792D01*
X66949158Y-94928225D01*
X67024365Y-94635358D01*
X67040991Y-94333447D01*
X66998397Y-94034093D01*
X66898222Y-93748801D01*
X66818261Y-93599208D01*
X66564080Y-93515525D01*
X65679605Y-94400000D01*
X65320395Y-94400000D01*
X64435920Y-93515525D01*
X64181739Y-93599208D01*
X64050842Y-93871775D01*
X63975635Y-94164642D01*
X63959009Y-94466553D01*
X44660000Y-94466553D01*
X44660000Y-93335920D01*
X64615525Y-93335920D01*
X65500000Y-94220395D01*
X66384475Y-93335920D01*
X66300792Y-93081739D01*
X66028225Y-92950842D01*
X65735358Y-92875635D01*
X65433447Y-92859009D01*
X65134093Y-92901603D01*
X64848801Y-93001778D01*
X64699208Y-93081739D01*
X64615525Y-93335920D01*
X44660000Y-93335920D01*
X44660000Y-83627000D01*
X65947394Y-83627000D01*
X67873000Y-85552606D01*
%TA.AperFunction,Conductor*%
D34*
G36*
X67873000Y-85552606D02*
G01*
X67873000Y-94947394D01*
X66447394Y-96373000D01*
X44660000Y-96373000D01*
X44660000Y-95464080D01*
X64615525Y-95464080D01*
X64699208Y-95718261D01*
X64971775Y-95849158D01*
X65264642Y-95924365D01*
X65566553Y-95940991D01*
X65865907Y-95898397D01*
X66151199Y-95798222D01*
X66300792Y-95718261D01*
X66384475Y-95464080D01*
X65500000Y-94579605D01*
X64615525Y-95464080D01*
X44660000Y-95464080D01*
X44660000Y-94466553D01*
X63959009Y-94466553D01*
X64001603Y-94765907D01*
X64101778Y-95051199D01*
X64181739Y-95200792D01*
X64435920Y-95284475D01*
X65320395Y-94400000D01*
X65679605Y-94400000D01*
X66564080Y-95284475D01*
X66818261Y-95200792D01*
X66949158Y-94928225D01*
X67024365Y-94635358D01*
X67040991Y-94333447D01*
X66998397Y-94034093D01*
X66898222Y-93748801D01*
X66818261Y-93599208D01*
X66564080Y-93515525D01*
X65679605Y-94400000D01*
X65320395Y-94400000D01*
X64435920Y-93515525D01*
X64181739Y-93599208D01*
X64050842Y-93871775D01*
X63975635Y-94164642D01*
X63959009Y-94466553D01*
X44660000Y-94466553D01*
X44660000Y-93335920D01*
X64615525Y-93335920D01*
X65500000Y-94220395D01*
X66384475Y-93335920D01*
X66300792Y-93081739D01*
X66028225Y-92950842D01*
X65735358Y-92875635D01*
X65433447Y-92859009D01*
X65134093Y-92901603D01*
X64848801Y-93001778D01*
X64699208Y-93081739D01*
X64615525Y-93335920D01*
X44660000Y-93335920D01*
X44660000Y-83627000D01*
X65947394Y-83627000D01*
X67873000Y-85552606D01*
G37*
%TD.AperFunction*%
%TD*%
D33*
%TO.N,/LIVE_OUT*%
X73873000Y-61052606D02*
X73873000Y-68808074D01*
X73868261Y-68799208D01*
X73614080Y-68715525D01*
X72729605Y-69600000D01*
X73614080Y-70484475D01*
X73868261Y-70400792D01*
X73873000Y-70390924D01*
X73873000Y-78447394D01*
X71947394Y-80373000D01*
X71802606Y-80373000D01*
X70339803Y-78910197D01*
X70320557Y-78894403D01*
X70298601Y-78882667D01*
X70274776Y-78875440D01*
X70250000Y-78873000D01*
X44660000Y-78873000D01*
X44660000Y-70664080D01*
X71665525Y-70664080D01*
X71749208Y-70918261D01*
X72021775Y-71049158D01*
X72314642Y-71124365D01*
X72616553Y-71140991D01*
X72915907Y-71098397D01*
X73201199Y-70998222D01*
X73350792Y-70918261D01*
X73434475Y-70664080D01*
X72550000Y-69779605D01*
X71665525Y-70664080D01*
X44660000Y-70664080D01*
X44660000Y-69666553D01*
X71009009Y-69666553D01*
X71051603Y-69965907D01*
X71151778Y-70251199D01*
X71231739Y-70400792D01*
X71485920Y-70484475D01*
X72370395Y-69600000D01*
X71485920Y-68715525D01*
X71231739Y-68799208D01*
X71100842Y-69071775D01*
X71025635Y-69364642D01*
X71009009Y-69666553D01*
X44660000Y-69666553D01*
X44660000Y-68535920D01*
X71665525Y-68535920D01*
X72550000Y-69420395D01*
X73434475Y-68535920D01*
X73350792Y-68281739D01*
X73078225Y-68150842D01*
X72785358Y-68075635D01*
X72483447Y-68059009D01*
X72184093Y-68101603D01*
X71898801Y-68201778D01*
X71749208Y-68281739D01*
X71665525Y-68535920D01*
X44660000Y-68535920D01*
X44660000Y-61127000D01*
X69750000Y-61127000D01*
X69774776Y-61124560D01*
X69798601Y-61117333D01*
X69820557Y-61105597D01*
X69839803Y-61089803D01*
X71302606Y-59627000D01*
X72447394Y-59627000D01*
X73873000Y-61052606D01*
%TA.AperFunction,Conductor*%
D34*
G36*
X73873000Y-61052606D02*
G01*
X73873000Y-68808074D01*
X73868261Y-68799208D01*
X73614080Y-68715525D01*
X72729605Y-69600000D01*
X73614080Y-70484475D01*
X73868261Y-70400792D01*
X73873000Y-70390924D01*
X73873000Y-78447394D01*
X71947394Y-80373000D01*
X71802606Y-80373000D01*
X70339803Y-78910197D01*
X70320557Y-78894403D01*
X70298601Y-78882667D01*
X70274776Y-78875440D01*
X70250000Y-78873000D01*
X44660000Y-78873000D01*
X44660000Y-70664080D01*
X71665525Y-70664080D01*
X71749208Y-70918261D01*
X72021775Y-71049158D01*
X72314642Y-71124365D01*
X72616553Y-71140991D01*
X72915907Y-71098397D01*
X73201199Y-70998222D01*
X73350792Y-70918261D01*
X73434475Y-70664080D01*
X72550000Y-69779605D01*
X71665525Y-70664080D01*
X44660000Y-70664080D01*
X44660000Y-69666553D01*
X71009009Y-69666553D01*
X71051603Y-69965907D01*
X71151778Y-70251199D01*
X71231739Y-70400792D01*
X71485920Y-70484475D01*
X72370395Y-69600000D01*
X71485920Y-68715525D01*
X71231739Y-68799208D01*
X71100842Y-69071775D01*
X71025635Y-69364642D01*
X71009009Y-69666553D01*
X44660000Y-69666553D01*
X44660000Y-68535920D01*
X71665525Y-68535920D01*
X72550000Y-69420395D01*
X73434475Y-68535920D01*
X73350792Y-68281739D01*
X73078225Y-68150842D01*
X72785358Y-68075635D01*
X72483447Y-68059009D01*
X72184093Y-68101603D01*
X71898801Y-68201778D01*
X71749208Y-68281739D01*
X71665525Y-68535920D01*
X44660000Y-68535920D01*
X44660000Y-61127000D01*
X69750000Y-61127000D01*
X69774776Y-61124560D01*
X69798601Y-61117333D01*
X69820557Y-61105597D01*
X69839803Y-61089803D01*
X71302606Y-59627000D01*
X72447394Y-59627000D01*
X73873000Y-61052606D01*
G37*
%TD.AperFunction*%
%TD*%
M02*
