%TF.GenerationSoftware,KiCad,Pcbnew,5.1.10-88a1d61d58~90~ubuntu20.04.1*%
%TF.CreationDate,2021-12-10T22:24:31-05:00*%
%TF.ProjectId,Load_Balancer_mk_4,4c6f6164-5f42-4616-9c61-6e6365725f6d,rev?*%
%TF.SameCoordinates,Original*%
%TF.FileFunction,Legend,Top*%
%TF.FilePolarity,Positive*%
%FSLAX46Y46*%
G04 Gerber Fmt 4.6, Leading zero omitted, Abs format (unit mm)*
G04 Created by KiCad (PCBNEW 5.1.10-88a1d61d58~90~ubuntu20.04.1) date 2021-12-10 22:24:31*
%MOMM*%
%LPD*%
G01*
G04 APERTURE LIST*
%ADD10C,0.200000*%
%ADD11C,0.250000*%
%ADD12C,0.500000*%
%ADD13C,0.120000*%
%ADD14C,0.150000*%
G04 APERTURE END LIST*
D10*
X45575000Y-101504761D02*
X44575000Y-101504761D01*
X45075000Y-101504761D02*
X45075000Y-99504761D01*
X44908333Y-99790476D01*
X44741666Y-99980952D01*
X44575000Y-100076190D01*
X46241666Y-99695238D02*
X46325000Y-99600000D01*
X46491666Y-99504761D01*
X46908333Y-99504761D01*
X47075000Y-99600000D01*
X47158333Y-99695238D01*
X47241666Y-99885714D01*
X47241666Y-100076190D01*
X47158333Y-100361904D01*
X46158333Y-101504761D01*
X47241666Y-101504761D01*
X48325000Y-99504761D02*
X48491666Y-99504761D01*
X48658333Y-99600000D01*
X48741666Y-99695238D01*
X48825000Y-99885714D01*
X48908333Y-100266666D01*
X48908333Y-100742857D01*
X48825000Y-101123809D01*
X48741666Y-101314285D01*
X48658333Y-101409523D01*
X48491666Y-101504761D01*
X48325000Y-101504761D01*
X48158333Y-101409523D01*
X48075000Y-101314285D01*
X47991666Y-101123809D01*
X47908333Y-100742857D01*
X47908333Y-100266666D01*
X47991666Y-99885714D01*
X48075000Y-99695238D01*
X48158333Y-99600000D01*
X48325000Y-99504761D01*
X49408333Y-99504761D02*
X49991666Y-101504761D01*
X50575000Y-99504761D01*
X51075000Y-100933333D02*
X51908333Y-100933333D01*
X50908333Y-101504761D02*
X51491666Y-99504761D01*
X52075000Y-101504761D01*
X53658333Y-101314285D02*
X53575000Y-101409523D01*
X53325000Y-101504761D01*
X53158333Y-101504761D01*
X52908333Y-101409523D01*
X52741666Y-101219047D01*
X52658333Y-101028571D01*
X52575000Y-100647619D01*
X52575000Y-100361904D01*
X52658333Y-99980952D01*
X52741666Y-99790476D01*
X52908333Y-99600000D01*
X53158333Y-99504761D01*
X53325000Y-99504761D01*
X53575000Y-99600000D01*
X53658333Y-99695238D01*
X55741666Y-101504761D02*
X55741666Y-99504761D01*
X56325000Y-100933333D01*
X56908333Y-99504761D01*
X56908333Y-101504761D01*
X57658333Y-100933333D02*
X58491666Y-100933333D01*
X57491666Y-101504761D02*
X58075000Y-99504761D01*
X58658333Y-101504761D01*
X59075000Y-99504761D02*
X60241666Y-101504761D01*
X60241666Y-99504761D02*
X59075000Y-101504761D01*
X60908333Y-101314285D02*
X60991666Y-101409523D01*
X60908333Y-101504761D01*
X60825000Y-101409523D01*
X60908333Y-101314285D01*
X60908333Y-101504761D01*
X60908333Y-100742857D02*
X60825000Y-99600000D01*
X60908333Y-99504761D01*
X60991666Y-99600000D01*
X60908333Y-100742857D01*
X60908333Y-99504761D01*
X61741666Y-101314285D02*
X61825000Y-101409523D01*
X61741666Y-101504761D01*
X61658333Y-101409523D01*
X61741666Y-101314285D01*
X61741666Y-101504761D01*
X61741666Y-100742857D02*
X61658333Y-99600000D01*
X61741666Y-99504761D01*
X61825000Y-99600000D01*
X61741666Y-100742857D01*
X61741666Y-99504761D01*
X45625000Y-40204761D02*
X44625000Y-40204761D01*
X45125000Y-40204761D02*
X45125000Y-38204761D01*
X44958333Y-38490476D01*
X44791666Y-38680952D01*
X44625000Y-38776190D01*
X46291666Y-38395238D02*
X46375000Y-38300000D01*
X46541666Y-38204761D01*
X46958333Y-38204761D01*
X47125000Y-38300000D01*
X47208333Y-38395238D01*
X47291666Y-38585714D01*
X47291666Y-38776190D01*
X47208333Y-39061904D01*
X46208333Y-40204761D01*
X47291666Y-40204761D01*
X48375000Y-38204761D02*
X48541666Y-38204761D01*
X48708333Y-38300000D01*
X48791666Y-38395238D01*
X48875000Y-38585714D01*
X48958333Y-38966666D01*
X48958333Y-39442857D01*
X48875000Y-39823809D01*
X48791666Y-40014285D01*
X48708333Y-40109523D01*
X48541666Y-40204761D01*
X48375000Y-40204761D01*
X48208333Y-40109523D01*
X48125000Y-40014285D01*
X48041666Y-39823809D01*
X47958333Y-39442857D01*
X47958333Y-38966666D01*
X48041666Y-38585714D01*
X48125000Y-38395238D01*
X48208333Y-38300000D01*
X48375000Y-38204761D01*
X49458333Y-38204761D02*
X50041666Y-40204761D01*
X50625000Y-38204761D01*
X51125000Y-39633333D02*
X51958333Y-39633333D01*
X50958333Y-40204761D02*
X51541666Y-38204761D01*
X52125000Y-40204761D01*
X53708333Y-40014285D02*
X53625000Y-40109523D01*
X53375000Y-40204761D01*
X53208333Y-40204761D01*
X52958333Y-40109523D01*
X52791666Y-39919047D01*
X52708333Y-39728571D01*
X52625000Y-39347619D01*
X52625000Y-39061904D01*
X52708333Y-38680952D01*
X52791666Y-38490476D01*
X52958333Y-38300000D01*
X53208333Y-38204761D01*
X53375000Y-38204761D01*
X53625000Y-38300000D01*
X53708333Y-38395238D01*
X55791666Y-40204761D02*
X55791666Y-38204761D01*
X56375000Y-39633333D01*
X56958333Y-38204761D01*
X56958333Y-40204761D01*
X57708333Y-39633333D02*
X58541666Y-39633333D01*
X57541666Y-40204761D02*
X58125000Y-38204761D01*
X58708333Y-40204761D01*
X59125000Y-38204761D02*
X60291666Y-40204761D01*
X60291666Y-38204761D02*
X59125000Y-40204761D01*
X60958333Y-40014285D02*
X61041666Y-40109523D01*
X60958333Y-40204761D01*
X60875000Y-40109523D01*
X60958333Y-40014285D01*
X60958333Y-40204761D01*
X60958333Y-39442857D02*
X60875000Y-38300000D01*
X60958333Y-38204761D01*
X61041666Y-38300000D01*
X60958333Y-39442857D01*
X60958333Y-38204761D01*
X61791666Y-40014285D02*
X61875000Y-40109523D01*
X61791666Y-40204761D01*
X61708333Y-40109523D01*
X61791666Y-40014285D01*
X61791666Y-40204761D01*
X61791666Y-39442857D02*
X61708333Y-38300000D01*
X61791666Y-38204761D01*
X61875000Y-38300000D01*
X61791666Y-39442857D01*
X61791666Y-38204761D01*
X72957142Y-102417857D02*
X73338095Y-103917857D01*
X73719047Y-102846428D01*
X74100000Y-103917857D01*
X74480952Y-102417857D01*
X75052380Y-102417857D02*
X75433333Y-103917857D01*
X75814285Y-102846428D01*
X76195238Y-103917857D01*
X76576190Y-102417857D01*
X77147619Y-102417857D02*
X77528571Y-103917857D01*
X77909523Y-102846428D01*
X78290476Y-103917857D01*
X78671428Y-102417857D01*
X79433333Y-103703571D02*
X79528571Y-103810714D01*
X79433333Y-103917857D01*
X79338095Y-103810714D01*
X79433333Y-103703571D01*
X79433333Y-103917857D01*
X81242857Y-103917857D02*
X81242857Y-102739285D01*
X81147619Y-102525000D01*
X80957142Y-102417857D01*
X80576190Y-102417857D01*
X80385714Y-102525000D01*
X81242857Y-103810714D02*
X81052380Y-103917857D01*
X80576190Y-103917857D01*
X80385714Y-103810714D01*
X80290476Y-103596428D01*
X80290476Y-103382142D01*
X80385714Y-103167857D01*
X80576190Y-103060714D01*
X81052380Y-103060714D01*
X81242857Y-102953571D01*
X83052380Y-103810714D02*
X82861904Y-103917857D01*
X82480952Y-103917857D01*
X82290476Y-103810714D01*
X82195238Y-103703571D01*
X82100000Y-103489285D01*
X82100000Y-102846428D01*
X82195238Y-102632142D01*
X82290476Y-102525000D01*
X82480952Y-102417857D01*
X82861904Y-102417857D01*
X83052380Y-102525000D01*
X84195238Y-103917857D02*
X84004761Y-103810714D01*
X83909523Y-103703571D01*
X83814285Y-103489285D01*
X83814285Y-102846428D01*
X83909523Y-102632142D01*
X84004761Y-102525000D01*
X84195238Y-102417857D01*
X84480952Y-102417857D01*
X84671428Y-102525000D01*
X84766666Y-102632142D01*
X84861904Y-102846428D01*
X84861904Y-103489285D01*
X84766666Y-103703571D01*
X84671428Y-103810714D01*
X84480952Y-103917857D01*
X84195238Y-103917857D01*
X85719047Y-103917857D02*
X85719047Y-102417857D01*
X85719047Y-102846428D02*
X85814285Y-102632142D01*
X85909523Y-102525000D01*
X86100000Y-102417857D01*
X86290476Y-102417857D01*
X87814285Y-103917857D02*
X87814285Y-101667857D01*
X87814285Y-103810714D02*
X87623809Y-103917857D01*
X87242857Y-103917857D01*
X87052380Y-103810714D01*
X86957142Y-103703571D01*
X86861904Y-103489285D01*
X86861904Y-102846428D01*
X86957142Y-102632142D01*
X87052380Y-102525000D01*
X87242857Y-102417857D01*
X87623809Y-102417857D01*
X87814285Y-102525000D01*
X88766666Y-103917857D02*
X88766666Y-102417857D01*
X88766666Y-101667857D02*
X88671428Y-101775000D01*
X88766666Y-101882142D01*
X88861904Y-101775000D01*
X88766666Y-101667857D01*
X88766666Y-101882142D01*
X89719047Y-102417857D02*
X89719047Y-103917857D01*
X89719047Y-102632142D02*
X89814285Y-102525000D01*
X90004761Y-102417857D01*
X90290476Y-102417857D01*
X90480952Y-102525000D01*
X90576190Y-102739285D01*
X90576190Y-103917857D01*
X92385714Y-102417857D02*
X92385714Y-104239285D01*
X92290476Y-104453571D01*
X92195238Y-104560714D01*
X92004761Y-104667857D01*
X91719047Y-104667857D01*
X91528571Y-104560714D01*
X92385714Y-103810714D02*
X92195238Y-103917857D01*
X91814285Y-103917857D01*
X91623809Y-103810714D01*
X91528571Y-103703571D01*
X91433333Y-103489285D01*
X91433333Y-102846428D01*
X91528571Y-102632142D01*
X91623809Y-102525000D01*
X91814285Y-102417857D01*
X92195238Y-102417857D01*
X92385714Y-102525000D01*
X93623809Y-103917857D02*
X93433333Y-103810714D01*
X93338095Y-103596428D01*
X93338095Y-101667857D01*
X95147619Y-103810714D02*
X94957142Y-103917857D01*
X94576190Y-103917857D01*
X94385714Y-103810714D01*
X94290476Y-103596428D01*
X94290476Y-102739285D01*
X94385714Y-102525000D01*
X94576190Y-102417857D01*
X94957142Y-102417857D01*
X95147619Y-102525000D01*
X95242857Y-102739285D01*
X95242857Y-102953571D01*
X94290476Y-103167857D01*
X95909523Y-102417857D02*
X96385714Y-103917857D01*
X96861904Y-102417857D02*
X96385714Y-103917857D01*
X96195238Y-104453571D01*
X96100000Y-104560714D01*
X95909523Y-104667857D01*
X97623809Y-103703571D02*
X97719047Y-103810714D01*
X97623809Y-103917857D01*
X97528571Y-103810714D01*
X97623809Y-103703571D01*
X97623809Y-103917857D01*
X99433333Y-102417857D02*
X99433333Y-103917857D01*
X98576190Y-102417857D02*
X98576190Y-103596428D01*
X98671428Y-103810714D01*
X98861904Y-103917857D01*
X99147619Y-103917857D01*
X99338095Y-103810714D01*
X99433333Y-103703571D01*
X100290476Y-103810714D02*
X100480952Y-103917857D01*
X100861904Y-103917857D01*
X101052380Y-103810714D01*
X101147619Y-103596428D01*
X101147619Y-103489285D01*
X101052380Y-103275000D01*
X100861904Y-103167857D01*
X100576190Y-103167857D01*
X100385714Y-103060714D01*
X100290476Y-102846428D01*
X100290476Y-102739285D01*
X100385714Y-102525000D01*
X100576190Y-102417857D01*
X100861904Y-102417857D01*
X101052380Y-102525000D01*
X71964285Y-101916666D02*
X71892857Y-101821428D01*
X71750000Y-101535714D01*
X71678571Y-101345238D01*
X71607142Y-101059523D01*
X71535714Y-100583333D01*
X71535714Y-100202380D01*
X71607142Y-99726190D01*
X71678571Y-99440476D01*
X71750000Y-99250000D01*
X71892857Y-98964285D01*
X71964285Y-98869047D01*
X73392857Y-100964285D02*
X73321428Y-101059523D01*
X73107142Y-101154761D01*
X72964285Y-101154761D01*
X72750000Y-101059523D01*
X72607142Y-100869047D01*
X72535714Y-100678571D01*
X72464285Y-100297619D01*
X72464285Y-100011904D01*
X72535714Y-99630952D01*
X72607142Y-99440476D01*
X72750000Y-99250000D01*
X72964285Y-99154761D01*
X73107142Y-99154761D01*
X73321428Y-99250000D01*
X73392857Y-99345238D01*
X73892857Y-101916666D02*
X73964285Y-101821428D01*
X74107142Y-101535714D01*
X74178571Y-101345238D01*
X74250000Y-101059523D01*
X74321428Y-100583333D01*
X74321428Y-100202380D01*
X74250000Y-99726190D01*
X74178571Y-99440476D01*
X74107142Y-99250000D01*
X73964285Y-98964285D01*
X73892857Y-98869047D01*
X76107142Y-100583333D02*
X76821428Y-100583333D01*
X75964285Y-101154761D02*
X76464285Y-99154761D01*
X76964285Y-101154761D01*
X77464285Y-101154761D02*
X77464285Y-99154761D01*
X77821428Y-99154761D01*
X78035714Y-99250000D01*
X78178571Y-99440476D01*
X78250000Y-99630952D01*
X78321428Y-100011904D01*
X78321428Y-100297619D01*
X78250000Y-100678571D01*
X78178571Y-100869047D01*
X78035714Y-101059523D01*
X77821428Y-101154761D01*
X77464285Y-101154761D01*
X78892857Y-100583333D02*
X79607142Y-100583333D01*
X78750000Y-101154761D02*
X79250000Y-99154761D01*
X79750000Y-101154761D01*
X80250000Y-101154761D02*
X80250000Y-99154761D01*
X80750000Y-100583333D01*
X81250000Y-99154761D01*
X81250000Y-101154761D01*
X83964285Y-100964285D02*
X83892857Y-101059523D01*
X83678571Y-101154761D01*
X83535714Y-101154761D01*
X83321428Y-101059523D01*
X83178571Y-100869047D01*
X83107142Y-100678571D01*
X83035714Y-100297619D01*
X83035714Y-100011904D01*
X83107142Y-99630952D01*
X83178571Y-99440476D01*
X83321428Y-99250000D01*
X83535714Y-99154761D01*
X83678571Y-99154761D01*
X83892857Y-99250000D01*
X83964285Y-99345238D01*
X84892857Y-99154761D02*
X85178571Y-99154761D01*
X85321428Y-99250000D01*
X85464285Y-99440476D01*
X85535714Y-99821428D01*
X85535714Y-100488095D01*
X85464285Y-100869047D01*
X85321428Y-101059523D01*
X85178571Y-101154761D01*
X84892857Y-101154761D01*
X84750000Y-101059523D01*
X84607142Y-100869047D01*
X84535714Y-100488095D01*
X84535714Y-99821428D01*
X84607142Y-99440476D01*
X84750000Y-99250000D01*
X84892857Y-99154761D01*
X87035714Y-101154761D02*
X86535714Y-100202380D01*
X86178571Y-101154761D02*
X86178571Y-99154761D01*
X86750000Y-99154761D01*
X86892857Y-99250000D01*
X86964285Y-99345238D01*
X87035714Y-99535714D01*
X87035714Y-99821428D01*
X86964285Y-100011904D01*
X86892857Y-100107142D01*
X86750000Y-100202380D01*
X86178571Y-100202380D01*
X87678571Y-101154761D02*
X87678571Y-99154761D01*
X88035714Y-99154761D01*
X88250000Y-99250000D01*
X88392857Y-99440476D01*
X88464285Y-99630952D01*
X88535714Y-100011904D01*
X88535714Y-100297619D01*
X88464285Y-100678571D01*
X88392857Y-100869047D01*
X88250000Y-101059523D01*
X88035714Y-101154761D01*
X87678571Y-101154761D01*
X89178571Y-101154761D02*
X89178571Y-99154761D01*
X89892857Y-101154761D02*
X89892857Y-99154761D01*
X90750000Y-101154761D01*
X90750000Y-99154761D01*
X92250000Y-99250000D02*
X92107142Y-99154761D01*
X91892857Y-99154761D01*
X91678571Y-99250000D01*
X91535714Y-99440476D01*
X91464285Y-99630952D01*
X91392857Y-100011904D01*
X91392857Y-100297619D01*
X91464285Y-100678571D01*
X91535714Y-100869047D01*
X91678571Y-101059523D01*
X91892857Y-101154761D01*
X92035714Y-101154761D01*
X92250000Y-101059523D01*
X92321428Y-100964285D01*
X92321428Y-100297619D01*
X92035714Y-100297619D01*
X93678571Y-101154761D02*
X92964285Y-101154761D01*
X92964285Y-99154761D01*
X94178571Y-100107142D02*
X94678571Y-100107142D01*
X94892857Y-101154761D02*
X94178571Y-101154761D01*
X94178571Y-99154761D01*
X94892857Y-99154761D01*
X95821428Y-100202380D02*
X95821428Y-101154761D01*
X95321428Y-99154761D02*
X95821428Y-100202380D01*
X96321428Y-99154761D01*
X97892857Y-99345238D02*
X97964285Y-99250000D01*
X98107142Y-99154761D01*
X98464285Y-99154761D01*
X98607142Y-99250000D01*
X98678571Y-99345238D01*
X98750000Y-99535714D01*
X98750000Y-99726190D01*
X98678571Y-100011904D01*
X97821428Y-101154761D01*
X98750000Y-101154761D01*
X99678571Y-99154761D02*
X99821428Y-99154761D01*
X99964285Y-99250000D01*
X100035714Y-99345238D01*
X100107142Y-99535714D01*
X100178571Y-99916666D01*
X100178571Y-100392857D01*
X100107142Y-100773809D01*
X100035714Y-100964285D01*
X99964285Y-101059523D01*
X99821428Y-101154761D01*
X99678571Y-101154761D01*
X99535714Y-101059523D01*
X99464285Y-100964285D01*
X99392857Y-100773809D01*
X99321428Y-100392857D01*
X99321428Y-99916666D01*
X99392857Y-99535714D01*
X99464285Y-99345238D01*
X99535714Y-99250000D01*
X99678571Y-99154761D01*
X100750000Y-99345238D02*
X100821428Y-99250000D01*
X100964285Y-99154761D01*
X101321428Y-99154761D01*
X101464285Y-99250000D01*
X101535714Y-99345238D01*
X101607142Y-99535714D01*
X101607142Y-99726190D01*
X101535714Y-100011904D01*
X100678571Y-101154761D01*
X101607142Y-101154761D01*
X103035714Y-101154761D02*
X102178571Y-101154761D01*
X102607142Y-101154761D02*
X102607142Y-99154761D01*
X102464285Y-99440476D01*
X102321428Y-99630952D01*
X102178571Y-99726190D01*
D11*
X70666666Y-97967857D02*
X70666666Y-95717857D01*
X71250000Y-97325000D01*
X71833333Y-95717857D01*
X71833333Y-97967857D01*
X72583333Y-97325000D02*
X73416666Y-97325000D01*
X72416666Y-97967857D02*
X73000000Y-95717857D01*
X73583333Y-97967857D01*
X74166666Y-97967857D02*
X74166666Y-95717857D01*
X75000000Y-97967857D02*
X75000000Y-95717857D01*
X76000000Y-97967857D01*
X76000000Y-95717857D01*
X76750000Y-97860714D02*
X77000000Y-97967857D01*
X77416666Y-97967857D01*
X77583333Y-97860714D01*
X77666666Y-97753571D01*
X77750000Y-97539285D01*
X77750000Y-97325000D01*
X77666666Y-97110714D01*
X77583333Y-97003571D01*
X77416666Y-96896428D01*
X77083333Y-96789285D01*
X76916666Y-96682142D01*
X76833333Y-96575000D01*
X76750000Y-96360714D01*
X76750000Y-96146428D01*
X76833333Y-95932142D01*
X76916666Y-95825000D01*
X77083333Y-95717857D01*
X77500000Y-95717857D01*
X77750000Y-95825000D01*
X79750000Y-97860714D02*
X80000000Y-97967857D01*
X80416666Y-97967857D01*
X80583333Y-97860714D01*
X80666666Y-97753571D01*
X80750000Y-97539285D01*
X80750000Y-97325000D01*
X80666666Y-97110714D01*
X80583333Y-97003571D01*
X80416666Y-96896428D01*
X80083333Y-96789285D01*
X79916666Y-96682142D01*
X79833333Y-96575000D01*
X79750000Y-96360714D01*
X79750000Y-96146428D01*
X79833333Y-95932142D01*
X79916666Y-95825000D01*
X80083333Y-95717857D01*
X80500000Y-95717857D01*
X80750000Y-95825000D01*
X81833333Y-95717857D02*
X82166666Y-95717857D01*
X82333333Y-95825000D01*
X82500000Y-96039285D01*
X82583333Y-96467857D01*
X82583333Y-97217857D01*
X82500000Y-97646428D01*
X82333333Y-97860714D01*
X82166666Y-97967857D01*
X81833333Y-97967857D01*
X81666666Y-97860714D01*
X81500000Y-97646428D01*
X81416666Y-97217857D01*
X81416666Y-96467857D01*
X81500000Y-96039285D01*
X81666666Y-95825000D01*
X81833333Y-95717857D01*
X83333333Y-95717857D02*
X83333333Y-97539285D01*
X83416666Y-97753571D01*
X83500000Y-97860714D01*
X83666666Y-97967857D01*
X84000000Y-97967857D01*
X84166666Y-97860714D01*
X84250000Y-97753571D01*
X84333333Y-97539285D01*
X84333333Y-95717857D01*
X86166666Y-97967857D02*
X85583333Y-96896428D01*
X85166666Y-97967857D02*
X85166666Y-95717857D01*
X85833333Y-95717857D01*
X86000000Y-95825000D01*
X86083333Y-95932142D01*
X86166666Y-96146428D01*
X86166666Y-96467857D01*
X86083333Y-96682142D01*
X86000000Y-96789285D01*
X85833333Y-96896428D01*
X85166666Y-96896428D01*
X87916666Y-97753571D02*
X87833333Y-97860714D01*
X87583333Y-97967857D01*
X87416666Y-97967857D01*
X87166666Y-97860714D01*
X87000000Y-97646428D01*
X86916666Y-97432142D01*
X86833333Y-97003571D01*
X86833333Y-96682142D01*
X86916666Y-96253571D01*
X87000000Y-96039285D01*
X87166666Y-95825000D01*
X87416666Y-95717857D01*
X87583333Y-95717857D01*
X87833333Y-95825000D01*
X87916666Y-95932142D01*
X88666666Y-96789285D02*
X89250000Y-96789285D01*
X89500000Y-97967857D02*
X88666666Y-97967857D01*
X88666666Y-95717857D01*
X89500000Y-95717857D01*
X92166666Y-96789285D02*
X92416666Y-96896428D01*
X92500000Y-97003571D01*
X92583333Y-97217857D01*
X92583333Y-97539285D01*
X92500000Y-97753571D01*
X92416666Y-97860714D01*
X92250000Y-97967857D01*
X91583333Y-97967857D01*
X91583333Y-95717857D01*
X92166666Y-95717857D01*
X92333333Y-95825000D01*
X92416666Y-95932142D01*
X92500000Y-96146428D01*
X92500000Y-96360714D01*
X92416666Y-96575000D01*
X92333333Y-96682142D01*
X92166666Y-96789285D01*
X91583333Y-96789285D01*
X93250000Y-97325000D02*
X94083333Y-97325000D01*
X93083333Y-97967857D02*
X93666666Y-95717857D01*
X94250000Y-97967857D01*
X95666666Y-97967857D02*
X94833333Y-97967857D01*
X94833333Y-95717857D01*
X96166666Y-97325000D02*
X97000000Y-97325000D01*
X96000000Y-97967857D02*
X96583333Y-95717857D01*
X97166666Y-97967857D01*
X97750000Y-97967857D02*
X97750000Y-95717857D01*
X98750000Y-97967857D01*
X98750000Y-95717857D01*
X100583333Y-97753571D02*
X100500000Y-97860714D01*
X100250000Y-97967857D01*
X100083333Y-97967857D01*
X99833333Y-97860714D01*
X99666666Y-97646428D01*
X99583333Y-97432142D01*
X99500000Y-97003571D01*
X99500000Y-96682142D01*
X99583333Y-96253571D01*
X99666666Y-96039285D01*
X99833333Y-95825000D01*
X100083333Y-95717857D01*
X100250000Y-95717857D01*
X100500000Y-95825000D01*
X100583333Y-95932142D01*
X101333333Y-96789285D02*
X101916666Y-96789285D01*
X102166666Y-97967857D02*
X101333333Y-97967857D01*
X101333333Y-95717857D01*
X102166666Y-95717857D01*
X103916666Y-97967857D02*
X103333333Y-96896428D01*
X102916666Y-97967857D02*
X102916666Y-95717857D01*
X103583333Y-95717857D01*
X103750000Y-95825000D01*
X103833333Y-95932142D01*
X103916666Y-96146428D01*
X103916666Y-96467857D01*
X103833333Y-96682142D01*
X103750000Y-96789285D01*
X103583333Y-96896428D01*
X102916666Y-96896428D01*
X142054761Y-89852380D02*
X140054761Y-89852380D01*
X142054761Y-88709523D01*
X140054761Y-88709523D01*
X141007142Y-87757142D02*
X141007142Y-87090476D01*
X142054761Y-86804761D02*
X142054761Y-87757142D01*
X140054761Y-87757142D01*
X140054761Y-86804761D01*
X140054761Y-85947619D02*
X141673809Y-85947619D01*
X141864285Y-85852380D01*
X141959523Y-85757142D01*
X142054761Y-85566666D01*
X142054761Y-85185714D01*
X141959523Y-84995238D01*
X141864285Y-84900000D01*
X141673809Y-84804761D01*
X140054761Y-84804761D01*
X140054761Y-84138095D02*
X140054761Y-82995238D01*
X142054761Y-83566666D02*
X140054761Y-83566666D01*
X142054761Y-81185714D02*
X141102380Y-81852380D01*
X142054761Y-82328571D02*
X140054761Y-82328571D01*
X140054761Y-81566666D01*
X140150000Y-81376190D01*
X140245238Y-81280952D01*
X140435714Y-81185714D01*
X140721428Y-81185714D01*
X140911904Y-81280952D01*
X141007142Y-81376190D01*
X141102380Y-81566666D01*
X141102380Y-82328571D01*
X141483333Y-80423809D02*
X141483333Y-79471428D01*
X142054761Y-80614285D02*
X140054761Y-79947619D01*
X142054761Y-79280952D01*
X142054761Y-77661904D02*
X142054761Y-78614285D01*
X140054761Y-78614285D01*
D12*
X121500000Y-55000000D02*
X124000000Y-52500000D01*
X121500000Y-71000000D02*
X121500000Y-55000000D01*
X125500000Y-75000000D02*
X121500000Y-71000000D01*
X125500000Y-104500000D02*
X125500000Y-75000000D01*
D11*
X59095238Y-64761904D02*
X59095238Y-63809523D01*
X61095238Y-63809523D01*
X59095238Y-65428571D02*
X61095238Y-65428571D01*
X61095238Y-66095238D02*
X59095238Y-66761904D01*
X61095238Y-67428571D01*
X60142857Y-68095238D02*
X60142857Y-68761904D01*
X59095238Y-69047619D02*
X59095238Y-68095238D01*
X61095238Y-68095238D01*
X61095238Y-69047619D01*
X61095238Y-71809523D02*
X61095238Y-72190476D01*
X61000000Y-72380952D01*
X60809523Y-72571428D01*
X60428571Y-72666666D01*
X59761904Y-72666666D01*
X59380952Y-72571428D01*
X59190476Y-72380952D01*
X59095238Y-72190476D01*
X59095238Y-71809523D01*
X59190476Y-71619047D01*
X59380952Y-71428571D01*
X59761904Y-71333333D01*
X60428571Y-71333333D01*
X60809523Y-71428571D01*
X61000000Y-71619047D01*
X61095238Y-71809523D01*
X61095238Y-73523809D02*
X59476190Y-73523809D01*
X59285714Y-73619047D01*
X59190476Y-73714285D01*
X59095238Y-73904761D01*
X59095238Y-74285714D01*
X59190476Y-74476190D01*
X59285714Y-74571428D01*
X59476190Y-74666666D01*
X61095238Y-74666666D01*
X61095238Y-75333333D02*
X61095238Y-76476190D01*
X59095238Y-75904761D02*
X61095238Y-75904761D01*
X59095238Y-86619047D02*
X59095238Y-85666666D01*
X61095238Y-85666666D01*
X59095238Y-87285714D02*
X61095238Y-87285714D01*
X61095238Y-87952380D02*
X59095238Y-88619047D01*
X61095238Y-89285714D01*
X60142857Y-89952380D02*
X60142857Y-90619047D01*
X59095238Y-90904761D02*
X59095238Y-89952380D01*
X61095238Y-89952380D01*
X61095238Y-90904761D01*
X60142857Y-93952380D02*
X60047619Y-94238095D01*
X59952380Y-94333333D01*
X59761904Y-94428571D01*
X59476190Y-94428571D01*
X59285714Y-94333333D01*
X59190476Y-94238095D01*
X59095238Y-94047619D01*
X59095238Y-93285714D01*
X61095238Y-93285714D01*
X61095238Y-93952380D01*
X61000000Y-94142857D01*
X60904761Y-94238095D01*
X60714285Y-94333333D01*
X60523809Y-94333333D01*
X60333333Y-94238095D01*
X60238095Y-94142857D01*
X60142857Y-93952380D01*
X60142857Y-93285714D01*
X59095238Y-46761904D02*
X59095238Y-45809523D01*
X61095238Y-45809523D01*
X59095238Y-47428571D02*
X61095238Y-47428571D01*
X61095238Y-48095238D02*
X59095238Y-48761904D01*
X61095238Y-49428571D01*
X60142857Y-50095238D02*
X60142857Y-50761904D01*
X59095238Y-51047619D02*
X59095238Y-50095238D01*
X61095238Y-50095238D01*
X61095238Y-51047619D01*
X59666666Y-53333333D02*
X59666666Y-54285714D01*
X59095238Y-53142857D02*
X61095238Y-53809523D01*
X59095238Y-54476190D01*
D13*
%TO.C,U1*%
X99320000Y-78190000D02*
X99320000Y-79840000D01*
X99320000Y-79840000D02*
X117220000Y-79840000D01*
X117220000Y-79840000D02*
X117220000Y-74540000D01*
X117220000Y-74540000D02*
X99320000Y-74540000D01*
X99320000Y-74540000D02*
X99320000Y-76190000D01*
X99320000Y-76190000D02*
G75*
G02*
X99320000Y-78190000I0J-1000000D01*
G01*
D14*
%TO.C,TH1*%
X87650000Y-45350000D02*
X96650000Y-45350000D01*
X87650000Y-41550000D02*
X96650000Y-41550000D01*
X96650000Y-41550000D02*
X96650000Y-45350000D01*
X87650000Y-41550000D02*
X87650000Y-45350000D01*
D13*
%TO.C,R18*%
X71550000Y-41180000D02*
X71550000Y-45920000D01*
X71550000Y-45920000D02*
X83690000Y-45920000D01*
X83690000Y-45920000D02*
X83690000Y-41180000D01*
X83690000Y-41180000D02*
X71550000Y-41180000D01*
X71440000Y-43550000D02*
X71550000Y-43550000D01*
X83800000Y-43550000D02*
X83690000Y-43550000D01*
%TO.C,D5*%
X75270000Y-87351000D02*
X73760000Y-87351000D01*
X75270000Y-83650000D02*
X73760000Y-83650000D01*
X73760000Y-80380000D02*
X73760000Y-90620000D01*
X75270000Y-90620000D02*
X70629000Y-90620000D01*
X75270000Y-80380000D02*
X70629000Y-80380000D01*
X70629000Y-80380000D02*
X70629000Y-90620000D01*
X75270000Y-80380000D02*
X75270000Y-90620000D01*
%TO.C,D4*%
X68730000Y-52649000D02*
X70240000Y-52649000D01*
X68730000Y-56350000D02*
X70240000Y-56350000D01*
X70240000Y-59620000D02*
X70240000Y-49380000D01*
X68730000Y-49380000D02*
X73371000Y-49380000D01*
X68730000Y-59620000D02*
X73371000Y-59620000D01*
X73371000Y-59620000D02*
X73371000Y-49380000D01*
X68730000Y-59620000D02*
X68730000Y-49380000D01*
%TO.C,Q2*%
X94040000Y-86200000D02*
X90440000Y-86200000D01*
X89915816Y-86927205D02*
G75*
G02*
X90440000Y-86200000I2324184J-1122795D01*
G01*
X89883600Y-89148807D02*
G75*
G03*
X92240000Y-90650000I2356400J1098807D01*
G01*
X94596400Y-89148807D02*
G75*
G02*
X92240000Y-90650000I-2356400J1098807D01*
G01*
X94564184Y-86927205D02*
G75*
G03*
X94040000Y-86200000I-2324184J-1122795D01*
G01*
%TO.C,Q1*%
X92300000Y-46900000D02*
X88700000Y-46900000D01*
X88175816Y-47627205D02*
G75*
G02*
X88700000Y-46900000I2324184J-1122795D01*
G01*
X88143600Y-49848807D02*
G75*
G03*
X90500000Y-51350000I2356400J1098807D01*
G01*
X92856400Y-49848807D02*
G75*
G02*
X90500000Y-51350000I-2356400J1098807D01*
G01*
X92824184Y-47627205D02*
G75*
G03*
X92300000Y-46900000I-2324184J-1122795D01*
G01*
%TO.C,U2*%
X101870000Y-61290000D02*
X101870000Y-62940000D01*
X119770000Y-61290000D02*
X101870000Y-61290000D01*
X119770000Y-66590000D02*
X119770000Y-61290000D01*
X101870000Y-66590000D02*
X119770000Y-66590000D01*
X101870000Y-64940000D02*
X101870000Y-66590000D01*
X101870000Y-62940000D02*
G75*
G02*
X101870000Y-64940000I0J-1000000D01*
G01*
D14*
%TO.C,RV3*%
X66783330Y-92150000D02*
X62583330Y-92150000D01*
X66783330Y-104150000D02*
X62583330Y-104150000D01*
X66783330Y-92150000D02*
X66783330Y-104150000D01*
X62583330Y-92150000D02*
X62583330Y-104150000D01*
%TO.C,RV2*%
X62616670Y-47350000D02*
X66816670Y-47350000D01*
X62616670Y-35350000D02*
X66816670Y-35350000D01*
X62616670Y-47350000D02*
X62616670Y-35350000D01*
X66816670Y-47350000D02*
X66816670Y-35350000D01*
%TO.C,RV1*%
X70300000Y-68316670D02*
X70300000Y-72516670D01*
X82300000Y-68316670D02*
X82300000Y-72516670D01*
X70300000Y-68316670D02*
X82300000Y-68316670D01*
X70300000Y-72516670D02*
X82300000Y-72516670D01*
D13*
%TO.C,R17*%
X86220000Y-91350000D02*
X85450000Y-91350000D01*
X78140000Y-91350000D02*
X78910000Y-91350000D01*
X85450000Y-89980000D02*
X78910000Y-89980000D01*
X85450000Y-92720000D02*
X85450000Y-89980000D01*
X78910000Y-92720000D02*
X85450000Y-92720000D01*
X78910000Y-89980000D02*
X78910000Y-92720000D01*
%TO.C,R16*%
X78140000Y-88050000D02*
X78910000Y-88050000D01*
X86220000Y-88050000D02*
X85450000Y-88050000D01*
X78910000Y-89420000D02*
X85450000Y-89420000D01*
X78910000Y-86680000D02*
X78910000Y-89420000D01*
X85450000Y-86680000D02*
X78910000Y-86680000D01*
X85450000Y-89420000D02*
X85450000Y-86680000D01*
%TO.C,R15*%
X84270000Y-52000000D02*
X83500000Y-52000000D01*
X76190000Y-52000000D02*
X76960000Y-52000000D01*
X83500000Y-50630000D02*
X76960000Y-50630000D01*
X83500000Y-53370000D02*
X83500000Y-50630000D01*
X76960000Y-53370000D02*
X83500000Y-53370000D01*
X76960000Y-50630000D02*
X76960000Y-53370000D01*
%TO.C,R14*%
X76190000Y-48750000D02*
X76960000Y-48750000D01*
X84270000Y-48750000D02*
X83500000Y-48750000D01*
X76960000Y-50120000D02*
X83500000Y-50120000D01*
X76960000Y-47380000D02*
X76960000Y-50120000D01*
X83500000Y-47380000D02*
X76960000Y-47380000D01*
X83500000Y-50120000D02*
X83500000Y-47380000D01*
%TO.C,R13*%
X86150000Y-82570000D02*
X86150000Y-81800000D01*
X86150000Y-74490000D02*
X86150000Y-75260000D01*
X87520000Y-81800000D02*
X87520000Y-75260000D01*
X84780000Y-81800000D02*
X87520000Y-81800000D01*
X84780000Y-75260000D02*
X84780000Y-81800000D01*
X87520000Y-75260000D02*
X84780000Y-75260000D01*
%TO.C,R12*%
X90500000Y-53590000D02*
X90500000Y-54360000D01*
X90500000Y-61670000D02*
X90500000Y-60900000D01*
X89130000Y-54360000D02*
X89130000Y-60900000D01*
X91870000Y-54360000D02*
X89130000Y-54360000D01*
X91870000Y-60900000D02*
X91870000Y-54360000D01*
X89130000Y-60900000D02*
X91870000Y-60900000D01*
%TO.C,R11*%
X93700000Y-53590000D02*
X93700000Y-54360000D01*
X93700000Y-61670000D02*
X93700000Y-60900000D01*
X92330000Y-54360000D02*
X92330000Y-60900000D01*
X95070000Y-54360000D02*
X92330000Y-54360000D01*
X95070000Y-60900000D02*
X95070000Y-54360000D01*
X92330000Y-60900000D02*
X95070000Y-60900000D01*
%TO.C,R10*%
X89300000Y-82560000D02*
X89300000Y-81790000D01*
X89300000Y-74480000D02*
X89300000Y-75250000D01*
X90670000Y-81790000D02*
X90670000Y-75250000D01*
X87930000Y-81790000D02*
X90670000Y-81790000D01*
X87930000Y-75250000D02*
X87930000Y-81790000D01*
X90670000Y-75250000D02*
X87930000Y-75250000D01*
%TO.C,R9*%
X87680000Y-66050000D02*
X88450000Y-66050000D01*
X95760000Y-66050000D02*
X94990000Y-66050000D01*
X88450000Y-67420000D02*
X94990000Y-67420000D01*
X88450000Y-64680000D02*
X88450000Y-67420000D01*
X94990000Y-64680000D02*
X88450000Y-64680000D01*
X94990000Y-67420000D02*
X94990000Y-64680000D01*
%TO.C,R8*%
X119920000Y-84450000D02*
X119150000Y-84450000D01*
X111840000Y-84450000D02*
X112610000Y-84450000D01*
X119150000Y-83080000D02*
X112610000Y-83080000D01*
X119150000Y-85820000D02*
X119150000Y-83080000D01*
X112610000Y-85820000D02*
X119150000Y-85820000D01*
X112610000Y-83080000D02*
X112610000Y-85820000D01*
%TO.C,R7*%
X100650000Y-84730000D02*
X100650000Y-85500000D01*
X100650000Y-92810000D02*
X100650000Y-92040000D01*
X99280000Y-85500000D02*
X99280000Y-92040000D01*
X102020000Y-85500000D02*
X99280000Y-85500000D01*
X102020000Y-92040000D02*
X102020000Y-85500000D01*
X99280000Y-92040000D02*
X102020000Y-92040000D01*
%TO.C,R6*%
X111770000Y-55500000D02*
X111000000Y-55500000D01*
X103690000Y-55500000D02*
X104460000Y-55500000D01*
X111000000Y-54130000D02*
X104460000Y-54130000D01*
X111000000Y-56870000D02*
X111000000Y-54130000D01*
X104460000Y-56870000D02*
X111000000Y-56870000D01*
X104460000Y-54130000D02*
X104460000Y-56870000D01*
%TO.C,R5*%
X104930000Y-93900000D02*
X105700000Y-93900000D01*
X113010000Y-93900000D02*
X112240000Y-93900000D01*
X105700000Y-95270000D02*
X112240000Y-95270000D01*
X105700000Y-92530000D02*
X105700000Y-95270000D01*
X112240000Y-92530000D02*
X105700000Y-92530000D01*
X112240000Y-95270000D02*
X112240000Y-92530000D01*
%TO.C,R4*%
X118240000Y-93900000D02*
X119010000Y-93900000D01*
X126320000Y-93900000D02*
X125550000Y-93900000D01*
X119010000Y-95270000D02*
X125550000Y-95270000D01*
X119010000Y-92530000D02*
X119010000Y-95270000D01*
X125550000Y-92530000D02*
X119010000Y-92530000D01*
X125550000Y-95270000D02*
X125550000Y-92530000D01*
%TO.C,R3*%
X132500000Y-74700000D02*
X132500000Y-74810000D01*
X132500000Y-87060000D02*
X132500000Y-86950000D01*
X130130000Y-74810000D02*
X130130000Y-86950000D01*
X134870000Y-74810000D02*
X130130000Y-74810000D01*
X134870000Y-86950000D02*
X134870000Y-74810000D01*
X130130000Y-86950000D02*
X134870000Y-86950000D01*
%TO.C,R2*%
X126000000Y-54620000D02*
X126000000Y-53850000D01*
X126000000Y-46540000D02*
X126000000Y-47310000D01*
X127370000Y-53850000D02*
X127370000Y-47310000D01*
X124630000Y-53850000D02*
X127370000Y-53850000D01*
X124630000Y-47310000D02*
X124630000Y-53850000D01*
X127370000Y-47310000D02*
X124630000Y-47310000D01*
%TO.C,R1*%
X126000000Y-66960000D02*
X126000000Y-66190000D01*
X126000000Y-58880000D02*
X126000000Y-59650000D01*
X127370000Y-66190000D02*
X127370000Y-59650000D01*
X124630000Y-66190000D02*
X127370000Y-66190000D01*
X124630000Y-59650000D02*
X124630000Y-66190000D01*
X127370000Y-59650000D02*
X124630000Y-59650000D01*
%TO.C,D3*%
X119730000Y-57045000D02*
X119730000Y-53955000D01*
X119670000Y-55500000D02*
G75*
G03*
X119670000Y-55500000I-2500000J0D01*
G01*
X114180000Y-55500462D02*
G75*
G02*
X119730000Y-53955170I2990000J462D01*
G01*
X114180000Y-55499538D02*
G75*
G03*
X119730000Y-57044830I2990000J-462D01*
G01*
%TO.C,D2*%
X111630000Y-48680000D02*
X111630000Y-51620000D01*
X111870000Y-48680000D02*
X111870000Y-51620000D01*
X111750000Y-48680000D02*
X111750000Y-51620000D01*
X117310000Y-50150000D02*
X116290000Y-50150000D01*
X109830000Y-50150000D02*
X110850000Y-50150000D01*
X116290000Y-48680000D02*
X110850000Y-48680000D01*
X116290000Y-51620000D02*
X116290000Y-48680000D01*
X110850000Y-51620000D02*
X116290000Y-51620000D01*
X110850000Y-48680000D02*
X110850000Y-51620000D01*
%TO.C,D1*%
X116780000Y-46970000D02*
X116780000Y-44030000D01*
X116540000Y-46970000D02*
X116540000Y-44030000D01*
X116660000Y-46970000D02*
X116660000Y-44030000D01*
X112120000Y-44030000D02*
X112120000Y-44160000D01*
X117560000Y-44030000D02*
X112120000Y-44030000D01*
X117560000Y-44160000D02*
X117560000Y-44030000D01*
X112120000Y-46970000D02*
X112120000Y-46840000D01*
X117560000Y-46970000D02*
X112120000Y-46970000D01*
X117560000Y-46840000D02*
X117560000Y-46970000D01*
%TO.C,C6*%
X92930000Y-70670000D02*
X92930000Y-67930000D01*
X98170000Y-70670000D02*
X98170000Y-67930000D01*
X98170000Y-67930000D02*
X92930000Y-67930000D01*
X98170000Y-70670000D02*
X92930000Y-70670000D01*
%TO.C,C5*%
X109620000Y-83080000D02*
X109620000Y-85820000D01*
X104380000Y-83080000D02*
X104380000Y-85820000D01*
X104380000Y-85820000D02*
X109620000Y-85820000D01*
X104380000Y-83080000D02*
X109620000Y-83080000D01*
%TO.C,C4*%
X101220000Y-63970000D02*
X98480000Y-63970000D01*
X101220000Y-58730000D02*
X98480000Y-58730000D01*
X98480000Y-58730000D02*
X98480000Y-63970000D01*
X101220000Y-58730000D02*
X101220000Y-63970000D01*
%TO.C,C3*%
X97625000Y-53479646D02*
X98625000Y-53479646D01*
X98125000Y-53979646D02*
X98125000Y-52979646D01*
X100401000Y-43419000D02*
X101599000Y-43419000D01*
X100138000Y-43459000D02*
X101862000Y-43459000D01*
X99938000Y-43499000D02*
X102062000Y-43499000D01*
X99770000Y-43539000D02*
X102230000Y-43539000D01*
X99622000Y-43579000D02*
X102378000Y-43579000D01*
X99490000Y-43619000D02*
X102510000Y-43619000D01*
X99370000Y-43659000D02*
X102630000Y-43659000D01*
X99258000Y-43699000D02*
X102742000Y-43699000D01*
X99154000Y-43739000D02*
X102846000Y-43739000D01*
X99056000Y-43779000D02*
X102944000Y-43779000D01*
X98963000Y-43819000D02*
X103037000Y-43819000D01*
X98875000Y-43859000D02*
X103125000Y-43859000D01*
X98791000Y-43899000D02*
X103209000Y-43899000D01*
X98711000Y-43939000D02*
X103289000Y-43939000D01*
X98635000Y-43979000D02*
X103365000Y-43979000D01*
X98561000Y-44019000D02*
X103439000Y-44019000D01*
X98490000Y-44059000D02*
X103510000Y-44059000D01*
X98421000Y-44099000D02*
X103579000Y-44099000D01*
X98355000Y-44139000D02*
X103645000Y-44139000D01*
X98291000Y-44179000D02*
X103709000Y-44179000D01*
X98230000Y-44219000D02*
X103770000Y-44219000D01*
X98170000Y-44259000D02*
X103830000Y-44259000D01*
X98111000Y-44299000D02*
X103889000Y-44299000D01*
X98055000Y-44339000D02*
X103945000Y-44339000D01*
X98000000Y-44379000D02*
X104000000Y-44379000D01*
X97946000Y-44419000D02*
X104054000Y-44419000D01*
X97894000Y-44459000D02*
X104106000Y-44459000D01*
X97844000Y-44499000D02*
X104156000Y-44499000D01*
X97794000Y-44539000D02*
X104206000Y-44539000D01*
X97746000Y-44579000D02*
X104254000Y-44579000D01*
X97699000Y-44619000D02*
X104301000Y-44619000D01*
X97653000Y-44659000D02*
X104347000Y-44659000D01*
X97608000Y-44699000D02*
X104392000Y-44699000D01*
X97564000Y-44739000D02*
X104436000Y-44739000D01*
X102241000Y-44779000D02*
X104478000Y-44779000D01*
X97522000Y-44779000D02*
X99759000Y-44779000D01*
X102241000Y-44819000D02*
X104520000Y-44819000D01*
X97480000Y-44819000D02*
X99759000Y-44819000D01*
X102241000Y-44859000D02*
X104561000Y-44859000D01*
X97439000Y-44859000D02*
X99759000Y-44859000D01*
X102241000Y-44899000D02*
X104601000Y-44899000D01*
X97399000Y-44899000D02*
X99759000Y-44899000D01*
X102241000Y-44939000D02*
X104640000Y-44939000D01*
X97360000Y-44939000D02*
X99759000Y-44939000D01*
X102241000Y-44979000D02*
X104679000Y-44979000D01*
X97321000Y-44979000D02*
X99759000Y-44979000D01*
X102241000Y-45019000D02*
X104716000Y-45019000D01*
X97284000Y-45019000D02*
X99759000Y-45019000D01*
X102241000Y-45059000D02*
X104753000Y-45059000D01*
X97247000Y-45059000D02*
X99759000Y-45059000D01*
X102241000Y-45099000D02*
X104789000Y-45099000D01*
X97211000Y-45099000D02*
X99759000Y-45099000D01*
X102241000Y-45139000D02*
X104824000Y-45139000D01*
X97176000Y-45139000D02*
X99759000Y-45139000D01*
X102241000Y-45179000D02*
X104858000Y-45179000D01*
X97142000Y-45179000D02*
X99759000Y-45179000D01*
X102241000Y-45219000D02*
X104892000Y-45219000D01*
X97108000Y-45219000D02*
X99759000Y-45219000D01*
X102241000Y-45259000D02*
X104925000Y-45259000D01*
X97075000Y-45259000D02*
X99759000Y-45259000D01*
X102241000Y-45299000D02*
X104957000Y-45299000D01*
X97043000Y-45299000D02*
X99759000Y-45299000D01*
X102241000Y-45339000D02*
X104989000Y-45339000D01*
X97011000Y-45339000D02*
X99759000Y-45339000D01*
X102241000Y-45379000D02*
X105020000Y-45379000D01*
X96980000Y-45379000D02*
X99759000Y-45379000D01*
X102241000Y-45419000D02*
X105050000Y-45419000D01*
X96950000Y-45419000D02*
X99759000Y-45419000D01*
X102241000Y-45459000D02*
X105080000Y-45459000D01*
X96920000Y-45459000D02*
X99759000Y-45459000D01*
X102241000Y-45499000D02*
X105110000Y-45499000D01*
X96890000Y-45499000D02*
X99759000Y-45499000D01*
X102241000Y-45539000D02*
X105138000Y-45539000D01*
X96862000Y-45539000D02*
X99759000Y-45539000D01*
X102241000Y-45579000D02*
X105166000Y-45579000D01*
X96834000Y-45579000D02*
X99759000Y-45579000D01*
X102241000Y-45619000D02*
X105194000Y-45619000D01*
X96806000Y-45619000D02*
X99759000Y-45619000D01*
X102241000Y-45659000D02*
X105221000Y-45659000D01*
X96779000Y-45659000D02*
X99759000Y-45659000D01*
X102241000Y-45699000D02*
X105247000Y-45699000D01*
X96753000Y-45699000D02*
X99759000Y-45699000D01*
X102241000Y-45739000D02*
X105273000Y-45739000D01*
X96727000Y-45739000D02*
X99759000Y-45739000D01*
X102241000Y-45779000D02*
X105298000Y-45779000D01*
X96702000Y-45779000D02*
X99759000Y-45779000D01*
X102241000Y-45819000D02*
X105323000Y-45819000D01*
X96677000Y-45819000D02*
X99759000Y-45819000D01*
X102241000Y-45859000D02*
X105347000Y-45859000D01*
X96653000Y-45859000D02*
X99759000Y-45859000D01*
X102241000Y-45899000D02*
X105371000Y-45899000D01*
X96629000Y-45899000D02*
X99759000Y-45899000D01*
X102241000Y-45939000D02*
X105395000Y-45939000D01*
X96605000Y-45939000D02*
X99759000Y-45939000D01*
X102241000Y-45979000D02*
X105417000Y-45979000D01*
X96583000Y-45979000D02*
X99759000Y-45979000D01*
X102241000Y-46019000D02*
X105440000Y-46019000D01*
X96560000Y-46019000D02*
X99759000Y-46019000D01*
X102241000Y-46059000D02*
X105462000Y-46059000D01*
X96538000Y-46059000D02*
X99759000Y-46059000D01*
X102241000Y-46099000D02*
X105483000Y-46099000D01*
X96517000Y-46099000D02*
X99759000Y-46099000D01*
X102241000Y-46139000D02*
X105504000Y-46139000D01*
X96496000Y-46139000D02*
X99759000Y-46139000D01*
X102241000Y-46179000D02*
X105525000Y-46179000D01*
X96475000Y-46179000D02*
X99759000Y-46179000D01*
X102241000Y-46219000D02*
X105545000Y-46219000D01*
X96455000Y-46219000D02*
X99759000Y-46219000D01*
X102241000Y-46259000D02*
X105564000Y-46259000D01*
X96436000Y-46259000D02*
X99759000Y-46259000D01*
X102241000Y-46299000D02*
X105584000Y-46299000D01*
X96416000Y-46299000D02*
X99759000Y-46299000D01*
X102241000Y-46339000D02*
X105603000Y-46339000D01*
X96397000Y-46339000D02*
X99759000Y-46339000D01*
X102241000Y-46379000D02*
X105621000Y-46379000D01*
X96379000Y-46379000D02*
X99759000Y-46379000D01*
X102241000Y-46419000D02*
X105639000Y-46419000D01*
X96361000Y-46419000D02*
X99759000Y-46419000D01*
X102241000Y-46459000D02*
X105657000Y-46459000D01*
X96343000Y-46459000D02*
X99759000Y-46459000D01*
X102241000Y-46499000D02*
X105674000Y-46499000D01*
X96326000Y-46499000D02*
X99759000Y-46499000D01*
X102241000Y-46539000D02*
X105690000Y-46539000D01*
X96310000Y-46539000D02*
X99759000Y-46539000D01*
X102241000Y-46579000D02*
X105707000Y-46579000D01*
X96293000Y-46579000D02*
X99759000Y-46579000D01*
X102241000Y-46619000D02*
X105723000Y-46619000D01*
X96277000Y-46619000D02*
X99759000Y-46619000D01*
X102241000Y-46659000D02*
X105738000Y-46659000D01*
X96262000Y-46659000D02*
X99759000Y-46659000D01*
X102241000Y-46699000D02*
X105754000Y-46699000D01*
X96246000Y-46699000D02*
X99759000Y-46699000D01*
X102241000Y-46739000D02*
X105768000Y-46739000D01*
X96232000Y-46739000D02*
X99759000Y-46739000D01*
X102241000Y-46779000D02*
X105783000Y-46779000D01*
X96217000Y-46779000D02*
X99759000Y-46779000D01*
X102241000Y-46819000D02*
X105797000Y-46819000D01*
X96203000Y-46819000D02*
X99759000Y-46819000D01*
X102241000Y-46859000D02*
X105811000Y-46859000D01*
X96189000Y-46859000D02*
X99759000Y-46859000D01*
X102241000Y-46899000D02*
X105824000Y-46899000D01*
X96176000Y-46899000D02*
X99759000Y-46899000D01*
X102241000Y-46939000D02*
X105837000Y-46939000D01*
X96163000Y-46939000D02*
X99759000Y-46939000D01*
X102241000Y-46979000D02*
X105850000Y-46979000D01*
X96150000Y-46979000D02*
X99759000Y-46979000D01*
X102241000Y-47019000D02*
X105862000Y-47019000D01*
X96138000Y-47019000D02*
X99759000Y-47019000D01*
X102241000Y-47059000D02*
X105874000Y-47059000D01*
X96126000Y-47059000D02*
X99759000Y-47059000D01*
X102241000Y-47099000D02*
X105885000Y-47099000D01*
X96115000Y-47099000D02*
X99759000Y-47099000D01*
X102241000Y-47139000D02*
X105897000Y-47139000D01*
X96103000Y-47139000D02*
X99759000Y-47139000D01*
X102241000Y-47179000D02*
X105907000Y-47179000D01*
X96093000Y-47179000D02*
X99759000Y-47179000D01*
X102241000Y-47219000D02*
X105918000Y-47219000D01*
X96082000Y-47219000D02*
X99759000Y-47219000D01*
X96072000Y-47259000D02*
X105928000Y-47259000D01*
X96062000Y-47299000D02*
X105938000Y-47299000D01*
X96053000Y-47339000D02*
X105947000Y-47339000D01*
X96044000Y-47379000D02*
X105956000Y-47379000D01*
X96035000Y-47419000D02*
X105965000Y-47419000D01*
X96026000Y-47459000D02*
X105974000Y-47459000D01*
X96018000Y-47499000D02*
X105982000Y-47499000D01*
X96010000Y-47539000D02*
X105990000Y-47539000D01*
X96003000Y-47579000D02*
X105997000Y-47579000D01*
X95996000Y-47619000D02*
X106004000Y-47619000D01*
X95989000Y-47659000D02*
X106011000Y-47659000D01*
X95982000Y-47699000D02*
X106018000Y-47699000D01*
X95976000Y-47739000D02*
X106024000Y-47739000D01*
X95970000Y-47779000D02*
X106030000Y-47779000D01*
X95965000Y-47820000D02*
X106035000Y-47820000D01*
X95960000Y-47860000D02*
X106040000Y-47860000D01*
X95955000Y-47900000D02*
X106045000Y-47900000D01*
X95950000Y-47940000D02*
X106050000Y-47940000D01*
X95946000Y-47980000D02*
X106054000Y-47980000D01*
X95942000Y-48020000D02*
X106058000Y-48020000D01*
X95938000Y-48060000D02*
X106062000Y-48060000D01*
X95935000Y-48100000D02*
X106065000Y-48100000D01*
X95932000Y-48140000D02*
X106068000Y-48140000D01*
X95930000Y-48180000D02*
X106070000Y-48180000D01*
X95927000Y-48220000D02*
X106073000Y-48220000D01*
X95925000Y-48260000D02*
X106075000Y-48260000D01*
X95923000Y-48300000D02*
X106077000Y-48300000D01*
X95922000Y-48340000D02*
X106078000Y-48340000D01*
X95921000Y-48380000D02*
X106079000Y-48380000D01*
X95920000Y-48420000D02*
X106080000Y-48420000D01*
X95920000Y-48460000D02*
X106080000Y-48460000D01*
X95920000Y-48500000D02*
X106080000Y-48500000D01*
X106120000Y-48500000D02*
G75*
G03*
X106120000Y-48500000I-5120000J0D01*
G01*
%TO.C,C2*%
X128130000Y-43380000D02*
X136870000Y-43380000D01*
X128130000Y-70120000D02*
X136870000Y-70120000D01*
X136870000Y-70120000D02*
X136870000Y-43380000D01*
X128130000Y-70120000D02*
X128130000Y-43380000D01*
%TO.C,C1*%
X98270000Y-77270000D02*
X95530000Y-77270000D01*
X98270000Y-72030000D02*
X95530000Y-72030000D01*
X95530000Y-72030000D02*
X95530000Y-77270000D01*
X98270000Y-72030000D02*
X98270000Y-77270000D01*
%TO.C,U1*%
D14*
X97772380Y-77951904D02*
X98581904Y-77951904D01*
X98677142Y-77904285D01*
X98724761Y-77856666D01*
X98772380Y-77761428D01*
X98772380Y-77570952D01*
X98724761Y-77475714D01*
X98677142Y-77428095D01*
X98581904Y-77380476D01*
X97772380Y-77380476D01*
X98772380Y-76380476D02*
X98772380Y-76951904D01*
X98772380Y-76666190D02*
X97772380Y-76666190D01*
X97915238Y-76761428D01*
X98010476Y-76856666D01*
X98058095Y-76951904D01*
X107061904Y-77035714D02*
X107061904Y-77702380D01*
X106823809Y-76654761D02*
X106585714Y-77369047D01*
X107204761Y-77369047D01*
X107776190Y-76702380D02*
X107871428Y-76702380D01*
X107966666Y-76750000D01*
X108014285Y-76797619D01*
X108061904Y-76892857D01*
X108109523Y-77083333D01*
X108109523Y-77321428D01*
X108061904Y-77511904D01*
X108014285Y-77607142D01*
X107966666Y-77654761D01*
X107871428Y-77702380D01*
X107776190Y-77702380D01*
X107680952Y-77654761D01*
X107633333Y-77607142D01*
X107585714Y-77511904D01*
X107538095Y-77321428D01*
X107538095Y-77083333D01*
X107585714Y-76892857D01*
X107633333Y-76797619D01*
X107680952Y-76750000D01*
X107776190Y-76702380D01*
X109061904Y-77702380D02*
X108490476Y-77702380D01*
X108776190Y-77702380D02*
X108776190Y-76702380D01*
X108680952Y-76845238D01*
X108585714Y-76940476D01*
X108490476Y-76988095D01*
X110014285Y-77702380D02*
X109442857Y-77702380D01*
X109728571Y-77702380D02*
X109728571Y-76702380D01*
X109633333Y-76845238D01*
X109538095Y-76940476D01*
X109442857Y-76988095D01*
%TO.C,TH1*%
X90764285Y-40202380D02*
X91335714Y-40202380D01*
X91050000Y-41202380D02*
X91050000Y-40202380D01*
X91669047Y-41202380D02*
X91669047Y-40202380D01*
X91669047Y-40678571D02*
X92240476Y-40678571D01*
X92240476Y-41202380D02*
X92240476Y-40202380D01*
X93240476Y-41202380D02*
X92669047Y-41202380D01*
X92954761Y-41202380D02*
X92954761Y-40202380D01*
X92859523Y-40345238D01*
X92764285Y-40440476D01*
X92669047Y-40488095D01*
%TO.C,R18*%
X76977142Y-40632380D02*
X76643809Y-40156190D01*
X76405714Y-40632380D02*
X76405714Y-39632380D01*
X76786666Y-39632380D01*
X76881904Y-39680000D01*
X76929523Y-39727619D01*
X76977142Y-39822857D01*
X76977142Y-39965714D01*
X76929523Y-40060952D01*
X76881904Y-40108571D01*
X76786666Y-40156190D01*
X76405714Y-40156190D01*
X77929523Y-40632380D02*
X77358095Y-40632380D01*
X77643809Y-40632380D02*
X77643809Y-39632380D01*
X77548571Y-39775238D01*
X77453333Y-39870476D01*
X77358095Y-39918095D01*
X78500952Y-40060952D02*
X78405714Y-40013333D01*
X78358095Y-39965714D01*
X78310476Y-39870476D01*
X78310476Y-39822857D01*
X78358095Y-39727619D01*
X78405714Y-39680000D01*
X78500952Y-39632380D01*
X78691428Y-39632380D01*
X78786666Y-39680000D01*
X78834285Y-39727619D01*
X78881904Y-39822857D01*
X78881904Y-39870476D01*
X78834285Y-39965714D01*
X78786666Y-40013333D01*
X78691428Y-40060952D01*
X78500952Y-40060952D01*
X78405714Y-40108571D01*
X78358095Y-40156190D01*
X78310476Y-40251428D01*
X78310476Y-40441904D01*
X78358095Y-40537142D01*
X78405714Y-40584761D01*
X78500952Y-40632380D01*
X78691428Y-40632380D01*
X78786666Y-40584761D01*
X78834285Y-40537142D01*
X78881904Y-40441904D01*
X78881904Y-40251428D01*
X78834285Y-40156190D01*
X78786666Y-40108571D01*
X78691428Y-40060952D01*
X76838095Y-43097619D02*
X76885714Y-43050000D01*
X76980952Y-43002380D01*
X77219047Y-43002380D01*
X77314285Y-43050000D01*
X77361904Y-43097619D01*
X77409523Y-43192857D01*
X77409523Y-43288095D01*
X77361904Y-43430952D01*
X76790476Y-44002380D01*
X77409523Y-44002380D01*
X77790476Y-43097619D02*
X77838095Y-43050000D01*
X77933333Y-43002380D01*
X78171428Y-43002380D01*
X78266666Y-43050000D01*
X78314285Y-43097619D01*
X78361904Y-43192857D01*
X78361904Y-43288095D01*
X78314285Y-43430952D01*
X77742857Y-44002380D01*
X78361904Y-44002380D01*
%TO.C,D5*%
X76722380Y-86238095D02*
X75722380Y-86238095D01*
X75722380Y-86000000D01*
X75770000Y-85857142D01*
X75865238Y-85761904D01*
X75960476Y-85714285D01*
X76150952Y-85666666D01*
X76293809Y-85666666D01*
X76484285Y-85714285D01*
X76579523Y-85761904D01*
X76674761Y-85857142D01*
X76722380Y-86000000D01*
X76722380Y-86238095D01*
X75722380Y-84761904D02*
X75722380Y-85238095D01*
X76198571Y-85285714D01*
X76150952Y-85238095D01*
X76103333Y-85142857D01*
X76103333Y-84904761D01*
X76150952Y-84809523D01*
X76198571Y-84761904D01*
X76293809Y-84714285D01*
X76531904Y-84714285D01*
X76627142Y-84761904D01*
X76674761Y-84809523D01*
X76722380Y-84904761D01*
X76722380Y-85142857D01*
X76674761Y-85238095D01*
X76627142Y-85285714D01*
%TO.C,D4*%
X68182380Y-59238095D02*
X67182380Y-59238095D01*
X67182380Y-59000000D01*
X67230000Y-58857142D01*
X67325238Y-58761904D01*
X67420476Y-58714285D01*
X67610952Y-58666666D01*
X67753809Y-58666666D01*
X67944285Y-58714285D01*
X68039523Y-58761904D01*
X68134761Y-58857142D01*
X68182380Y-59000000D01*
X68182380Y-59238095D01*
X67515714Y-57809523D02*
X68182380Y-57809523D01*
X67134761Y-58047619D02*
X67849047Y-58285714D01*
X67849047Y-57666666D01*
%TO.C,Q2*%
X89004761Y-90647619D02*
X88909523Y-90600000D01*
X88814285Y-90504761D01*
X88671428Y-90361904D01*
X88576190Y-90314285D01*
X88480952Y-90314285D01*
X88528571Y-90552380D02*
X88433333Y-90504761D01*
X88338095Y-90409523D01*
X88290476Y-90219047D01*
X88290476Y-89885714D01*
X88338095Y-89695238D01*
X88433333Y-89600000D01*
X88528571Y-89552380D01*
X88719047Y-89552380D01*
X88814285Y-89600000D01*
X88909523Y-89695238D01*
X88957142Y-89885714D01*
X88957142Y-90219047D01*
X88909523Y-90409523D01*
X88814285Y-90504761D01*
X88719047Y-90552380D01*
X88528571Y-90552380D01*
X89338095Y-89647619D02*
X89385714Y-89600000D01*
X89480952Y-89552380D01*
X89719047Y-89552380D01*
X89814285Y-89600000D01*
X89861904Y-89647619D01*
X89909523Y-89742857D01*
X89909523Y-89838095D01*
X89861904Y-89980952D01*
X89290476Y-90552380D01*
X89909523Y-90552380D01*
X89585714Y-84997619D02*
X89633333Y-84950000D01*
X89728571Y-84902380D01*
X89966666Y-84902380D01*
X90061904Y-84950000D01*
X90109523Y-84997619D01*
X90157142Y-85092857D01*
X90157142Y-85188095D01*
X90109523Y-85330952D01*
X89538095Y-85902380D01*
X90157142Y-85902380D01*
X90585714Y-85902380D02*
X90585714Y-84902380D01*
X91157142Y-85902380D01*
X91157142Y-84902380D01*
X92061904Y-85235714D02*
X92061904Y-85902380D01*
X91823809Y-84854761D02*
X91585714Y-85569047D01*
X92204761Y-85569047D01*
X93014285Y-85235714D02*
X93014285Y-85902380D01*
X92776190Y-84854761D02*
X92538095Y-85569047D01*
X93157142Y-85569047D01*
X93728571Y-84902380D02*
X93823809Y-84902380D01*
X93919047Y-84950000D01*
X93966666Y-84997619D01*
X94014285Y-85092857D01*
X94061904Y-85283333D01*
X94061904Y-85521428D01*
X94014285Y-85711904D01*
X93966666Y-85807142D01*
X93919047Y-85854761D01*
X93823809Y-85902380D01*
X93728571Y-85902380D01*
X93633333Y-85854761D01*
X93585714Y-85807142D01*
X93538095Y-85711904D01*
X93490476Y-85521428D01*
X93490476Y-85283333D01*
X93538095Y-85092857D01*
X93585714Y-84997619D01*
X93633333Y-84950000D01*
X93728571Y-84902380D01*
X94395238Y-84902380D02*
X95014285Y-84902380D01*
X94680952Y-85283333D01*
X94823809Y-85283333D01*
X94919047Y-85330952D01*
X94966666Y-85378571D01*
X95014285Y-85473809D01*
X95014285Y-85711904D01*
X94966666Y-85807142D01*
X94919047Y-85854761D01*
X94823809Y-85902380D01*
X94538095Y-85902380D01*
X94442857Y-85854761D01*
X94395238Y-85807142D01*
%TO.C,Q1*%
X87554761Y-51547619D02*
X87459523Y-51500000D01*
X87364285Y-51404761D01*
X87221428Y-51261904D01*
X87126190Y-51214285D01*
X87030952Y-51214285D01*
X87078571Y-51452380D02*
X86983333Y-51404761D01*
X86888095Y-51309523D01*
X86840476Y-51119047D01*
X86840476Y-50785714D01*
X86888095Y-50595238D01*
X86983333Y-50500000D01*
X87078571Y-50452380D01*
X87269047Y-50452380D01*
X87364285Y-50500000D01*
X87459523Y-50595238D01*
X87507142Y-50785714D01*
X87507142Y-51119047D01*
X87459523Y-51309523D01*
X87364285Y-51404761D01*
X87269047Y-51452380D01*
X87078571Y-51452380D01*
X88459523Y-51452380D02*
X87888095Y-51452380D01*
X88173809Y-51452380D02*
X88173809Y-50452380D01*
X88078571Y-50595238D01*
X87983333Y-50690476D01*
X87888095Y-50738095D01*
X87785714Y-45697619D02*
X87833333Y-45650000D01*
X87928571Y-45602380D01*
X88166666Y-45602380D01*
X88261904Y-45650000D01*
X88309523Y-45697619D01*
X88357142Y-45792857D01*
X88357142Y-45888095D01*
X88309523Y-46030952D01*
X87738095Y-46602380D01*
X88357142Y-46602380D01*
X88785714Y-46602380D02*
X88785714Y-45602380D01*
X89357142Y-46602380D01*
X89357142Y-45602380D01*
X90261904Y-45935714D02*
X90261904Y-46602380D01*
X90023809Y-45554761D02*
X89785714Y-46269047D01*
X90404761Y-46269047D01*
X91214285Y-45935714D02*
X91214285Y-46602380D01*
X90976190Y-45554761D02*
X90738095Y-46269047D01*
X91357142Y-46269047D01*
X91928571Y-45602380D02*
X92023809Y-45602380D01*
X92119047Y-45650000D01*
X92166666Y-45697619D01*
X92214285Y-45792857D01*
X92261904Y-45983333D01*
X92261904Y-46221428D01*
X92214285Y-46411904D01*
X92166666Y-46507142D01*
X92119047Y-46554761D01*
X92023809Y-46602380D01*
X91928571Y-46602380D01*
X91833333Y-46554761D01*
X91785714Y-46507142D01*
X91738095Y-46411904D01*
X91690476Y-46221428D01*
X91690476Y-45983333D01*
X91738095Y-45792857D01*
X91785714Y-45697619D01*
X91833333Y-45650000D01*
X91928571Y-45602380D01*
X92595238Y-45602380D02*
X93214285Y-45602380D01*
X92880952Y-45983333D01*
X93023809Y-45983333D01*
X93119047Y-46030952D01*
X93166666Y-46078571D01*
X93214285Y-46173809D01*
X93214285Y-46411904D01*
X93166666Y-46507142D01*
X93119047Y-46554761D01*
X93023809Y-46602380D01*
X92738095Y-46602380D01*
X92642857Y-46554761D01*
X92595238Y-46507142D01*
%TO.C,U2*%
X100452380Y-67911904D02*
X101261904Y-67911904D01*
X101357142Y-67864285D01*
X101404761Y-67816666D01*
X101452380Y-67721428D01*
X101452380Y-67530952D01*
X101404761Y-67435714D01*
X101357142Y-67388095D01*
X101261904Y-67340476D01*
X100452380Y-67340476D01*
X100547619Y-66911904D02*
X100500000Y-66864285D01*
X100452380Y-66769047D01*
X100452380Y-66530952D01*
X100500000Y-66435714D01*
X100547619Y-66388095D01*
X100642857Y-66340476D01*
X100738095Y-66340476D01*
X100880952Y-66388095D01*
X101452380Y-66959523D01*
X101452380Y-66340476D01*
X109611904Y-63635714D02*
X109611904Y-64302380D01*
X109373809Y-63254761D02*
X109135714Y-63969047D01*
X109754761Y-63969047D01*
X110326190Y-63302380D02*
X110421428Y-63302380D01*
X110516666Y-63350000D01*
X110564285Y-63397619D01*
X110611904Y-63492857D01*
X110659523Y-63683333D01*
X110659523Y-63921428D01*
X110611904Y-64111904D01*
X110564285Y-64207142D01*
X110516666Y-64254761D01*
X110421428Y-64302380D01*
X110326190Y-64302380D01*
X110230952Y-64254761D01*
X110183333Y-64207142D01*
X110135714Y-64111904D01*
X110088095Y-63921428D01*
X110088095Y-63683333D01*
X110135714Y-63492857D01*
X110183333Y-63397619D01*
X110230952Y-63350000D01*
X110326190Y-63302380D01*
X111611904Y-64302380D02*
X111040476Y-64302380D01*
X111326190Y-64302380D02*
X111326190Y-63302380D01*
X111230952Y-63445238D01*
X111135714Y-63540476D01*
X111040476Y-63588095D01*
X111945238Y-63302380D02*
X112564285Y-63302380D01*
X112230952Y-63683333D01*
X112373809Y-63683333D01*
X112469047Y-63730952D01*
X112516666Y-63778571D01*
X112564285Y-63873809D01*
X112564285Y-64111904D01*
X112516666Y-64207142D01*
X112469047Y-64254761D01*
X112373809Y-64302380D01*
X112088095Y-64302380D01*
X111992857Y-64254761D01*
X111945238Y-64207142D01*
%TO.C,RV3*%
X68302380Y-98945238D02*
X67826190Y-99278571D01*
X68302380Y-99516666D02*
X67302380Y-99516666D01*
X67302380Y-99135714D01*
X67350000Y-99040476D01*
X67397619Y-98992857D01*
X67492857Y-98945238D01*
X67635714Y-98945238D01*
X67730952Y-98992857D01*
X67778571Y-99040476D01*
X67826190Y-99135714D01*
X67826190Y-99516666D01*
X67302380Y-98659523D02*
X68302380Y-98326190D01*
X67302380Y-97992857D01*
X67302380Y-97754761D02*
X67302380Y-97135714D01*
X67683333Y-97469047D01*
X67683333Y-97326190D01*
X67730952Y-97230952D01*
X67778571Y-97183333D01*
X67873809Y-97135714D01*
X68111904Y-97135714D01*
X68207142Y-97183333D01*
X68254761Y-97230952D01*
X68302380Y-97326190D01*
X68302380Y-97611904D01*
X68254761Y-97707142D01*
X68207142Y-97754761D01*
%TO.C,RV2*%
X68269050Y-41945238D02*
X67792860Y-42278571D01*
X68269050Y-42516666D02*
X67269050Y-42516666D01*
X67269050Y-42135714D01*
X67316670Y-42040476D01*
X67364289Y-41992857D01*
X67459527Y-41945238D01*
X67602384Y-41945238D01*
X67697622Y-41992857D01*
X67745241Y-42040476D01*
X67792860Y-42135714D01*
X67792860Y-42516666D01*
X67269050Y-41659523D02*
X68269050Y-41326190D01*
X67269050Y-40992857D01*
X67364289Y-40707142D02*
X67316670Y-40659523D01*
X67269050Y-40564285D01*
X67269050Y-40326190D01*
X67316670Y-40230952D01*
X67364289Y-40183333D01*
X67459527Y-40135714D01*
X67554765Y-40135714D01*
X67697622Y-40183333D01*
X68269050Y-40754761D01*
X68269050Y-40135714D01*
%TO.C,RV1*%
X75654761Y-68052380D02*
X75321428Y-67576190D01*
X75083333Y-68052380D02*
X75083333Y-67052380D01*
X75464285Y-67052380D01*
X75559523Y-67100000D01*
X75607142Y-67147619D01*
X75654761Y-67242857D01*
X75654761Y-67385714D01*
X75607142Y-67480952D01*
X75559523Y-67528571D01*
X75464285Y-67576190D01*
X75083333Y-67576190D01*
X75940476Y-67052380D02*
X76273809Y-68052380D01*
X76607142Y-67052380D01*
X77464285Y-68052380D02*
X76892857Y-68052380D01*
X77178571Y-68052380D02*
X77178571Y-67052380D01*
X77083333Y-67195238D01*
X76988095Y-67290476D01*
X76892857Y-67338095D01*
%TO.C,R17*%
X81707142Y-94052380D02*
X81373809Y-93576190D01*
X81135714Y-94052380D02*
X81135714Y-93052380D01*
X81516666Y-93052380D01*
X81611904Y-93100000D01*
X81659523Y-93147619D01*
X81707142Y-93242857D01*
X81707142Y-93385714D01*
X81659523Y-93480952D01*
X81611904Y-93528571D01*
X81516666Y-93576190D01*
X81135714Y-93576190D01*
X82659523Y-94052380D02*
X82088095Y-94052380D01*
X82373809Y-94052380D02*
X82373809Y-93052380D01*
X82278571Y-93195238D01*
X82183333Y-93290476D01*
X82088095Y-93338095D01*
X82992857Y-93052380D02*
X83659523Y-93052380D01*
X83230952Y-94052380D01*
X81654761Y-91802380D02*
X81083333Y-91802380D01*
X81369047Y-91802380D02*
X81369047Y-90802380D01*
X81273809Y-90945238D01*
X81178571Y-91040476D01*
X81083333Y-91088095D01*
X82273809Y-90802380D02*
X82369047Y-90802380D01*
X82464285Y-90850000D01*
X82511904Y-90897619D01*
X82559523Y-90992857D01*
X82607142Y-91183333D01*
X82607142Y-91421428D01*
X82559523Y-91611904D01*
X82511904Y-91707142D01*
X82464285Y-91754761D01*
X82369047Y-91802380D01*
X82273809Y-91802380D01*
X82178571Y-91754761D01*
X82130952Y-91707142D01*
X82083333Y-91611904D01*
X82035714Y-91421428D01*
X82035714Y-91183333D01*
X82083333Y-90992857D01*
X82130952Y-90897619D01*
X82178571Y-90850000D01*
X82273809Y-90802380D01*
X83035714Y-91802380D02*
X83035714Y-90802380D01*
X83130952Y-91421428D02*
X83416666Y-91802380D01*
X83416666Y-91135714D02*
X83035714Y-91516666D01*
%TO.C,R16*%
X81557142Y-86352380D02*
X81223809Y-85876190D01*
X80985714Y-86352380D02*
X80985714Y-85352380D01*
X81366666Y-85352380D01*
X81461904Y-85400000D01*
X81509523Y-85447619D01*
X81557142Y-85542857D01*
X81557142Y-85685714D01*
X81509523Y-85780952D01*
X81461904Y-85828571D01*
X81366666Y-85876190D01*
X80985714Y-85876190D01*
X82509523Y-86352380D02*
X81938095Y-86352380D01*
X82223809Y-86352380D02*
X82223809Y-85352380D01*
X82128571Y-85495238D01*
X82033333Y-85590476D01*
X81938095Y-85638095D01*
X83366666Y-85352380D02*
X83176190Y-85352380D01*
X83080952Y-85400000D01*
X83033333Y-85447619D01*
X82938095Y-85590476D01*
X82890476Y-85780952D01*
X82890476Y-86161904D01*
X82938095Y-86257142D01*
X82985714Y-86304761D01*
X83080952Y-86352380D01*
X83271428Y-86352380D01*
X83366666Y-86304761D01*
X83414285Y-86257142D01*
X83461904Y-86161904D01*
X83461904Y-85923809D01*
X83414285Y-85828571D01*
X83366666Y-85780952D01*
X83271428Y-85733333D01*
X83080952Y-85733333D01*
X82985714Y-85780952D01*
X82938095Y-85828571D01*
X82890476Y-85923809D01*
X81418095Y-87452380D02*
X81227619Y-87452380D01*
X81132380Y-87500000D01*
X81084761Y-87547619D01*
X80989523Y-87690476D01*
X80941904Y-87880952D01*
X80941904Y-88261904D01*
X80989523Y-88357142D01*
X81037142Y-88404761D01*
X81132380Y-88452380D01*
X81322857Y-88452380D01*
X81418095Y-88404761D01*
X81465714Y-88357142D01*
X81513333Y-88261904D01*
X81513333Y-88023809D01*
X81465714Y-87928571D01*
X81418095Y-87880952D01*
X81322857Y-87833333D01*
X81132380Y-87833333D01*
X81037142Y-87880952D01*
X80989523Y-87928571D01*
X80941904Y-88023809D01*
X82084761Y-87880952D02*
X81989523Y-87833333D01*
X81941904Y-87785714D01*
X81894285Y-87690476D01*
X81894285Y-87642857D01*
X81941904Y-87547619D01*
X81989523Y-87500000D01*
X82084761Y-87452380D01*
X82275238Y-87452380D01*
X82370476Y-87500000D01*
X82418095Y-87547619D01*
X82465714Y-87642857D01*
X82465714Y-87690476D01*
X82418095Y-87785714D01*
X82370476Y-87833333D01*
X82275238Y-87880952D01*
X82084761Y-87880952D01*
X81989523Y-87928571D01*
X81941904Y-87976190D01*
X81894285Y-88071428D01*
X81894285Y-88261904D01*
X81941904Y-88357142D01*
X81989523Y-88404761D01*
X82084761Y-88452380D01*
X82275238Y-88452380D01*
X82370476Y-88404761D01*
X82418095Y-88357142D01*
X82465714Y-88261904D01*
X82465714Y-88071428D01*
X82418095Y-87976190D01*
X82370476Y-87928571D01*
X82275238Y-87880952D01*
X83084761Y-87452380D02*
X83180000Y-87452380D01*
X83275238Y-87500000D01*
X83322857Y-87547619D01*
X83370476Y-87642857D01*
X83418095Y-87833333D01*
X83418095Y-88071428D01*
X83370476Y-88261904D01*
X83322857Y-88357142D01*
X83275238Y-88404761D01*
X83180000Y-88452380D01*
X83084761Y-88452380D01*
X82989523Y-88404761D01*
X82941904Y-88357142D01*
X82894285Y-88261904D01*
X82846666Y-88071428D01*
X82846666Y-87833333D01*
X82894285Y-87642857D01*
X82941904Y-87547619D01*
X82989523Y-87500000D01*
X83084761Y-87452380D01*
%TO.C,R15*%
X79457142Y-54752380D02*
X79123809Y-54276190D01*
X78885714Y-54752380D02*
X78885714Y-53752380D01*
X79266666Y-53752380D01*
X79361904Y-53800000D01*
X79409523Y-53847619D01*
X79457142Y-53942857D01*
X79457142Y-54085714D01*
X79409523Y-54180952D01*
X79361904Y-54228571D01*
X79266666Y-54276190D01*
X78885714Y-54276190D01*
X80409523Y-54752380D02*
X79838095Y-54752380D01*
X80123809Y-54752380D02*
X80123809Y-53752380D01*
X80028571Y-53895238D01*
X79933333Y-53990476D01*
X79838095Y-54038095D01*
X81314285Y-53752380D02*
X80838095Y-53752380D01*
X80790476Y-54228571D01*
X80838095Y-54180952D01*
X80933333Y-54133333D01*
X81171428Y-54133333D01*
X81266666Y-54180952D01*
X81314285Y-54228571D01*
X81361904Y-54323809D01*
X81361904Y-54561904D01*
X81314285Y-54657142D01*
X81266666Y-54704761D01*
X81171428Y-54752380D01*
X80933333Y-54752380D01*
X80838095Y-54704761D01*
X80790476Y-54657142D01*
X79634761Y-52452380D02*
X79063333Y-52452380D01*
X79349047Y-52452380D02*
X79349047Y-51452380D01*
X79253809Y-51595238D01*
X79158571Y-51690476D01*
X79063333Y-51738095D01*
X80253809Y-51452380D02*
X80349047Y-51452380D01*
X80444285Y-51500000D01*
X80491904Y-51547619D01*
X80539523Y-51642857D01*
X80587142Y-51833333D01*
X80587142Y-52071428D01*
X80539523Y-52261904D01*
X80491904Y-52357142D01*
X80444285Y-52404761D01*
X80349047Y-52452380D01*
X80253809Y-52452380D01*
X80158571Y-52404761D01*
X80110952Y-52357142D01*
X80063333Y-52261904D01*
X80015714Y-52071428D01*
X80015714Y-51833333D01*
X80063333Y-51642857D01*
X80110952Y-51547619D01*
X80158571Y-51500000D01*
X80253809Y-51452380D01*
X81015714Y-52452380D02*
X81015714Y-51452380D01*
X81110952Y-52071428D02*
X81396666Y-52452380D01*
X81396666Y-51785714D02*
X81015714Y-52166666D01*
%TO.C,R14*%
X71857142Y-48902380D02*
X71523809Y-48426190D01*
X71285714Y-48902380D02*
X71285714Y-47902380D01*
X71666666Y-47902380D01*
X71761904Y-47950000D01*
X71809523Y-47997619D01*
X71857142Y-48092857D01*
X71857142Y-48235714D01*
X71809523Y-48330952D01*
X71761904Y-48378571D01*
X71666666Y-48426190D01*
X71285714Y-48426190D01*
X72809523Y-48902380D02*
X72238095Y-48902380D01*
X72523809Y-48902380D02*
X72523809Y-47902380D01*
X72428571Y-48045238D01*
X72333333Y-48140476D01*
X72238095Y-48188095D01*
X73666666Y-48235714D02*
X73666666Y-48902380D01*
X73428571Y-47854761D02*
X73190476Y-48569047D01*
X73809523Y-48569047D01*
X79498095Y-48202380D02*
X79307619Y-48202380D01*
X79212380Y-48250000D01*
X79164761Y-48297619D01*
X79069523Y-48440476D01*
X79021904Y-48630952D01*
X79021904Y-49011904D01*
X79069523Y-49107142D01*
X79117142Y-49154761D01*
X79212380Y-49202380D01*
X79402857Y-49202380D01*
X79498095Y-49154761D01*
X79545714Y-49107142D01*
X79593333Y-49011904D01*
X79593333Y-48773809D01*
X79545714Y-48678571D01*
X79498095Y-48630952D01*
X79402857Y-48583333D01*
X79212380Y-48583333D01*
X79117142Y-48630952D01*
X79069523Y-48678571D01*
X79021904Y-48773809D01*
X80164761Y-48630952D02*
X80069523Y-48583333D01*
X80021904Y-48535714D01*
X79974285Y-48440476D01*
X79974285Y-48392857D01*
X80021904Y-48297619D01*
X80069523Y-48250000D01*
X80164761Y-48202380D01*
X80355238Y-48202380D01*
X80450476Y-48250000D01*
X80498095Y-48297619D01*
X80545714Y-48392857D01*
X80545714Y-48440476D01*
X80498095Y-48535714D01*
X80450476Y-48583333D01*
X80355238Y-48630952D01*
X80164761Y-48630952D01*
X80069523Y-48678571D01*
X80021904Y-48726190D01*
X79974285Y-48821428D01*
X79974285Y-49011904D01*
X80021904Y-49107142D01*
X80069523Y-49154761D01*
X80164761Y-49202380D01*
X80355238Y-49202380D01*
X80450476Y-49154761D01*
X80498095Y-49107142D01*
X80545714Y-49011904D01*
X80545714Y-48821428D01*
X80498095Y-48726190D01*
X80450476Y-48678571D01*
X80355238Y-48630952D01*
X81164761Y-48202380D02*
X81260000Y-48202380D01*
X81355238Y-48250000D01*
X81402857Y-48297619D01*
X81450476Y-48392857D01*
X81498095Y-48583333D01*
X81498095Y-48821428D01*
X81450476Y-49011904D01*
X81402857Y-49107142D01*
X81355238Y-49154761D01*
X81260000Y-49202380D01*
X81164761Y-49202380D01*
X81069523Y-49154761D01*
X81021904Y-49107142D01*
X80974285Y-49011904D01*
X80926666Y-48821428D01*
X80926666Y-48583333D01*
X80974285Y-48392857D01*
X81021904Y-48297619D01*
X81069523Y-48250000D01*
X81164761Y-48202380D01*
%TO.C,R13*%
X84502380Y-79172857D02*
X84026190Y-79506190D01*
X84502380Y-79744285D02*
X83502380Y-79744285D01*
X83502380Y-79363333D01*
X83550000Y-79268095D01*
X83597619Y-79220476D01*
X83692857Y-79172857D01*
X83835714Y-79172857D01*
X83930952Y-79220476D01*
X83978571Y-79268095D01*
X84026190Y-79363333D01*
X84026190Y-79744285D01*
X84502380Y-78220476D02*
X84502380Y-78791904D01*
X84502380Y-78506190D02*
X83502380Y-78506190D01*
X83645238Y-78601428D01*
X83740476Y-78696666D01*
X83788095Y-78791904D01*
X83502380Y-77887142D02*
X83502380Y-77268095D01*
X83883333Y-77601428D01*
X83883333Y-77458571D01*
X83930952Y-77363333D01*
X83978571Y-77315714D01*
X84073809Y-77268095D01*
X84311904Y-77268095D01*
X84407142Y-77315714D01*
X84454761Y-77363333D01*
X84502380Y-77458571D01*
X84502380Y-77744285D01*
X84454761Y-77839523D01*
X84407142Y-77887142D01*
X86602380Y-79871428D02*
X86602380Y-80442857D01*
X86602380Y-80157142D02*
X85602380Y-80157142D01*
X85745238Y-80252380D01*
X85840476Y-80347619D01*
X85888095Y-80442857D01*
X85602380Y-79252380D02*
X85602380Y-79157142D01*
X85650000Y-79061904D01*
X85697619Y-79014285D01*
X85792857Y-78966666D01*
X85983333Y-78919047D01*
X86221428Y-78919047D01*
X86411904Y-78966666D01*
X86507142Y-79014285D01*
X86554761Y-79061904D01*
X86602380Y-79157142D01*
X86602380Y-79252380D01*
X86554761Y-79347619D01*
X86507142Y-79395238D01*
X86411904Y-79442857D01*
X86221428Y-79490476D01*
X85983333Y-79490476D01*
X85792857Y-79442857D01*
X85697619Y-79395238D01*
X85650000Y-79347619D01*
X85602380Y-79252380D01*
X85602380Y-78300000D02*
X85602380Y-78204761D01*
X85650000Y-78109523D01*
X85697619Y-78061904D01*
X85792857Y-78014285D01*
X85983333Y-77966666D01*
X86221428Y-77966666D01*
X86411904Y-78014285D01*
X86507142Y-78061904D01*
X86554761Y-78109523D01*
X86602380Y-78204761D01*
X86602380Y-78300000D01*
X86554761Y-78395238D01*
X86507142Y-78442857D01*
X86411904Y-78490476D01*
X86221428Y-78538095D01*
X85983333Y-78538095D01*
X85792857Y-78490476D01*
X85697619Y-78442857D01*
X85650000Y-78395238D01*
X85602380Y-78300000D01*
X86602380Y-77538095D02*
X85602380Y-77538095D01*
X86221428Y-77442857D02*
X86602380Y-77157142D01*
X85935714Y-77157142D02*
X86316666Y-77538095D01*
%TO.C,R12*%
X88802380Y-58542857D02*
X88326190Y-58876190D01*
X88802380Y-59114285D02*
X87802380Y-59114285D01*
X87802380Y-58733333D01*
X87850000Y-58638095D01*
X87897619Y-58590476D01*
X87992857Y-58542857D01*
X88135714Y-58542857D01*
X88230952Y-58590476D01*
X88278571Y-58638095D01*
X88326190Y-58733333D01*
X88326190Y-59114285D01*
X88802380Y-57590476D02*
X88802380Y-58161904D01*
X88802380Y-57876190D02*
X87802380Y-57876190D01*
X87945238Y-57971428D01*
X88040476Y-58066666D01*
X88088095Y-58161904D01*
X87897619Y-57209523D02*
X87850000Y-57161904D01*
X87802380Y-57066666D01*
X87802380Y-56828571D01*
X87850000Y-56733333D01*
X87897619Y-56685714D01*
X87992857Y-56638095D01*
X88088095Y-56638095D01*
X88230952Y-56685714D01*
X88802380Y-57257142D01*
X88802380Y-56638095D01*
X91002380Y-58671428D02*
X91002380Y-59242857D01*
X91002380Y-58957142D02*
X90002380Y-58957142D01*
X90145238Y-59052380D01*
X90240476Y-59147619D01*
X90288095Y-59242857D01*
X90002380Y-58052380D02*
X90002380Y-57957142D01*
X90050000Y-57861904D01*
X90097619Y-57814285D01*
X90192857Y-57766666D01*
X90383333Y-57719047D01*
X90621428Y-57719047D01*
X90811904Y-57766666D01*
X90907142Y-57814285D01*
X90954761Y-57861904D01*
X91002380Y-57957142D01*
X91002380Y-58052380D01*
X90954761Y-58147619D01*
X90907142Y-58195238D01*
X90811904Y-58242857D01*
X90621428Y-58290476D01*
X90383333Y-58290476D01*
X90192857Y-58242857D01*
X90097619Y-58195238D01*
X90050000Y-58147619D01*
X90002380Y-58052380D01*
X90002380Y-57100000D02*
X90002380Y-57004761D01*
X90050000Y-56909523D01*
X90097619Y-56861904D01*
X90192857Y-56814285D01*
X90383333Y-56766666D01*
X90621428Y-56766666D01*
X90811904Y-56814285D01*
X90907142Y-56861904D01*
X90954761Y-56909523D01*
X91002380Y-57004761D01*
X91002380Y-57100000D01*
X90954761Y-57195238D01*
X90907142Y-57242857D01*
X90811904Y-57290476D01*
X90621428Y-57338095D01*
X90383333Y-57338095D01*
X90192857Y-57290476D01*
X90097619Y-57242857D01*
X90050000Y-57195238D01*
X90002380Y-57100000D01*
X91002380Y-56338095D02*
X90002380Y-56338095D01*
X90621428Y-56242857D02*
X91002380Y-55957142D01*
X90335714Y-55957142D02*
X90716666Y-56338095D01*
%TO.C,R11*%
X96302380Y-58392857D02*
X95826190Y-58726190D01*
X96302380Y-58964285D02*
X95302380Y-58964285D01*
X95302380Y-58583333D01*
X95350000Y-58488095D01*
X95397619Y-58440476D01*
X95492857Y-58392857D01*
X95635714Y-58392857D01*
X95730952Y-58440476D01*
X95778571Y-58488095D01*
X95826190Y-58583333D01*
X95826190Y-58964285D01*
X96302380Y-57440476D02*
X96302380Y-58011904D01*
X96302380Y-57726190D02*
X95302380Y-57726190D01*
X95445238Y-57821428D01*
X95540476Y-57916666D01*
X95588095Y-58011904D01*
X96302380Y-56488095D02*
X96302380Y-57059523D01*
X96302380Y-56773809D02*
X95302380Y-56773809D01*
X95445238Y-56869047D01*
X95540476Y-56964285D01*
X95588095Y-57059523D01*
X93297619Y-58766666D02*
X93250000Y-58719047D01*
X93202380Y-58623809D01*
X93202380Y-58385714D01*
X93250000Y-58290476D01*
X93297619Y-58242857D01*
X93392857Y-58195238D01*
X93488095Y-58195238D01*
X93630952Y-58242857D01*
X94202380Y-58814285D01*
X94202380Y-58195238D01*
X93297619Y-57814285D02*
X93250000Y-57766666D01*
X93202380Y-57671428D01*
X93202380Y-57433333D01*
X93250000Y-57338095D01*
X93297619Y-57290476D01*
X93392857Y-57242857D01*
X93488095Y-57242857D01*
X93630952Y-57290476D01*
X94202380Y-57861904D01*
X94202380Y-57242857D01*
X94202380Y-56814285D02*
X93202380Y-56814285D01*
X93821428Y-56719047D02*
X94202380Y-56433333D01*
X93535714Y-56433333D02*
X93916666Y-56814285D01*
%TO.C,R10*%
X92002380Y-79142857D02*
X91526190Y-79476190D01*
X92002380Y-79714285D02*
X91002380Y-79714285D01*
X91002380Y-79333333D01*
X91050000Y-79238095D01*
X91097619Y-79190476D01*
X91192857Y-79142857D01*
X91335714Y-79142857D01*
X91430952Y-79190476D01*
X91478571Y-79238095D01*
X91526190Y-79333333D01*
X91526190Y-79714285D01*
X92002380Y-78190476D02*
X92002380Y-78761904D01*
X92002380Y-78476190D02*
X91002380Y-78476190D01*
X91145238Y-78571428D01*
X91240476Y-78666666D01*
X91288095Y-78761904D01*
X91002380Y-77571428D02*
X91002380Y-77476190D01*
X91050000Y-77380952D01*
X91097619Y-77333333D01*
X91192857Y-77285714D01*
X91383333Y-77238095D01*
X91621428Y-77238095D01*
X91811904Y-77285714D01*
X91907142Y-77333333D01*
X91954761Y-77380952D01*
X92002380Y-77476190D01*
X92002380Y-77571428D01*
X91954761Y-77666666D01*
X91907142Y-77714285D01*
X91811904Y-77761904D01*
X91621428Y-77809523D01*
X91383333Y-77809523D01*
X91192857Y-77761904D01*
X91097619Y-77714285D01*
X91050000Y-77666666D01*
X91002380Y-77571428D01*
X88847619Y-79716666D02*
X88800000Y-79669047D01*
X88752380Y-79573809D01*
X88752380Y-79335714D01*
X88800000Y-79240476D01*
X88847619Y-79192857D01*
X88942857Y-79145238D01*
X89038095Y-79145238D01*
X89180952Y-79192857D01*
X89752380Y-79764285D01*
X89752380Y-79145238D01*
X88847619Y-78764285D02*
X88800000Y-78716666D01*
X88752380Y-78621428D01*
X88752380Y-78383333D01*
X88800000Y-78288095D01*
X88847619Y-78240476D01*
X88942857Y-78192857D01*
X89038095Y-78192857D01*
X89180952Y-78240476D01*
X89752380Y-78811904D01*
X89752380Y-78192857D01*
X89752380Y-77764285D02*
X88752380Y-77764285D01*
X89371428Y-77669047D02*
X89752380Y-77383333D01*
X89085714Y-77383333D02*
X89466666Y-77764285D01*
%TO.C,R9*%
X87033333Y-64652380D02*
X86700000Y-64176190D01*
X86461904Y-64652380D02*
X86461904Y-63652380D01*
X86842857Y-63652380D01*
X86938095Y-63700000D01*
X86985714Y-63747619D01*
X87033333Y-63842857D01*
X87033333Y-63985714D01*
X86985714Y-64080952D01*
X86938095Y-64128571D01*
X86842857Y-64176190D01*
X86461904Y-64176190D01*
X87509523Y-64652380D02*
X87700000Y-64652380D01*
X87795238Y-64604761D01*
X87842857Y-64557142D01*
X87938095Y-64414285D01*
X87985714Y-64223809D01*
X87985714Y-63842857D01*
X87938095Y-63747619D01*
X87890476Y-63700000D01*
X87795238Y-63652380D01*
X87604761Y-63652380D01*
X87509523Y-63700000D01*
X87461904Y-63747619D01*
X87414285Y-63842857D01*
X87414285Y-64080952D01*
X87461904Y-64176190D01*
X87509523Y-64223809D01*
X87604761Y-64271428D01*
X87795238Y-64271428D01*
X87890476Y-64223809D01*
X87938095Y-64176190D01*
X87985714Y-64080952D01*
X90109523Y-65502380D02*
X90728571Y-65502380D01*
X90395238Y-65883333D01*
X90538095Y-65883333D01*
X90633333Y-65930952D01*
X90680952Y-65978571D01*
X90728571Y-66073809D01*
X90728571Y-66311904D01*
X90680952Y-66407142D01*
X90633333Y-66454761D01*
X90538095Y-66502380D01*
X90252380Y-66502380D01*
X90157142Y-66454761D01*
X90109523Y-66407142D01*
X91061904Y-65502380D02*
X91680952Y-65502380D01*
X91347619Y-65883333D01*
X91490476Y-65883333D01*
X91585714Y-65930952D01*
X91633333Y-65978571D01*
X91680952Y-66073809D01*
X91680952Y-66311904D01*
X91633333Y-66407142D01*
X91585714Y-66454761D01*
X91490476Y-66502380D01*
X91204761Y-66502380D01*
X91109523Y-66454761D01*
X91061904Y-66407142D01*
X92300000Y-65502380D02*
X92395238Y-65502380D01*
X92490476Y-65550000D01*
X92538095Y-65597619D01*
X92585714Y-65692857D01*
X92633333Y-65883333D01*
X92633333Y-66121428D01*
X92585714Y-66311904D01*
X92538095Y-66407142D01*
X92490476Y-66454761D01*
X92395238Y-66502380D01*
X92300000Y-66502380D01*
X92204761Y-66454761D01*
X92157142Y-66407142D01*
X92109523Y-66311904D01*
X92061904Y-66121428D01*
X92061904Y-65883333D01*
X92109523Y-65692857D01*
X92157142Y-65597619D01*
X92204761Y-65550000D01*
X92300000Y-65502380D01*
X93061904Y-66502380D02*
X93061904Y-65502380D01*
X93157142Y-66121428D02*
X93442857Y-66502380D01*
X93442857Y-65835714D02*
X93061904Y-66216666D01*
%TO.C,R8*%
X115533333Y-87152380D02*
X115200000Y-86676190D01*
X114961904Y-87152380D02*
X114961904Y-86152380D01*
X115342857Y-86152380D01*
X115438095Y-86200000D01*
X115485714Y-86247619D01*
X115533333Y-86342857D01*
X115533333Y-86485714D01*
X115485714Y-86580952D01*
X115438095Y-86628571D01*
X115342857Y-86676190D01*
X114961904Y-86676190D01*
X116104761Y-86580952D02*
X116009523Y-86533333D01*
X115961904Y-86485714D01*
X115914285Y-86390476D01*
X115914285Y-86342857D01*
X115961904Y-86247619D01*
X116009523Y-86200000D01*
X116104761Y-86152380D01*
X116295238Y-86152380D01*
X116390476Y-86200000D01*
X116438095Y-86247619D01*
X116485714Y-86342857D01*
X116485714Y-86390476D01*
X116438095Y-86485714D01*
X116390476Y-86533333D01*
X116295238Y-86580952D01*
X116104761Y-86580952D01*
X116009523Y-86628571D01*
X115961904Y-86676190D01*
X115914285Y-86771428D01*
X115914285Y-86961904D01*
X115961904Y-87057142D01*
X116009523Y-87104761D01*
X116104761Y-87152380D01*
X116295238Y-87152380D01*
X116390476Y-87104761D01*
X116438095Y-87057142D01*
X116485714Y-86961904D01*
X116485714Y-86771428D01*
X116438095Y-86676190D01*
X116390476Y-86628571D01*
X116295238Y-86580952D01*
X114933333Y-84047619D02*
X114980952Y-84000000D01*
X115076190Y-83952380D01*
X115314285Y-83952380D01*
X115409523Y-84000000D01*
X115457142Y-84047619D01*
X115504761Y-84142857D01*
X115504761Y-84238095D01*
X115457142Y-84380952D01*
X114885714Y-84952380D01*
X115504761Y-84952380D01*
X115885714Y-84047619D02*
X115933333Y-84000000D01*
X116028571Y-83952380D01*
X116266666Y-83952380D01*
X116361904Y-84000000D01*
X116409523Y-84047619D01*
X116457142Y-84142857D01*
X116457142Y-84238095D01*
X116409523Y-84380952D01*
X115838095Y-84952380D01*
X116457142Y-84952380D01*
X116885714Y-84952380D02*
X116885714Y-83952380D01*
X116980952Y-84571428D02*
X117266666Y-84952380D01*
X117266666Y-84285714D02*
X116885714Y-84666666D01*
%TO.C,R7*%
X98732380Y-88936666D02*
X98256190Y-89270000D01*
X98732380Y-89508095D02*
X97732380Y-89508095D01*
X97732380Y-89127142D01*
X97780000Y-89031904D01*
X97827619Y-88984285D01*
X97922857Y-88936666D01*
X98065714Y-88936666D01*
X98160952Y-88984285D01*
X98208571Y-89031904D01*
X98256190Y-89127142D01*
X98256190Y-89508095D01*
X97732380Y-88603333D02*
X97732380Y-87936666D01*
X98732380Y-88365238D01*
X100102380Y-90330476D02*
X100102380Y-89711428D01*
X100483333Y-90044761D01*
X100483333Y-89901904D01*
X100530952Y-89806666D01*
X100578571Y-89759047D01*
X100673809Y-89711428D01*
X100911904Y-89711428D01*
X101007142Y-89759047D01*
X101054761Y-89806666D01*
X101102380Y-89901904D01*
X101102380Y-90187619D01*
X101054761Y-90282857D01*
X101007142Y-90330476D01*
X100102380Y-89378095D02*
X100102380Y-88759047D01*
X100483333Y-89092380D01*
X100483333Y-88949523D01*
X100530952Y-88854285D01*
X100578571Y-88806666D01*
X100673809Y-88759047D01*
X100911904Y-88759047D01*
X101007142Y-88806666D01*
X101054761Y-88854285D01*
X101102380Y-88949523D01*
X101102380Y-89235238D01*
X101054761Y-89330476D01*
X101007142Y-89378095D01*
X100102380Y-88140000D02*
X100102380Y-88044761D01*
X100150000Y-87949523D01*
X100197619Y-87901904D01*
X100292857Y-87854285D01*
X100483333Y-87806666D01*
X100721428Y-87806666D01*
X100911904Y-87854285D01*
X101007142Y-87901904D01*
X101054761Y-87949523D01*
X101102380Y-88044761D01*
X101102380Y-88140000D01*
X101054761Y-88235238D01*
X101007142Y-88282857D01*
X100911904Y-88330476D01*
X100721428Y-88378095D01*
X100483333Y-88378095D01*
X100292857Y-88330476D01*
X100197619Y-88282857D01*
X100150000Y-88235238D01*
X100102380Y-88140000D01*
X101102380Y-87378095D02*
X100102380Y-87378095D01*
X100721428Y-87282857D02*
X101102380Y-86997142D01*
X100435714Y-86997142D02*
X100816666Y-87378095D01*
%TO.C,R6*%
X107563333Y-53582380D02*
X107230000Y-53106190D01*
X106991904Y-53582380D02*
X106991904Y-52582380D01*
X107372857Y-52582380D01*
X107468095Y-52630000D01*
X107515714Y-52677619D01*
X107563333Y-52772857D01*
X107563333Y-52915714D01*
X107515714Y-53010952D01*
X107468095Y-53058571D01*
X107372857Y-53106190D01*
X106991904Y-53106190D01*
X108420476Y-52582380D02*
X108230000Y-52582380D01*
X108134761Y-52630000D01*
X108087142Y-52677619D01*
X107991904Y-52820476D01*
X107944285Y-53010952D01*
X107944285Y-53391904D01*
X107991904Y-53487142D01*
X108039523Y-53534761D01*
X108134761Y-53582380D01*
X108325238Y-53582380D01*
X108420476Y-53534761D01*
X108468095Y-53487142D01*
X108515714Y-53391904D01*
X108515714Y-53153809D01*
X108468095Y-53058571D01*
X108420476Y-53010952D01*
X108325238Y-52963333D01*
X108134761Y-52963333D01*
X108039523Y-53010952D01*
X107991904Y-53058571D01*
X107944285Y-53153809D01*
X107134761Y-55952380D02*
X106563333Y-55952380D01*
X106849047Y-55952380D02*
X106849047Y-54952380D01*
X106753809Y-55095238D01*
X106658571Y-55190476D01*
X106563333Y-55238095D01*
X107753809Y-54952380D02*
X107849047Y-54952380D01*
X107944285Y-55000000D01*
X107991904Y-55047619D01*
X108039523Y-55142857D01*
X108087142Y-55333333D01*
X108087142Y-55571428D01*
X108039523Y-55761904D01*
X107991904Y-55857142D01*
X107944285Y-55904761D01*
X107849047Y-55952380D01*
X107753809Y-55952380D01*
X107658571Y-55904761D01*
X107610952Y-55857142D01*
X107563333Y-55761904D01*
X107515714Y-55571428D01*
X107515714Y-55333333D01*
X107563333Y-55142857D01*
X107610952Y-55047619D01*
X107658571Y-55000000D01*
X107753809Y-54952380D01*
X108515714Y-55952380D02*
X108515714Y-54952380D01*
X108610952Y-55571428D02*
X108896666Y-55952380D01*
X108896666Y-55285714D02*
X108515714Y-55666666D01*
%TO.C,R5*%
X108803333Y-96722380D02*
X108470000Y-96246190D01*
X108231904Y-96722380D02*
X108231904Y-95722380D01*
X108612857Y-95722380D01*
X108708095Y-95770000D01*
X108755714Y-95817619D01*
X108803333Y-95912857D01*
X108803333Y-96055714D01*
X108755714Y-96150952D01*
X108708095Y-96198571D01*
X108612857Y-96246190D01*
X108231904Y-96246190D01*
X109708095Y-95722380D02*
X109231904Y-95722380D01*
X109184285Y-96198571D01*
X109231904Y-96150952D01*
X109327142Y-96103333D01*
X109565238Y-96103333D01*
X109660476Y-96150952D01*
X109708095Y-96198571D01*
X109755714Y-96293809D01*
X109755714Y-96531904D01*
X109708095Y-96627142D01*
X109660476Y-96674761D01*
X109565238Y-96722380D01*
X109327142Y-96722380D01*
X109231904Y-96674761D01*
X109184285Y-96627142D01*
X107499523Y-93352380D02*
X108118571Y-93352380D01*
X107785238Y-93733333D01*
X107928095Y-93733333D01*
X108023333Y-93780952D01*
X108070952Y-93828571D01*
X108118571Y-93923809D01*
X108118571Y-94161904D01*
X108070952Y-94257142D01*
X108023333Y-94304761D01*
X107928095Y-94352380D01*
X107642380Y-94352380D01*
X107547142Y-94304761D01*
X107499523Y-94257142D01*
X108451904Y-93352380D02*
X109070952Y-93352380D01*
X108737619Y-93733333D01*
X108880476Y-93733333D01*
X108975714Y-93780952D01*
X109023333Y-93828571D01*
X109070952Y-93923809D01*
X109070952Y-94161904D01*
X109023333Y-94257142D01*
X108975714Y-94304761D01*
X108880476Y-94352380D01*
X108594761Y-94352380D01*
X108499523Y-94304761D01*
X108451904Y-94257142D01*
X109690000Y-93352380D02*
X109785238Y-93352380D01*
X109880476Y-93400000D01*
X109928095Y-93447619D01*
X109975714Y-93542857D01*
X110023333Y-93733333D01*
X110023333Y-93971428D01*
X109975714Y-94161904D01*
X109928095Y-94257142D01*
X109880476Y-94304761D01*
X109785238Y-94352380D01*
X109690000Y-94352380D01*
X109594761Y-94304761D01*
X109547142Y-94257142D01*
X109499523Y-94161904D01*
X109451904Y-93971428D01*
X109451904Y-93733333D01*
X109499523Y-93542857D01*
X109547142Y-93447619D01*
X109594761Y-93400000D01*
X109690000Y-93352380D01*
X110451904Y-94352380D02*
X110451904Y-93352380D01*
X110547142Y-93971428D02*
X110832857Y-94352380D01*
X110832857Y-93685714D02*
X110451904Y-94066666D01*
%TO.C,R4*%
X122483333Y-96652380D02*
X122150000Y-96176190D01*
X121911904Y-96652380D02*
X121911904Y-95652380D01*
X122292857Y-95652380D01*
X122388095Y-95700000D01*
X122435714Y-95747619D01*
X122483333Y-95842857D01*
X122483333Y-95985714D01*
X122435714Y-96080952D01*
X122388095Y-96128571D01*
X122292857Y-96176190D01*
X121911904Y-96176190D01*
X123340476Y-95985714D02*
X123340476Y-96652380D01*
X123102380Y-95604761D02*
X122864285Y-96319047D01*
X123483333Y-96319047D01*
X120859523Y-93402380D02*
X121478571Y-93402380D01*
X121145238Y-93783333D01*
X121288095Y-93783333D01*
X121383333Y-93830952D01*
X121430952Y-93878571D01*
X121478571Y-93973809D01*
X121478571Y-94211904D01*
X121430952Y-94307142D01*
X121383333Y-94354761D01*
X121288095Y-94402380D01*
X121002380Y-94402380D01*
X120907142Y-94354761D01*
X120859523Y-94307142D01*
X121811904Y-93402380D02*
X122430952Y-93402380D01*
X122097619Y-93783333D01*
X122240476Y-93783333D01*
X122335714Y-93830952D01*
X122383333Y-93878571D01*
X122430952Y-93973809D01*
X122430952Y-94211904D01*
X122383333Y-94307142D01*
X122335714Y-94354761D01*
X122240476Y-94402380D01*
X121954761Y-94402380D01*
X121859523Y-94354761D01*
X121811904Y-94307142D01*
X123050000Y-93402380D02*
X123145238Y-93402380D01*
X123240476Y-93450000D01*
X123288095Y-93497619D01*
X123335714Y-93592857D01*
X123383333Y-93783333D01*
X123383333Y-94021428D01*
X123335714Y-94211904D01*
X123288095Y-94307142D01*
X123240476Y-94354761D01*
X123145238Y-94402380D01*
X123050000Y-94402380D01*
X122954761Y-94354761D01*
X122907142Y-94307142D01*
X122859523Y-94211904D01*
X122811904Y-94021428D01*
X122811904Y-93783333D01*
X122859523Y-93592857D01*
X122907142Y-93497619D01*
X122954761Y-93450000D01*
X123050000Y-93402380D01*
X123811904Y-94402380D02*
X123811904Y-93402380D01*
X123907142Y-94021428D02*
X124192857Y-94402380D01*
X124192857Y-93735714D02*
X123811904Y-94116666D01*
%TO.C,R3*%
X136452380Y-81046666D02*
X135976190Y-81380000D01*
X136452380Y-81618095D02*
X135452380Y-81618095D01*
X135452380Y-81237142D01*
X135500000Y-81141904D01*
X135547619Y-81094285D01*
X135642857Y-81046666D01*
X135785714Y-81046666D01*
X135880952Y-81094285D01*
X135928571Y-81141904D01*
X135976190Y-81237142D01*
X135976190Y-81618095D01*
X135452380Y-80713333D02*
X135452380Y-80094285D01*
X135833333Y-80427619D01*
X135833333Y-80284761D01*
X135880952Y-80189523D01*
X135928571Y-80141904D01*
X136023809Y-80094285D01*
X136261904Y-80094285D01*
X136357142Y-80141904D01*
X136404761Y-80189523D01*
X136452380Y-80284761D01*
X136452380Y-80570476D01*
X136404761Y-80665714D01*
X136357142Y-80713333D01*
X132047619Y-81641904D02*
X132000000Y-81594285D01*
X131952380Y-81499047D01*
X131952380Y-81260952D01*
X132000000Y-81165714D01*
X132047619Y-81118095D01*
X132142857Y-81070476D01*
X132238095Y-81070476D01*
X132380952Y-81118095D01*
X132952380Y-81689523D01*
X132952380Y-81070476D01*
X132047619Y-80689523D02*
X132000000Y-80641904D01*
X131952380Y-80546666D01*
X131952380Y-80308571D01*
X132000000Y-80213333D01*
X132047619Y-80165714D01*
X132142857Y-80118095D01*
X132238095Y-80118095D01*
X132380952Y-80165714D01*
X132952380Y-80737142D01*
X132952380Y-80118095D01*
%TO.C,R2*%
X123952380Y-50746666D02*
X123476190Y-51080000D01*
X123952380Y-51318095D02*
X122952380Y-51318095D01*
X122952380Y-50937142D01*
X123000000Y-50841904D01*
X123047619Y-50794285D01*
X123142857Y-50746666D01*
X123285714Y-50746666D01*
X123380952Y-50794285D01*
X123428571Y-50841904D01*
X123476190Y-50937142D01*
X123476190Y-51318095D01*
X123047619Y-50365714D02*
X123000000Y-50318095D01*
X122952380Y-50222857D01*
X122952380Y-49984761D01*
X123000000Y-49889523D01*
X123047619Y-49841904D01*
X123142857Y-49794285D01*
X123238095Y-49794285D01*
X123380952Y-49841904D01*
X123952380Y-50413333D01*
X123952380Y-49794285D01*
X125452380Y-52190476D02*
X125452380Y-51571428D01*
X125833333Y-51904761D01*
X125833333Y-51761904D01*
X125880952Y-51666666D01*
X125928571Y-51619047D01*
X126023809Y-51571428D01*
X126261904Y-51571428D01*
X126357142Y-51619047D01*
X126404761Y-51666666D01*
X126452380Y-51761904D01*
X126452380Y-52047619D01*
X126404761Y-52142857D01*
X126357142Y-52190476D01*
X125452380Y-51238095D02*
X125452380Y-50619047D01*
X125833333Y-50952380D01*
X125833333Y-50809523D01*
X125880952Y-50714285D01*
X125928571Y-50666666D01*
X126023809Y-50619047D01*
X126261904Y-50619047D01*
X126357142Y-50666666D01*
X126404761Y-50714285D01*
X126452380Y-50809523D01*
X126452380Y-51095238D01*
X126404761Y-51190476D01*
X126357142Y-51238095D01*
X125452380Y-50000000D02*
X125452380Y-49904761D01*
X125500000Y-49809523D01*
X125547619Y-49761904D01*
X125642857Y-49714285D01*
X125833333Y-49666666D01*
X126071428Y-49666666D01*
X126261904Y-49714285D01*
X126357142Y-49761904D01*
X126404761Y-49809523D01*
X126452380Y-49904761D01*
X126452380Y-50000000D01*
X126404761Y-50095238D01*
X126357142Y-50142857D01*
X126261904Y-50190476D01*
X126071428Y-50238095D01*
X125833333Y-50238095D01*
X125642857Y-50190476D01*
X125547619Y-50142857D01*
X125500000Y-50095238D01*
X125452380Y-50000000D01*
X126452380Y-49238095D02*
X125452380Y-49238095D01*
X126071428Y-49142857D02*
X126452380Y-48857142D01*
X125785714Y-48857142D02*
X126166666Y-49238095D01*
%TO.C,R1*%
X123952380Y-63166666D02*
X123476190Y-63500000D01*
X123952380Y-63738095D02*
X122952380Y-63738095D01*
X122952380Y-63357142D01*
X123000000Y-63261904D01*
X123047619Y-63214285D01*
X123142857Y-63166666D01*
X123285714Y-63166666D01*
X123380952Y-63214285D01*
X123428571Y-63261904D01*
X123476190Y-63357142D01*
X123476190Y-63738095D01*
X123952380Y-62214285D02*
X123952380Y-62785714D01*
X123952380Y-62500000D02*
X122952380Y-62500000D01*
X123095238Y-62595238D01*
X123190476Y-62690476D01*
X123238095Y-62785714D01*
X125452380Y-64610476D02*
X125452380Y-63991428D01*
X125833333Y-64324761D01*
X125833333Y-64181904D01*
X125880952Y-64086666D01*
X125928571Y-64039047D01*
X126023809Y-63991428D01*
X126261904Y-63991428D01*
X126357142Y-64039047D01*
X126404761Y-64086666D01*
X126452380Y-64181904D01*
X126452380Y-64467619D01*
X126404761Y-64562857D01*
X126357142Y-64610476D01*
X125452380Y-63658095D02*
X125452380Y-63039047D01*
X125833333Y-63372380D01*
X125833333Y-63229523D01*
X125880952Y-63134285D01*
X125928571Y-63086666D01*
X126023809Y-63039047D01*
X126261904Y-63039047D01*
X126357142Y-63086666D01*
X126404761Y-63134285D01*
X126452380Y-63229523D01*
X126452380Y-63515238D01*
X126404761Y-63610476D01*
X126357142Y-63658095D01*
X125452380Y-62420000D02*
X125452380Y-62324761D01*
X125500000Y-62229523D01*
X125547619Y-62181904D01*
X125642857Y-62134285D01*
X125833333Y-62086666D01*
X126071428Y-62086666D01*
X126261904Y-62134285D01*
X126357142Y-62181904D01*
X126404761Y-62229523D01*
X126452380Y-62324761D01*
X126452380Y-62420000D01*
X126404761Y-62515238D01*
X126357142Y-62562857D01*
X126261904Y-62610476D01*
X126071428Y-62658095D01*
X125833333Y-62658095D01*
X125642857Y-62610476D01*
X125547619Y-62562857D01*
X125500000Y-62515238D01*
X125452380Y-62420000D01*
X126452380Y-61658095D02*
X125452380Y-61658095D01*
X126071428Y-61562857D02*
X126452380Y-61277142D01*
X125785714Y-61277142D02*
X126166666Y-61658095D01*
%TO.C,D3*%
X112811904Y-58352380D02*
X112811904Y-57352380D01*
X113050000Y-57352380D01*
X113192857Y-57400000D01*
X113288095Y-57495238D01*
X113335714Y-57590476D01*
X113383333Y-57780952D01*
X113383333Y-57923809D01*
X113335714Y-58114285D01*
X113288095Y-58209523D01*
X113192857Y-58304761D01*
X113050000Y-58352380D01*
X112811904Y-58352380D01*
X113716666Y-57352380D02*
X114335714Y-57352380D01*
X114002380Y-57733333D01*
X114145238Y-57733333D01*
X114240476Y-57780952D01*
X114288095Y-57828571D01*
X114335714Y-57923809D01*
X114335714Y-58161904D01*
X114288095Y-58257142D01*
X114240476Y-58304761D01*
X114145238Y-58352380D01*
X113859523Y-58352380D01*
X113764285Y-58304761D01*
X113716666Y-58257142D01*
%TO.C,D2*%
X108961904Y-48552380D02*
X108961904Y-47552380D01*
X109200000Y-47552380D01*
X109342857Y-47600000D01*
X109438095Y-47695238D01*
X109485714Y-47790476D01*
X109533333Y-47980952D01*
X109533333Y-48123809D01*
X109485714Y-48314285D01*
X109438095Y-48409523D01*
X109342857Y-48504761D01*
X109200000Y-48552380D01*
X108961904Y-48552380D01*
X109914285Y-47647619D02*
X109961904Y-47600000D01*
X110057142Y-47552380D01*
X110295238Y-47552380D01*
X110390476Y-47600000D01*
X110438095Y-47647619D01*
X110485714Y-47742857D01*
X110485714Y-47838095D01*
X110438095Y-47980952D01*
X109866666Y-48552380D01*
X110485714Y-48552380D01*
X112703571Y-50602380D02*
X112317857Y-50602380D01*
X112510714Y-50602380D02*
X112510714Y-49602380D01*
X112446428Y-49745238D01*
X112382142Y-49840476D01*
X112317857Y-49888095D01*
X112992857Y-50602380D02*
X112992857Y-49602380D01*
X113378571Y-50602380D01*
X113378571Y-49602380D01*
X113989285Y-49935714D02*
X113989285Y-50602380D01*
X113828571Y-49554761D02*
X113667857Y-50269047D01*
X114085714Y-50269047D01*
X114471428Y-49602380D02*
X114535714Y-49602380D01*
X114600000Y-49650000D01*
X114632142Y-49697619D01*
X114664285Y-49792857D01*
X114696428Y-49983333D01*
X114696428Y-50221428D01*
X114664285Y-50411904D01*
X114632142Y-50507142D01*
X114600000Y-50554761D01*
X114535714Y-50602380D01*
X114471428Y-50602380D01*
X114407142Y-50554761D01*
X114375000Y-50507142D01*
X114342857Y-50411904D01*
X114310714Y-50221428D01*
X114310714Y-49983333D01*
X114342857Y-49792857D01*
X114375000Y-49697619D01*
X114407142Y-49650000D01*
X114471428Y-49602380D01*
X115114285Y-49602380D02*
X115178571Y-49602380D01*
X115242857Y-49650000D01*
X115275000Y-49697619D01*
X115307142Y-49792857D01*
X115339285Y-49983333D01*
X115339285Y-50221428D01*
X115307142Y-50411904D01*
X115275000Y-50507142D01*
X115242857Y-50554761D01*
X115178571Y-50602380D01*
X115114285Y-50602380D01*
X115050000Y-50554761D01*
X115017857Y-50507142D01*
X114985714Y-50411904D01*
X114953571Y-50221428D01*
X114953571Y-49983333D01*
X114985714Y-49792857D01*
X115017857Y-49697619D01*
X115050000Y-49650000D01*
X115114285Y-49602380D01*
X115950000Y-49602380D02*
X115628571Y-49602380D01*
X115596428Y-50078571D01*
X115628571Y-50030952D01*
X115692857Y-49983333D01*
X115853571Y-49983333D01*
X115917857Y-50030952D01*
X115950000Y-50078571D01*
X115982142Y-50173809D01*
X115982142Y-50411904D01*
X115950000Y-50507142D01*
X115917857Y-50554761D01*
X115853571Y-50602380D01*
X115692857Y-50602380D01*
X115628571Y-50554761D01*
X115596428Y-50507142D01*
%TO.C,D1*%
X113961904Y-43602380D02*
X113961904Y-42602380D01*
X114200000Y-42602380D01*
X114342857Y-42650000D01*
X114438095Y-42745238D01*
X114485714Y-42840476D01*
X114533333Y-43030952D01*
X114533333Y-43173809D01*
X114485714Y-43364285D01*
X114438095Y-43459523D01*
X114342857Y-43554761D01*
X114200000Y-43602380D01*
X113961904Y-43602380D01*
X115485714Y-43602380D02*
X114914285Y-43602380D01*
X115200000Y-43602380D02*
X115200000Y-42602380D01*
X115104761Y-42745238D01*
X115009523Y-42840476D01*
X114914285Y-42888095D01*
X114030952Y-45952380D02*
X113459523Y-45952380D01*
X113745238Y-45952380D02*
X113745238Y-44952380D01*
X113650000Y-45095238D01*
X113554761Y-45190476D01*
X113459523Y-45238095D01*
X114935714Y-44952380D02*
X114459523Y-44952380D01*
X114411904Y-45428571D01*
X114459523Y-45380952D01*
X114554761Y-45333333D01*
X114792857Y-45333333D01*
X114888095Y-45380952D01*
X114935714Y-45428571D01*
X114983333Y-45523809D01*
X114983333Y-45761904D01*
X114935714Y-45857142D01*
X114888095Y-45904761D01*
X114792857Y-45952380D01*
X114554761Y-45952380D01*
X114459523Y-45904761D01*
X114411904Y-45857142D01*
X115269047Y-44952380D02*
X115602380Y-45952380D01*
X115935714Y-44952380D01*
%TO.C,C6*%
X91583333Y-68957142D02*
X91535714Y-69004761D01*
X91392857Y-69052380D01*
X91297619Y-69052380D01*
X91154761Y-69004761D01*
X91059523Y-68909523D01*
X91011904Y-68814285D01*
X90964285Y-68623809D01*
X90964285Y-68480952D01*
X91011904Y-68290476D01*
X91059523Y-68195238D01*
X91154761Y-68100000D01*
X91297619Y-68052380D01*
X91392857Y-68052380D01*
X91535714Y-68100000D01*
X91583333Y-68147619D01*
X92440476Y-68052380D02*
X92250000Y-68052380D01*
X92154761Y-68100000D01*
X92107142Y-68147619D01*
X92011904Y-68290476D01*
X91964285Y-68480952D01*
X91964285Y-68861904D01*
X92011904Y-68957142D01*
X92059523Y-69004761D01*
X92154761Y-69052380D01*
X92345238Y-69052380D01*
X92440476Y-69004761D01*
X92488095Y-68957142D01*
X92535714Y-68861904D01*
X92535714Y-68623809D01*
X92488095Y-68528571D01*
X92440476Y-68480952D01*
X92345238Y-68433333D01*
X92154761Y-68433333D01*
X92059523Y-68480952D01*
X92011904Y-68528571D01*
X91964285Y-68623809D01*
X89007142Y-69452380D02*
X89102380Y-69452380D01*
X89197619Y-69500000D01*
X89245238Y-69547619D01*
X89292857Y-69642857D01*
X89340476Y-69833333D01*
X89340476Y-70071428D01*
X89292857Y-70261904D01*
X89245238Y-70357142D01*
X89197619Y-70404761D01*
X89102380Y-70452380D01*
X89007142Y-70452380D01*
X88911904Y-70404761D01*
X88864285Y-70357142D01*
X88816666Y-70261904D01*
X88769047Y-70071428D01*
X88769047Y-69833333D01*
X88816666Y-69642857D01*
X88864285Y-69547619D01*
X88911904Y-69500000D01*
X89007142Y-69452380D01*
X89769047Y-70357142D02*
X89816666Y-70404761D01*
X89769047Y-70452380D01*
X89721428Y-70404761D01*
X89769047Y-70357142D01*
X89769047Y-70452380D01*
X90769047Y-70452380D02*
X90197619Y-70452380D01*
X90483333Y-70452380D02*
X90483333Y-69452380D01*
X90388095Y-69595238D01*
X90292857Y-69690476D01*
X90197619Y-69738095D01*
X91626190Y-69785714D02*
X91626190Y-70452380D01*
X91197619Y-69785714D02*
X91197619Y-70309523D01*
X91245238Y-70404761D01*
X91340476Y-70452380D01*
X91483333Y-70452380D01*
X91578571Y-70404761D01*
X91626190Y-70357142D01*
X92435714Y-69928571D02*
X92102380Y-69928571D01*
X92102380Y-70452380D02*
X92102380Y-69452380D01*
X92578571Y-69452380D01*
%TO.C,C5*%
X103083333Y-84307142D02*
X103035714Y-84354761D01*
X102892857Y-84402380D01*
X102797619Y-84402380D01*
X102654761Y-84354761D01*
X102559523Y-84259523D01*
X102511904Y-84164285D01*
X102464285Y-83973809D01*
X102464285Y-83830952D01*
X102511904Y-83640476D01*
X102559523Y-83545238D01*
X102654761Y-83450000D01*
X102797619Y-83402380D01*
X102892857Y-83402380D01*
X103035714Y-83450000D01*
X103083333Y-83497619D01*
X103988095Y-83402380D02*
X103511904Y-83402380D01*
X103464285Y-83878571D01*
X103511904Y-83830952D01*
X103607142Y-83783333D01*
X103845238Y-83783333D01*
X103940476Y-83830952D01*
X103988095Y-83878571D01*
X104035714Y-83973809D01*
X104035714Y-84211904D01*
X103988095Y-84307142D01*
X103940476Y-84354761D01*
X103845238Y-84402380D01*
X103607142Y-84402380D01*
X103511904Y-84354761D01*
X103464285Y-84307142D01*
X104880952Y-86152380D02*
X104976190Y-86152380D01*
X105071428Y-86200000D01*
X105119047Y-86247619D01*
X105166666Y-86342857D01*
X105214285Y-86533333D01*
X105214285Y-86771428D01*
X105166666Y-86961904D01*
X105119047Y-87057142D01*
X105071428Y-87104761D01*
X104976190Y-87152380D01*
X104880952Y-87152380D01*
X104785714Y-87104761D01*
X104738095Y-87057142D01*
X104690476Y-86961904D01*
X104642857Y-86771428D01*
X104642857Y-86533333D01*
X104690476Y-86342857D01*
X104738095Y-86247619D01*
X104785714Y-86200000D01*
X104880952Y-86152380D01*
X105642857Y-87057142D02*
X105690476Y-87104761D01*
X105642857Y-87152380D01*
X105595238Y-87104761D01*
X105642857Y-87057142D01*
X105642857Y-87152380D01*
X106309523Y-86152380D02*
X106404761Y-86152380D01*
X106500000Y-86200000D01*
X106547619Y-86247619D01*
X106595238Y-86342857D01*
X106642857Y-86533333D01*
X106642857Y-86771428D01*
X106595238Y-86961904D01*
X106547619Y-87057142D01*
X106500000Y-87104761D01*
X106404761Y-87152380D01*
X106309523Y-87152380D01*
X106214285Y-87104761D01*
X106166666Y-87057142D01*
X106119047Y-86961904D01*
X106071428Y-86771428D01*
X106071428Y-86533333D01*
X106119047Y-86342857D01*
X106166666Y-86247619D01*
X106214285Y-86200000D01*
X106309523Y-86152380D01*
X107595238Y-87152380D02*
X107023809Y-87152380D01*
X107309523Y-87152380D02*
X107309523Y-86152380D01*
X107214285Y-86295238D01*
X107119047Y-86390476D01*
X107023809Y-86438095D01*
X108452380Y-86485714D02*
X108452380Y-87152380D01*
X108023809Y-86485714D02*
X108023809Y-87009523D01*
X108071428Y-87104761D01*
X108166666Y-87152380D01*
X108309523Y-87152380D01*
X108404761Y-87104761D01*
X108452380Y-87057142D01*
X109261904Y-86628571D02*
X108928571Y-86628571D01*
X108928571Y-87152380D02*
X108928571Y-86152380D01*
X109404761Y-86152380D01*
%TO.C,C4*%
X100307142Y-57766666D02*
X100354761Y-57814285D01*
X100402380Y-57957142D01*
X100402380Y-58052380D01*
X100354761Y-58195238D01*
X100259523Y-58290476D01*
X100164285Y-58338095D01*
X99973809Y-58385714D01*
X99830952Y-58385714D01*
X99640476Y-58338095D01*
X99545238Y-58290476D01*
X99450000Y-58195238D01*
X99402380Y-58052380D01*
X99402380Y-57957142D01*
X99450000Y-57814285D01*
X99497619Y-57766666D01*
X99735714Y-56909523D02*
X100402380Y-56909523D01*
X99354761Y-57147619D02*
X100069047Y-57385714D01*
X100069047Y-56766666D01*
X97152380Y-63042857D02*
X97152380Y-62947619D01*
X97200000Y-62852380D01*
X97247619Y-62804761D01*
X97342857Y-62757142D01*
X97533333Y-62709523D01*
X97771428Y-62709523D01*
X97961904Y-62757142D01*
X98057142Y-62804761D01*
X98104761Y-62852380D01*
X98152380Y-62947619D01*
X98152380Y-63042857D01*
X98104761Y-63138095D01*
X98057142Y-63185714D01*
X97961904Y-63233333D01*
X97771428Y-63280952D01*
X97533333Y-63280952D01*
X97342857Y-63233333D01*
X97247619Y-63185714D01*
X97200000Y-63138095D01*
X97152380Y-63042857D01*
X98057142Y-62280952D02*
X98104761Y-62233333D01*
X98152380Y-62280952D01*
X98104761Y-62328571D01*
X98057142Y-62280952D01*
X98152380Y-62280952D01*
X98152380Y-61280952D02*
X98152380Y-61852380D01*
X98152380Y-61566666D02*
X97152380Y-61566666D01*
X97295238Y-61661904D01*
X97390476Y-61757142D01*
X97438095Y-61852380D01*
X97485714Y-60423809D02*
X98152380Y-60423809D01*
X97485714Y-60852380D02*
X98009523Y-60852380D01*
X98104761Y-60804761D01*
X98152380Y-60709523D01*
X98152380Y-60566666D01*
X98104761Y-60471428D01*
X98057142Y-60423809D01*
X97628571Y-59614285D02*
X97628571Y-59947619D01*
X98152380Y-59947619D02*
X97152380Y-59947619D01*
X97152380Y-59471428D01*
%TO.C,C3*%
X97157142Y-53216666D02*
X97204761Y-53264285D01*
X97252380Y-53407142D01*
X97252380Y-53502380D01*
X97204761Y-53645238D01*
X97109523Y-53740476D01*
X97014285Y-53788095D01*
X96823809Y-53835714D01*
X96680952Y-53835714D01*
X96490476Y-53788095D01*
X96395238Y-53740476D01*
X96300000Y-53645238D01*
X96252380Y-53502380D01*
X96252380Y-53407142D01*
X96300000Y-53264285D01*
X96347619Y-53216666D01*
X96252380Y-52883333D02*
X96252380Y-52264285D01*
X96633333Y-52597619D01*
X96633333Y-52454761D01*
X96680952Y-52359523D01*
X96728571Y-52311904D01*
X96823809Y-52264285D01*
X97061904Y-52264285D01*
X97157142Y-52311904D01*
X97204761Y-52359523D01*
X97252380Y-52454761D01*
X97252380Y-52740476D01*
X97204761Y-52835714D01*
X97157142Y-52883333D01*
X102847619Y-52451190D02*
X102800000Y-52410714D01*
X102752380Y-52329761D01*
X102752380Y-52127380D01*
X102800000Y-52046428D01*
X102847619Y-52005952D01*
X102942857Y-51965476D01*
X103038095Y-51965476D01*
X103180952Y-52005952D01*
X103752380Y-52491666D01*
X103752380Y-51965476D01*
X102847619Y-51641666D02*
X102800000Y-51601190D01*
X102752380Y-51520238D01*
X102752380Y-51317857D01*
X102800000Y-51236904D01*
X102847619Y-51196428D01*
X102942857Y-51155952D01*
X103038095Y-51155952D01*
X103180952Y-51196428D01*
X103752380Y-51682142D01*
X103752380Y-51155952D01*
X102752380Y-50629761D02*
X102752380Y-50548809D01*
X102800000Y-50467857D01*
X102847619Y-50427380D01*
X102942857Y-50386904D01*
X103133333Y-50346428D01*
X103371428Y-50346428D01*
X103561904Y-50386904D01*
X103657142Y-50427380D01*
X103704761Y-50467857D01*
X103752380Y-50548809D01*
X103752380Y-50629761D01*
X103704761Y-50710714D01*
X103657142Y-50751190D01*
X103561904Y-50791666D01*
X103371428Y-50832142D01*
X103133333Y-50832142D01*
X102942857Y-50791666D01*
X102847619Y-50751190D01*
X102800000Y-50710714D01*
X102752380Y-50629761D01*
X103085714Y-49617857D02*
X103752380Y-49617857D01*
X103085714Y-49982142D02*
X103609523Y-49982142D01*
X103704761Y-49941666D01*
X103752380Y-49860714D01*
X103752380Y-49739285D01*
X103704761Y-49658333D01*
X103657142Y-49617857D01*
X103228571Y-48929761D02*
X103228571Y-49213095D01*
X103752380Y-49213095D02*
X102752380Y-49213095D01*
X102752380Y-48808333D01*
%TO.C,C2*%
X138357142Y-56666666D02*
X138404761Y-56714285D01*
X138452380Y-56857142D01*
X138452380Y-56952380D01*
X138404761Y-57095238D01*
X138309523Y-57190476D01*
X138214285Y-57238095D01*
X138023809Y-57285714D01*
X137880952Y-57285714D01*
X137690476Y-57238095D01*
X137595238Y-57190476D01*
X137500000Y-57095238D01*
X137452380Y-56952380D01*
X137452380Y-56857142D01*
X137500000Y-56714285D01*
X137547619Y-56666666D01*
X137547619Y-56285714D02*
X137500000Y-56238095D01*
X137452380Y-56142857D01*
X137452380Y-55904761D01*
X137500000Y-55809523D01*
X137547619Y-55761904D01*
X137642857Y-55714285D01*
X137738095Y-55714285D01*
X137880952Y-55761904D01*
X138452380Y-56333333D01*
X138452380Y-55714285D01*
X132952380Y-57595238D02*
X132952380Y-58166666D01*
X132952380Y-57880952D02*
X131952380Y-57880952D01*
X132095238Y-57976190D01*
X132190476Y-58071428D01*
X132238095Y-58166666D01*
X132285714Y-56738095D02*
X132952380Y-56738095D01*
X132285714Y-57166666D02*
X132809523Y-57166666D01*
X132904761Y-57119047D01*
X132952380Y-57023809D01*
X132952380Y-56880952D01*
X132904761Y-56785714D01*
X132857142Y-56738095D01*
X132428571Y-55928571D02*
X132428571Y-56261904D01*
X132952380Y-56261904D02*
X131952380Y-56261904D01*
X131952380Y-55785714D01*
%TO.C,C1*%
X94907142Y-75216666D02*
X94954761Y-75264285D01*
X95002380Y-75407142D01*
X95002380Y-75502380D01*
X94954761Y-75645238D01*
X94859523Y-75740476D01*
X94764285Y-75788095D01*
X94573809Y-75835714D01*
X94430952Y-75835714D01*
X94240476Y-75788095D01*
X94145238Y-75740476D01*
X94050000Y-75645238D01*
X94002380Y-75502380D01*
X94002380Y-75407142D01*
X94050000Y-75264285D01*
X94097619Y-75216666D01*
X95002380Y-74264285D02*
X95002380Y-74835714D01*
X95002380Y-74550000D02*
X94002380Y-74550000D01*
X94145238Y-74645238D01*
X94240476Y-74740476D01*
X94288095Y-74835714D01*
X95652380Y-81192857D02*
X95652380Y-81097619D01*
X95700000Y-81002380D01*
X95747619Y-80954761D01*
X95842857Y-80907142D01*
X96033333Y-80859523D01*
X96271428Y-80859523D01*
X96461904Y-80907142D01*
X96557142Y-80954761D01*
X96604761Y-81002380D01*
X96652380Y-81097619D01*
X96652380Y-81192857D01*
X96604761Y-81288095D01*
X96557142Y-81335714D01*
X96461904Y-81383333D01*
X96271428Y-81430952D01*
X96033333Y-81430952D01*
X95842857Y-81383333D01*
X95747619Y-81335714D01*
X95700000Y-81288095D01*
X95652380Y-81192857D01*
X96557142Y-80430952D02*
X96604761Y-80383333D01*
X96652380Y-80430952D01*
X96604761Y-80478571D01*
X96557142Y-80430952D01*
X96652380Y-80430952D01*
X96652380Y-79430952D02*
X96652380Y-80002380D01*
X96652380Y-79716666D02*
X95652380Y-79716666D01*
X95795238Y-79811904D01*
X95890476Y-79907142D01*
X95938095Y-80002380D01*
X95985714Y-78573809D02*
X96652380Y-78573809D01*
X95985714Y-79002380D02*
X96509523Y-79002380D01*
X96604761Y-78954761D01*
X96652380Y-78859523D01*
X96652380Y-78716666D01*
X96604761Y-78621428D01*
X96557142Y-78573809D01*
X96128571Y-77764285D02*
X96128571Y-78097619D01*
X96652380Y-78097619D02*
X95652380Y-78097619D01*
X95652380Y-77621428D01*
%TD*%
M02*
