%TF.GenerationSoftware,KiCad,Pcbnew,5.1.10-88a1d61d58~90~ubuntu20.04.1*%
%TF.CreationDate,2021-12-10T22:24:31-05:00*%
%TF.ProjectId,Load_Balancer_mk_4,4c6f6164-5f42-4616-9c61-6e6365725f6d,rev?*%
%TF.SameCoordinates,Original*%
%TF.FileFunction,Profile,NP*%
%FSLAX46Y46*%
G04 Gerber Fmt 4.6, Leading zero omitted, Abs format (unit mm)*
G04 Created by KiCad (PCBNEW 5.1.10-88a1d61d58~90~ubuntu20.04.1) date 2021-12-10 22:24:31*
%MOMM*%
%LPD*%
G01*
G04 APERTURE LIST*
%TA.AperFunction,Profile*%
%ADD10C,0.050000*%
%TD*%
G04 APERTURE END LIST*
D10*
X44000000Y-36500000D02*
G75*
G02*
X45500000Y-35000000I1500000J0D01*
G01*
X45500000Y-105000000D02*
G75*
G02*
X44000000Y-103500000I0J1500000D01*
G01*
X144000000Y-103500000D02*
G75*
G02*
X142500000Y-105000000I-1500000J0D01*
G01*
X142500000Y-35000000D02*
G75*
G02*
X144000000Y-36500000I0J-1500000D01*
G01*
X74300000Y-86750000D02*
X74300000Y-84250000D01*
X69500000Y-83850000D02*
X73900000Y-83850000D01*
X69500000Y-84650000D02*
G75*
G02*
X69500000Y-83850000I0J400000D01*
G01*
X73900000Y-83850000D02*
G75*
G02*
X74300000Y-84250000I0J-400000D01*
G01*
X69500000Y-86350000D02*
X73500000Y-86350000D01*
X69500000Y-87150000D02*
G75*
G02*
X69500000Y-86350000I0J400000D01*
G01*
X69500000Y-87150000D02*
X73900000Y-87150000D01*
X69500000Y-84650000D02*
X73500000Y-84650000D01*
X74300000Y-86750000D02*
G75*
G02*
X73900000Y-87150000I-400000J0D01*
G01*
X73500000Y-86350000D02*
X73500000Y-84650000D01*
X69500000Y-52850000D02*
X73900000Y-52850000D01*
X69500000Y-53650000D02*
G75*
G02*
X69500000Y-52850000I0J400000D01*
G01*
X69500000Y-53650000D02*
X73500000Y-53650000D01*
X73900000Y-52850000D02*
G75*
G02*
X74300000Y-53250000I0J-400000D01*
G01*
X74300000Y-55750000D02*
X74300000Y-53250000D01*
X74300000Y-55750000D02*
G75*
G02*
X73900000Y-56150000I-400000J0D01*
G01*
X73500000Y-55350000D02*
X73500000Y-53650000D01*
X144000000Y-36500000D02*
X144000000Y-103500000D01*
X45500000Y-35000000D02*
X142500000Y-35000000D01*
X45500000Y-105000000D02*
X142500000Y-105000000D01*
X44000000Y-36500000D02*
X44000000Y-103500000D01*
X69500000Y-55350000D02*
X73500000Y-55350000D01*
X69500000Y-56150000D02*
X73900000Y-56150000D01*
X69500000Y-56150000D02*
G75*
G02*
X69500000Y-55350000I0J400000D01*
G01*
M02*
