%TF.GenerationSoftware,KiCad,Pcbnew,5.1.10-88a1d61d58~90~ubuntu20.04.1*%
%TF.CreationDate,2021-12-10T22:24:31-05:00*%
%TF.ProjectId,Load_Balancer_mk_4,4c6f6164-5f42-4616-9c61-6e6365725f6d,rev?*%
%TF.SameCoordinates,Original*%
%TF.FileFunction,Soldermask,Bot*%
%TF.FilePolarity,Negative*%
%FSLAX46Y46*%
G04 Gerber Fmt 4.6, Leading zero omitted, Abs format (unit mm)*
G04 Created by KiCad (PCBNEW 5.1.10-88a1d61d58~90~ubuntu20.04.1) date 2021-12-10 22:24:31*
%MOMM*%
%LPD*%
G01*
G04 APERTURE LIST*
%ADD10C,0.100000*%
%ADD11O,1.600000X1.600000*%
%ADD12R,1.600000X1.600000*%
%ADD13C,1.600000*%
%ADD14O,2.400000X2.400000*%
%ADD15C,2.400000*%
%ADD16O,2.250000X1.550000*%
%ADD17R,2.250000X1.550000*%
%ADD18R,1.500000X1.500000*%
%ADD19C,1.500000*%
%ADD20C,1.800000*%
%ADD21C,0.900000*%
%ADD22C,10.600000*%
%ADD23R,1.800000X1.800000*%
%ADD24O,2.200000X2.200000*%
%ADD25R,2.200000X2.200000*%
%ADD26C,2.000000*%
%ADD27R,2.000000X2.000000*%
G04 APERTURE END LIST*
D10*
G36*
X57000000Y-76500000D02*
G01*
X44000000Y-76500000D01*
X44000000Y-63500000D01*
X57000000Y-63500000D01*
X57000000Y-76500000D01*
G37*
X57000000Y-76500000D02*
X44000000Y-76500000D01*
X44000000Y-63500000D01*
X57000000Y-63500000D01*
X57000000Y-76500000D01*
G36*
X57000000Y-56500000D02*
G01*
X44000000Y-56500000D01*
X44000000Y-43500000D01*
X57000000Y-43500000D01*
X57000000Y-56500000D01*
G37*
X57000000Y-56500000D02*
X44000000Y-56500000D01*
X44000000Y-43500000D01*
X57000000Y-43500000D01*
X57000000Y-56500000D01*
G36*
X57000000Y-96500000D02*
G01*
X44000000Y-96500000D01*
X44000000Y-83500000D01*
X57000000Y-83500000D01*
X57000000Y-96500000D01*
G37*
X57000000Y-96500000D02*
X44000000Y-96500000D01*
X44000000Y-83500000D01*
X57000000Y-83500000D01*
X57000000Y-96500000D01*
G36*
X144000000Y-105000000D02*
G01*
X131000000Y-105000000D01*
X131000000Y-92000000D01*
X144000000Y-92000000D01*
X144000000Y-105000000D01*
G37*
X144000000Y-105000000D02*
X131000000Y-105000000D01*
X131000000Y-92000000D01*
X144000000Y-92000000D01*
X144000000Y-105000000D01*
D11*
%TO.C,U1*%
X100650000Y-73380000D03*
X115890000Y-81000000D03*
X103190000Y-73380000D03*
X113350000Y-81000000D03*
X105730000Y-73380000D03*
X110810000Y-81000000D03*
X108270000Y-73380000D03*
X108270000Y-81000000D03*
X110810000Y-73380000D03*
X105730000Y-81000000D03*
X113350000Y-73380000D03*
X103190000Y-81000000D03*
X115890000Y-73380000D03*
D12*
X100650000Y-81000000D03*
%TD*%
D13*
%TO.C,TH1*%
X94650000Y-44350000D03*
X89650000Y-42550000D03*
%TD*%
D14*
%TO.C,R18*%
X85240000Y-43550000D03*
D15*
X70000000Y-43550000D03*
%TD*%
D16*
%TO.C,D5*%
X72000000Y-88040000D03*
X72000000Y-85500000D03*
D17*
X72000000Y-82960000D03*
%TD*%
D16*
%TO.C,D4*%
X72000000Y-51960000D03*
X72000000Y-54500000D03*
D17*
X72000000Y-57040000D03*
%TD*%
D18*
%TO.C,Q2*%
X94780000Y-88050000D03*
D19*
X89700000Y-88050000D03*
X92240000Y-88050000D03*
%TD*%
D18*
%TO.C,Q1*%
X93040000Y-48750000D03*
D19*
X87960000Y-48750000D03*
X90500000Y-48750000D03*
%TD*%
D11*
%TO.C,U2*%
X103200000Y-60130000D03*
X118440000Y-67750000D03*
X105740000Y-60130000D03*
X115900000Y-67750000D03*
X108280000Y-60130000D03*
X113360000Y-67750000D03*
X110820000Y-60130000D03*
X110820000Y-67750000D03*
X113360000Y-60130000D03*
X108280000Y-67750000D03*
X115900000Y-60130000D03*
X105740000Y-67750000D03*
X118440000Y-60130000D03*
D12*
X103200000Y-67750000D03*
%TD*%
D20*
%TO.C,RV3*%
X63866670Y-101900000D03*
X65500000Y-94400000D03*
%TD*%
%TO.C,RV2*%
X65533330Y-37600000D03*
X63900000Y-45100000D03*
%TD*%
%TO.C,RV1*%
X80050000Y-71233330D03*
X72550000Y-69600000D03*
%TD*%
D11*
%TO.C,R17*%
X87260000Y-91350000D03*
D13*
X77100000Y-91350000D03*
%TD*%
D11*
%TO.C,R16*%
X77100000Y-88050000D03*
D13*
X87260000Y-88050000D03*
%TD*%
D11*
%TO.C,R15*%
X85310000Y-52000000D03*
D13*
X75150000Y-52000000D03*
%TD*%
D11*
%TO.C,R14*%
X75150000Y-48750000D03*
D13*
X85310000Y-48750000D03*
%TD*%
D11*
%TO.C,R13*%
X86150000Y-83610000D03*
D13*
X86150000Y-73450000D03*
%TD*%
D11*
%TO.C,R12*%
X90500000Y-52550000D03*
D13*
X90500000Y-62710000D03*
%TD*%
D11*
%TO.C,R11*%
X93700000Y-52550000D03*
D13*
X93700000Y-62710000D03*
%TD*%
D11*
%TO.C,R10*%
X89300000Y-83600000D03*
D13*
X89300000Y-73440000D03*
%TD*%
D11*
%TO.C,R9*%
X86640000Y-66050000D03*
D13*
X96800000Y-66050000D03*
%TD*%
D11*
%TO.C,R8*%
X120960000Y-84450000D03*
D13*
X110800000Y-84450000D03*
%TD*%
D11*
%TO.C,R7*%
X100650000Y-83690000D03*
D13*
X100650000Y-93850000D03*
%TD*%
D11*
%TO.C,R6*%
X112810000Y-55500000D03*
D13*
X102650000Y-55500000D03*
%TD*%
D11*
%TO.C,R5*%
X103890000Y-93900000D03*
D13*
X114050000Y-93900000D03*
%TD*%
D11*
%TO.C,R4*%
X117200000Y-93900000D03*
D13*
X127360000Y-93900000D03*
%TD*%
D14*
%TO.C,R3*%
X132500000Y-73260000D03*
D15*
X132500000Y-88500000D03*
%TD*%
D11*
%TO.C,R2*%
X126000000Y-55660000D03*
D13*
X126000000Y-45500000D03*
%TD*%
D11*
%TO.C,R1*%
X126000000Y-68000000D03*
D13*
X126000000Y-57840000D03*
%TD*%
D21*
%TO.C,J4*%
X52810749Y-87189251D03*
X50000000Y-86025000D03*
X47189251Y-87189251D03*
X46025000Y-90000000D03*
X47189251Y-92810749D03*
X50000000Y-93975000D03*
X52810749Y-92810749D03*
X53975000Y-90000000D03*
D22*
X50000000Y-90000000D03*
%TD*%
D21*
%TO.C,J3*%
X52810749Y-47189251D03*
X50000000Y-46025000D03*
X47189251Y-47189251D03*
X46025000Y-50000000D03*
X47189251Y-52810749D03*
X50000000Y-53975000D03*
X52810749Y-52810749D03*
X53975000Y-50000000D03*
D22*
X50000000Y-50000000D03*
%TD*%
D21*
%TO.C,J2*%
X52810749Y-67189251D03*
X50000000Y-66025000D03*
X47189251Y-67189251D03*
X46025000Y-70000000D03*
X47189251Y-72810749D03*
X50000000Y-73975000D03*
X52810749Y-72810749D03*
X53975000Y-70000000D03*
D22*
X50000000Y-70000000D03*
%TD*%
D21*
%TO.C,J1*%
X140310749Y-95689251D03*
X137500000Y-94525000D03*
X134689251Y-95689251D03*
X133525000Y-98500000D03*
X134689251Y-101310749D03*
X137500000Y-102475000D03*
X140310749Y-101310749D03*
X141475000Y-98500000D03*
D22*
X137500000Y-98500000D03*
%TD*%
D20*
%TO.C,D3*%
X115900000Y-55500000D03*
D23*
X118440000Y-55500000D03*
%TD*%
D24*
%TO.C,D2*%
X118650000Y-50150000D03*
D25*
X108490000Y-50150000D03*
%TD*%
D24*
%TO.C,D1*%
X111030000Y-45500000D03*
D25*
X118650000Y-45500000D03*
%TD*%
D13*
%TO.C,C6*%
X94300000Y-69300000D03*
X96800000Y-69300000D03*
%TD*%
%TO.C,C5*%
X108250000Y-84450000D03*
X105750000Y-84450000D03*
%TD*%
%TO.C,C4*%
X99850000Y-62600000D03*
X99850000Y-60100000D03*
%TD*%
D26*
%TO.C,C3*%
X101000000Y-46000000D03*
D27*
X101000000Y-51000000D03*
%TD*%
D15*
%TO.C,C2*%
X132500000Y-45500000D03*
X132500000Y-68000000D03*
%TD*%
D13*
%TO.C,C1*%
X96900000Y-75900000D03*
X96900000Y-73400000D03*
%TD*%
M02*
