M48
; DRILL file {KiCad 5.1.10-88a1d61d58~90~ubuntu20.04.1} date Fri Dec 10 22:25:03 2021
; FORMAT={-:-/ absolute / metric / decimal}
; #@! TF.CreationDate,2021-12-10T22:25:03-05:00
; #@! TF.GenerationSoftware,Kicad,Pcbnew,5.1.10-88a1d61d58~90~ubuntu20.04.1
; #@! TF.FileFunction,Plated,1,2,PTH
FMAT,2
METRIC
T1C0.400
T2C0.600
T3C0.750
T4C0.800
T5C0.900
T6C1.000
T7C1.100
T8C1.200
T9C5.300
%
G90
G05
T1
X80.8Y-82.95
X84.6Y-64.0
X84.65Y-57.05
T2
X46.025Y-50.0
X46.025Y-70.0
X46.025Y-90.0
X47.189Y-47.189
X47.189Y-52.811
X47.189Y-67.189
X47.189Y-72.811
X47.189Y-87.189
X47.189Y-92.811
X50.0Y-46.025
X50.0Y-53.975
X50.0Y-66.025
X50.0Y-73.975
X50.0Y-86.025
X50.0Y-93.975
X52.811Y-47.189
X52.811Y-52.811
X52.811Y-67.189
X52.811Y-72.811
X52.811Y-87.189
X52.811Y-92.811
X53.975Y-50.0
X53.975Y-70.0
X53.975Y-90.0
X133.525Y-98.5
X134.689Y-95.689
X134.689Y-101.311
X137.5Y-94.525
X137.5Y-102.475
X140.311Y-95.689
X140.311Y-101.311
X141.475Y-98.5
T3
X89.65Y-42.55
X94.65Y-44.35
T4
X63.867Y-101.9
X63.9Y-45.1
X65.5Y-94.4
X65.533Y-37.6
X72.55Y-69.6
X75.15Y-48.75
X75.15Y-52.0
X77.1Y-88.05
X77.1Y-91.35
X80.05Y-71.233
X85.31Y-48.75
X85.31Y-52.0
X86.15Y-73.45
X86.15Y-83.61
X86.64Y-66.05
X87.26Y-88.05
X87.26Y-91.35
X87.96Y-48.75
X89.3Y-73.44
X89.3Y-83.6
X89.7Y-88.05
X90.5Y-48.75
X90.5Y-52.55
X90.5Y-62.71
X92.24Y-88.05
X93.04Y-48.75
X93.7Y-52.55
X93.7Y-62.71
X94.3Y-69.3
X94.78Y-88.05
X96.8Y-66.05
X96.8Y-69.3
X96.9Y-73.4
X96.9Y-75.9
X99.85Y-60.1
X99.85Y-62.6
X100.65Y-73.38
X100.65Y-81.0
X100.65Y-83.69
X100.65Y-93.85
X102.65Y-55.5
X103.19Y-73.38
X103.19Y-81.0
X103.2Y-60.13
X103.2Y-67.75
X103.89Y-93.9
X105.73Y-73.38
X105.73Y-81.0
X105.74Y-60.13
X105.74Y-67.75
X105.75Y-84.45
X108.25Y-84.45
X108.27Y-73.38
X108.27Y-81.0
X108.28Y-60.13
X108.28Y-67.75
X110.8Y-84.45
X110.81Y-73.38
X110.81Y-81.0
X110.82Y-60.13
X110.82Y-67.75
X112.81Y-55.5
X113.35Y-73.38
X113.35Y-81.0
X113.36Y-60.13
X113.36Y-67.75
X114.05Y-93.9
X115.89Y-73.38
X115.89Y-81.0
X115.9Y-60.13
X115.9Y-67.75
X117.2Y-93.9
X118.44Y-60.13
X118.44Y-67.75
X120.96Y-84.45
X126.0Y-45.5
X126.0Y-55.66
X126.0Y-57.84
X126.0Y-68.0
X127.36Y-93.9
T5
X115.9Y-55.5
X118.44Y-55.5
T6
X101.0Y-46.0
X101.0Y-51.0
T7
X72.0Y-51.96
X72.0Y-54.5
X72.0Y-57.04
X72.0Y-82.96
X72.0Y-85.5
X72.0Y-88.04
X108.49Y-50.15
X111.03Y-45.5
X118.65Y-45.5
X118.65Y-50.15
T8
X70.0Y-43.55
X85.24Y-43.55
X132.5Y-45.5
X132.5Y-68.0
X132.5Y-73.26
X132.5Y-88.5
T9
X50.0Y-50.0
X50.0Y-70.0
X50.0Y-90.0
X137.5Y-98.5
T0
M30
